M48
; DRILL file KiCad 10.0.3 date 2026-06-06T08:41:36
; FORMAT={-:-/ absolute / inch / decimal}
; #@! TF.CreationDate,2026-06-06T08:41:36+09:00
; #@! TF.GenerationSoftware,Kicad,Pcbnew,10.0.3
; #@! TF.FileFunction,Plated,1,4,PTH
FMAT,2
INCH
; #@! TA.AperFunction,Plated,PTH,ViaDrill
T1C0.0118
; #@! TA.AperFunction,Plated,PTH,ComponentDrill
T2C0.0236
; #@! TA.AperFunction,Plated,PTH,ComponentDrill
T3C0.0276
%
G90
G05
T1
X5.9252Y-3.3543
X5.9764Y-3.315
X6.0118Y-3.1969
X6.0118Y-3.248
X6.0197Y-3.3701
X6.0748Y-3.2795
X6.122Y-4.1535
X6.1614Y-4.2126
X6.1654Y-4.0984
X6.3937Y-4.1691
X6.4961Y-3.3898
X6.5069Y-3.2813
X6.5181Y-3.8016
X6.5263Y-4.1457
X6.5453Y-3.2813
X6.5551Y-4.1772
X6.5633Y-3.8777
X6.5748Y-3.9982
X6.6083Y-3.3169
X6.6457Y-3.6732
X6.6496Y-3.7913
X6.6535Y-3.9724
X6.6614Y-3.9331
X6.662Y-3.7624
X6.6654Y-3.8228
X6.6693Y-3.6496
X6.7047Y-3.6496
X6.7362Y-3.6654
X6.7362Y-3.815
X6.7382Y-3.5335
X6.7795Y-3.6535
X6.7907Y-4.0014
X6.7992Y-3.437
X6.8031Y-3.9724
X6.815Y-3.4764
X6.815Y-3.6535
X6.815Y-3.7402
X6.8307Y-3.3169
X6.8693Y-3.9048
X6.874Y-3.5787
X6.9331Y-3.5197
X6.937Y-3.9048
X7.0118Y-3.7106
X7.0354Y-3.8819
X7.0551Y-4.2835
X7.0591Y-3.7008
X7.1693Y-3.2165
X7.1929Y-3.8504
X7.2087Y-3.6457
X7.2087Y-3.6457
T3
X7.2984Y-3.6264
X7.2984Y-3.8539
T2
G00X7.2571Y-3.5701
M15
G01X7.3004Y-3.5701
M16
G05
G00X7.2571Y-3.9102
M15
G01X7.3004Y-3.9102
M16
G05
G00X7.4295Y-3.5701
M15
G01X7.4571Y-3.5701
M16
G05
G00X7.4295Y-3.9102
M15
G01X7.4571Y-3.9102
M16
G05
M30
