%TF.GenerationSoftware,KiCad,Pcbnew,10.0.3*%
%TF.CreationDate,2026-06-06T08:41:36+09:00*%
%TF.ProjectId,hid-sfp-flasher,6869642d-7366-4702-9d66-6c6173686572,rev?*%
%TF.SameCoordinates,Original*%
%TF.FileFunction,Legend,Top*%
%TF.FilePolarity,Positive*%
%FSLAX46Y46*%
G04 Gerber Fmt 4.6, Leading zero omitted, Abs format (unit mm)*
G04 Created by KiCad (PCBNEW 10.0.3) date 2026-06-06 08:41:36*
%MOMM*%
%LPD*%
G01*
G04 APERTURE LIST*
G04 Aperture macros list*
%AMRoundRect*
0 Rectangle with rounded corners*
0 $1 Rounding radius*
0 $2 $3 $4 $5 $6 $7 $8 $9 X,Y pos of 4 corners*
0 Add a 4 corners polygon primitive as box body*
4,1,4,$2,$3,$4,$5,$6,$7,$8,$9,$2,$3,0*
0 Add four circle primitives for the rounded corners*
1,1,$1+$1,$2,$3*
1,1,$1+$1,$4,$5*
1,1,$1+$1,$6,$7*
1,1,$1+$1,$8,$9*
0 Add four rect primitives between the rounded corners*
20,1,$1+$1,$2,$3,$4,$5,0*
20,1,$1+$1,$4,$5,$6,$7,0*
20,1,$1+$1,$6,$7,$8,$9,0*
20,1,$1+$1,$8,$9,$2,$3,0*%
G04 Aperture macros list end*
%ADD10C,0.250000*%
%ADD11C,0.150000*%
%ADD12C,0.100000*%
%ADD13C,0.300000*%
%ADD14C,0.120000*%
%ADD15C,0.200000*%
%ADD16C,0.060000*%
%ADD17R,0.530000X1.070000*%
%ADD18RoundRect,0.225000X-0.250000X0.225000X-0.250000X-0.225000X0.250000X-0.225000X0.250000X0.225000X0*%
%ADD19R,0.280000X0.600000*%
%ADD20R,1.700000X0.300000*%
%ADD21RoundRect,0.140000X0.170000X-0.140000X0.170000X0.140000X-0.170000X0.140000X-0.170000X-0.140000X0*%
%ADD22R,1.050000X0.650000*%
%ADD23RoundRect,0.135000X-0.185000X0.135000X-0.185000X-0.135000X0.185000X-0.135000X0.185000X0.135000X0*%
%ADD24C,1.500000*%
%ADD25C,1.650000*%
%ADD26RoundRect,0.125000X-0.625000X0.125000X-0.625000X-0.125000X0.625000X-0.125000X0.625000X0.125000X0*%
%ADD27RoundRect,0.140000X-0.170000X0.140000X-0.170000X-0.140000X0.170000X-0.140000X0.170000X0.140000X0*%
%ADD28RoundRect,0.135000X0.135000X0.185000X-0.135000X0.185000X-0.135000X-0.185000X0.135000X-0.185000X0*%
%ADD29C,3.200000*%
%ADD30RoundRect,0.140000X0.140000X0.170000X-0.140000X0.170000X-0.140000X-0.170000X0.140000X-0.170000X0*%
%ADD31RoundRect,0.135000X0.185000X-0.135000X0.185000X0.135000X-0.185000X0.135000X-0.185000X-0.135000X0*%
%ADD32RoundRect,0.150000X-0.512500X-0.150000X0.512500X-0.150000X0.512500X0.150000X-0.512500X0.150000X0*%
%ADD33R,1.100000X3.700000*%
%ADD34R,0.200000X1.100000*%
%ADD35R,1.100000X0.200000*%
%ADD36R,3.100000X3.100000*%
%ADD37RoundRect,0.225000X0.250000X-0.225000X0.250000X0.225000X-0.250000X0.225000X-0.250000X-0.225000X0*%
%ADD38RoundRect,0.225000X-0.225000X-0.250000X0.225000X-0.250000X0.225000X0.250000X-0.225000X0.250000X0*%
%ADD39R,1.500000X1.330000*%
%ADD40R,1.400000X1.200000*%
%ADD41C,0.700000*%
%ADD42O,2.100000X1.000000*%
%ADD43O,1.600000X1.000000*%
%ADD44R,1.150000X0.600000*%
%ADD45R,1.150000X0.300000*%
%ADD46RoundRect,0.200000X0.200000X0.275000X-0.200000X0.275000X-0.200000X-0.275000X0.200000X-0.275000X0*%
%ADD47C,1.600000*%
%ADD48R,1.800000X0.350000*%
G04 APERTURE END LIST*
D10*
X148304949Y-91557056D02*
X148447806Y-91604675D01*
X148447806Y-91604675D02*
X148685901Y-91604675D01*
X148685901Y-91604675D02*
X148781139Y-91557056D01*
X148781139Y-91557056D02*
X148828758Y-91509436D01*
X148828758Y-91509436D02*
X148876377Y-91414198D01*
X148876377Y-91414198D02*
X148876377Y-91318960D01*
X148876377Y-91318960D02*
X148828758Y-91223722D01*
X148828758Y-91223722D02*
X148781139Y-91176103D01*
X148781139Y-91176103D02*
X148685901Y-91128484D01*
X148685901Y-91128484D02*
X148495425Y-91080865D01*
X148495425Y-91080865D02*
X148400187Y-91033246D01*
X148400187Y-91033246D02*
X148352568Y-90985627D01*
X148352568Y-90985627D02*
X148304949Y-90890389D01*
X148304949Y-90890389D02*
X148304949Y-90795151D01*
X148304949Y-90795151D02*
X148352568Y-90699913D01*
X148352568Y-90699913D02*
X148400187Y-90652294D01*
X148400187Y-90652294D02*
X148495425Y-90604675D01*
X148495425Y-90604675D02*
X148733520Y-90604675D01*
X148733520Y-90604675D02*
X148876377Y-90652294D01*
X149638282Y-91080865D02*
X149304949Y-91080865D01*
X149304949Y-91604675D02*
X149304949Y-90604675D01*
X149304949Y-90604675D02*
X149781139Y-90604675D01*
X150162092Y-91604675D02*
X150162092Y-90604675D01*
X150162092Y-90604675D02*
X150543044Y-90604675D01*
X150543044Y-90604675D02*
X150638282Y-90652294D01*
X150638282Y-90652294D02*
X150685901Y-90699913D01*
X150685901Y-90699913D02*
X150733520Y-90795151D01*
X150733520Y-90795151D02*
X150733520Y-90938008D01*
X150733520Y-90938008D02*
X150685901Y-91033246D01*
X150685901Y-91033246D02*
X150638282Y-91080865D01*
X150638282Y-91080865D02*
X150543044Y-91128484D01*
X150543044Y-91128484D02*
X150162092Y-91128484D01*
X151876377Y-90557056D02*
X151019235Y-91842770D01*
X152876377Y-91699913D02*
X152781139Y-91652294D01*
X152781139Y-91652294D02*
X152685901Y-91557056D01*
X152685901Y-91557056D02*
X152543044Y-91414198D01*
X152543044Y-91414198D02*
X152447806Y-91366579D01*
X152447806Y-91366579D02*
X152352568Y-91366579D01*
X152400187Y-91604675D02*
X152304949Y-91557056D01*
X152304949Y-91557056D02*
X152209711Y-91461817D01*
X152209711Y-91461817D02*
X152162092Y-91271341D01*
X152162092Y-91271341D02*
X152162092Y-90938008D01*
X152162092Y-90938008D02*
X152209711Y-90747532D01*
X152209711Y-90747532D02*
X152304949Y-90652294D01*
X152304949Y-90652294D02*
X152400187Y-90604675D01*
X152400187Y-90604675D02*
X152590663Y-90604675D01*
X152590663Y-90604675D02*
X152685901Y-90652294D01*
X152685901Y-90652294D02*
X152781139Y-90747532D01*
X152781139Y-90747532D02*
X152828758Y-90938008D01*
X152828758Y-90938008D02*
X152828758Y-91271341D01*
X152828758Y-91271341D02*
X152781139Y-91461817D01*
X152781139Y-91461817D02*
X152685901Y-91557056D01*
X152685901Y-91557056D02*
X152590663Y-91604675D01*
X152590663Y-91604675D02*
X152400187Y-91604675D01*
X153209711Y-91557056D02*
X153352568Y-91604675D01*
X153352568Y-91604675D02*
X153590663Y-91604675D01*
X153590663Y-91604675D02*
X153685901Y-91557056D01*
X153685901Y-91557056D02*
X153733520Y-91509436D01*
X153733520Y-91509436D02*
X153781139Y-91414198D01*
X153781139Y-91414198D02*
X153781139Y-91318960D01*
X153781139Y-91318960D02*
X153733520Y-91223722D01*
X153733520Y-91223722D02*
X153685901Y-91176103D01*
X153685901Y-91176103D02*
X153590663Y-91128484D01*
X153590663Y-91128484D02*
X153400187Y-91080865D01*
X153400187Y-91080865D02*
X153304949Y-91033246D01*
X153304949Y-91033246D02*
X153257330Y-90985627D01*
X153257330Y-90985627D02*
X153209711Y-90890389D01*
X153209711Y-90890389D02*
X153209711Y-90795151D01*
X153209711Y-90795151D02*
X153257330Y-90699913D01*
X153257330Y-90699913D02*
X153304949Y-90652294D01*
X153304949Y-90652294D02*
X153400187Y-90604675D01*
X153400187Y-90604675D02*
X153638282Y-90604675D01*
X153638282Y-90604675D02*
X153781139Y-90652294D01*
X154543044Y-91080865D02*
X154209711Y-91080865D01*
X154209711Y-91604675D02*
X154209711Y-90604675D01*
X154209711Y-90604675D02*
X154685901Y-90604675D01*
X155066854Y-91604675D02*
X155066854Y-90604675D01*
X155066854Y-90604675D02*
X155447806Y-90604675D01*
X155447806Y-90604675D02*
X155543044Y-90652294D01*
X155543044Y-90652294D02*
X155590663Y-90699913D01*
X155590663Y-90699913D02*
X155638282Y-90795151D01*
X155638282Y-90795151D02*
X155638282Y-90938008D01*
X155638282Y-90938008D02*
X155590663Y-91033246D01*
X155590663Y-91033246D02*
X155543044Y-91080865D01*
X155543044Y-91080865D02*
X155447806Y-91128484D01*
X155447806Y-91128484D02*
X155066854Y-91128484D01*
X157162092Y-91080865D02*
X156828759Y-91080865D01*
X156828759Y-91604675D02*
X156828759Y-90604675D01*
X156828759Y-90604675D02*
X157304949Y-90604675D01*
X157828759Y-91604675D02*
X157733521Y-91557056D01*
X157733521Y-91557056D02*
X157685902Y-91461817D01*
X157685902Y-91461817D02*
X157685902Y-90604675D01*
X158638283Y-91604675D02*
X158638283Y-91080865D01*
X158638283Y-91080865D02*
X158590664Y-90985627D01*
X158590664Y-90985627D02*
X158495426Y-90938008D01*
X158495426Y-90938008D02*
X158304950Y-90938008D01*
X158304950Y-90938008D02*
X158209712Y-90985627D01*
X158638283Y-91557056D02*
X158543045Y-91604675D01*
X158543045Y-91604675D02*
X158304950Y-91604675D01*
X158304950Y-91604675D02*
X158209712Y-91557056D01*
X158209712Y-91557056D02*
X158162093Y-91461817D01*
X158162093Y-91461817D02*
X158162093Y-91366579D01*
X158162093Y-91366579D02*
X158209712Y-91271341D01*
X158209712Y-91271341D02*
X158304950Y-91223722D01*
X158304950Y-91223722D02*
X158543045Y-91223722D01*
X158543045Y-91223722D02*
X158638283Y-91176103D01*
X159066855Y-91557056D02*
X159162093Y-91604675D01*
X159162093Y-91604675D02*
X159352569Y-91604675D01*
X159352569Y-91604675D02*
X159447807Y-91557056D01*
X159447807Y-91557056D02*
X159495426Y-91461817D01*
X159495426Y-91461817D02*
X159495426Y-91414198D01*
X159495426Y-91414198D02*
X159447807Y-91318960D01*
X159447807Y-91318960D02*
X159352569Y-91271341D01*
X159352569Y-91271341D02*
X159209712Y-91271341D01*
X159209712Y-91271341D02*
X159114474Y-91223722D01*
X159114474Y-91223722D02*
X159066855Y-91128484D01*
X159066855Y-91128484D02*
X159066855Y-91080865D01*
X159066855Y-91080865D02*
X159114474Y-90985627D01*
X159114474Y-90985627D02*
X159209712Y-90938008D01*
X159209712Y-90938008D02*
X159352569Y-90938008D01*
X159352569Y-90938008D02*
X159447807Y-90985627D01*
X159923998Y-91604675D02*
X159923998Y-90604675D01*
X160352569Y-91604675D02*
X160352569Y-91080865D01*
X160352569Y-91080865D02*
X160304950Y-90985627D01*
X160304950Y-90985627D02*
X160209712Y-90938008D01*
X160209712Y-90938008D02*
X160066855Y-90938008D01*
X160066855Y-90938008D02*
X159971617Y-90985627D01*
X159971617Y-90985627D02*
X159923998Y-91033246D01*
X161209712Y-91557056D02*
X161114474Y-91604675D01*
X161114474Y-91604675D02*
X160923998Y-91604675D01*
X160923998Y-91604675D02*
X160828760Y-91557056D01*
X160828760Y-91557056D02*
X160781141Y-91461817D01*
X160781141Y-91461817D02*
X160781141Y-91080865D01*
X160781141Y-91080865D02*
X160828760Y-90985627D01*
X160828760Y-90985627D02*
X160923998Y-90938008D01*
X160923998Y-90938008D02*
X161114474Y-90938008D01*
X161114474Y-90938008D02*
X161209712Y-90985627D01*
X161209712Y-90985627D02*
X161257331Y-91080865D01*
X161257331Y-91080865D02*
X161257331Y-91176103D01*
X161257331Y-91176103D02*
X160781141Y-91271341D01*
X161685903Y-91604675D02*
X161685903Y-90938008D01*
X161685903Y-91128484D02*
X161733522Y-91033246D01*
X161733522Y-91033246D02*
X161781141Y-90985627D01*
X161781141Y-90985627D02*
X161876379Y-90938008D01*
X161876379Y-90938008D02*
X161971617Y-90938008D01*
X148971615Y-92738428D02*
X148923996Y-92690809D01*
X148923996Y-92690809D02*
X148828758Y-92643190D01*
X148828758Y-92643190D02*
X148733520Y-92643190D01*
X148733520Y-92643190D02*
X148638282Y-92690809D01*
X148638282Y-92690809D02*
X148590663Y-92738428D01*
X148590663Y-92738428D02*
X148543044Y-92833666D01*
X148543044Y-92833666D02*
X148543044Y-92928904D01*
X148543044Y-92928904D02*
X148590663Y-93024142D01*
X148590663Y-93024142D02*
X148638282Y-93071761D01*
X148638282Y-93071761D02*
X148733520Y-93119380D01*
X148733520Y-93119380D02*
X148828758Y-93119380D01*
X148828758Y-93119380D02*
X148923996Y-93071761D01*
X148923996Y-93071761D02*
X148971615Y-93024142D01*
X148971615Y-92643190D02*
X148971615Y-93024142D01*
X148971615Y-93024142D02*
X149019234Y-93071761D01*
X149019234Y-93071761D02*
X149066853Y-93071761D01*
X149066853Y-93071761D02*
X149162092Y-93024142D01*
X149162092Y-93024142D02*
X149209711Y-92928904D01*
X149209711Y-92928904D02*
X149209711Y-92690809D01*
X149209711Y-92690809D02*
X149114473Y-92547952D01*
X149114473Y-92547952D02*
X148971615Y-92452714D01*
X148971615Y-92452714D02*
X148781139Y-92405095D01*
X148781139Y-92405095D02*
X148590663Y-92452714D01*
X148590663Y-92452714D02*
X148447806Y-92547952D01*
X148447806Y-92547952D02*
X148352568Y-92690809D01*
X148352568Y-92690809D02*
X148304949Y-92881285D01*
X148304949Y-92881285D02*
X148352568Y-93071761D01*
X148352568Y-93071761D02*
X148447806Y-93214619D01*
X148447806Y-93214619D02*
X148590663Y-93309857D01*
X148590663Y-93309857D02*
X148781139Y-93357476D01*
X148781139Y-93357476D02*
X148971615Y-93309857D01*
X148971615Y-93309857D02*
X149114473Y-93214619D01*
X149638282Y-93214619D02*
X149638282Y-92214619D01*
X150066853Y-93214619D02*
X150066853Y-92690809D01*
X150066853Y-92690809D02*
X150019234Y-92595571D01*
X150019234Y-92595571D02*
X149923996Y-92547952D01*
X149923996Y-92547952D02*
X149781139Y-92547952D01*
X149781139Y-92547952D02*
X149685901Y-92595571D01*
X149685901Y-92595571D02*
X149638282Y-92643190D01*
X150447806Y-92547952D02*
X150685901Y-93214619D01*
X150923996Y-92547952D02*
X150685901Y-93214619D01*
X150685901Y-93214619D02*
X150590663Y-93452714D01*
X150590663Y-93452714D02*
X150543044Y-93500333D01*
X150543044Y-93500333D02*
X150447806Y-93547952D01*
X151304949Y-92547952D02*
X151304949Y-93547952D01*
X151304949Y-92595571D02*
X151400187Y-92547952D01*
X151400187Y-92547952D02*
X151590663Y-92547952D01*
X151590663Y-92547952D02*
X151685901Y-92595571D01*
X151685901Y-92595571D02*
X151733520Y-92643190D01*
X151733520Y-92643190D02*
X151781139Y-92738428D01*
X151781139Y-92738428D02*
X151781139Y-93024142D01*
X151781139Y-93024142D02*
X151733520Y-93119380D01*
X151733520Y-93119380D02*
X151685901Y-93167000D01*
X151685901Y-93167000D02*
X151590663Y-93214619D01*
X151590663Y-93214619D02*
X151400187Y-93214619D01*
X151400187Y-93214619D02*
X151304949Y-93167000D01*
X152590663Y-93167000D02*
X152495425Y-93214619D01*
X152495425Y-93214619D02*
X152304949Y-93214619D01*
X152304949Y-93214619D02*
X152209711Y-93167000D01*
X152209711Y-93167000D02*
X152162092Y-93071761D01*
X152162092Y-93071761D02*
X152162092Y-92690809D01*
X152162092Y-92690809D02*
X152209711Y-92595571D01*
X152209711Y-92595571D02*
X152304949Y-92547952D01*
X152304949Y-92547952D02*
X152495425Y-92547952D01*
X152495425Y-92547952D02*
X152590663Y-92595571D01*
X152590663Y-92595571D02*
X152638282Y-92690809D01*
X152638282Y-92690809D02*
X152638282Y-92786047D01*
X152638282Y-92786047D02*
X152162092Y-92881285D01*
X153066854Y-93214619D02*
X153066854Y-92547952D01*
X153066854Y-92738428D02*
X153114473Y-92643190D01*
X153114473Y-92643190D02*
X153162092Y-92595571D01*
X153162092Y-92595571D02*
X153257330Y-92547952D01*
X153257330Y-92547952D02*
X153352568Y-92547952D01*
X153447807Y-93309857D02*
X154209711Y-93309857D01*
X154447807Y-93214619D02*
X154447807Y-92214619D01*
X154447807Y-92595571D02*
X154543045Y-92547952D01*
X154543045Y-92547952D02*
X154733521Y-92547952D01*
X154733521Y-92547952D02*
X154828759Y-92595571D01*
X154828759Y-92595571D02*
X154876378Y-92643190D01*
X154876378Y-92643190D02*
X154923997Y-92738428D01*
X154923997Y-92738428D02*
X154923997Y-93024142D01*
X154923997Y-93024142D02*
X154876378Y-93119380D01*
X154876378Y-93119380D02*
X154828759Y-93167000D01*
X154828759Y-93167000D02*
X154733521Y-93214619D01*
X154733521Y-93214619D02*
X154543045Y-93214619D01*
X154543045Y-93214619D02*
X154447807Y-93167000D01*
X155733521Y-93167000D02*
X155638283Y-93214619D01*
X155638283Y-93214619D02*
X155447807Y-93214619D01*
X155447807Y-93214619D02*
X155352569Y-93167000D01*
X155352569Y-93167000D02*
X155304950Y-93071761D01*
X155304950Y-93071761D02*
X155304950Y-92690809D01*
X155304950Y-92690809D02*
X155352569Y-92595571D01*
X155352569Y-92595571D02*
X155447807Y-92547952D01*
X155447807Y-92547952D02*
X155638283Y-92547952D01*
X155638283Y-92547952D02*
X155733521Y-92595571D01*
X155733521Y-92595571D02*
X155781140Y-92690809D01*
X155781140Y-92690809D02*
X155781140Y-92786047D01*
X155781140Y-92786047D02*
X155304950Y-92881285D01*
X156066855Y-92547952D02*
X156447807Y-92547952D01*
X156209712Y-92214619D02*
X156209712Y-93071761D01*
X156209712Y-93071761D02*
X156257331Y-93167000D01*
X156257331Y-93167000D02*
X156352569Y-93214619D01*
X156352569Y-93214619D02*
X156447807Y-93214619D01*
X157209712Y-93214619D02*
X157209712Y-92690809D01*
X157209712Y-92690809D02*
X157162093Y-92595571D01*
X157162093Y-92595571D02*
X157066855Y-92547952D01*
X157066855Y-92547952D02*
X156876379Y-92547952D01*
X156876379Y-92547952D02*
X156781141Y-92595571D01*
X157209712Y-93167000D02*
X157114474Y-93214619D01*
X157114474Y-93214619D02*
X156876379Y-93214619D01*
X156876379Y-93214619D02*
X156781141Y-93167000D01*
X156781141Y-93167000D02*
X156733522Y-93071761D01*
X156733522Y-93071761D02*
X156733522Y-92976523D01*
X156733522Y-92976523D02*
X156781141Y-92881285D01*
X156781141Y-92881285D02*
X156876379Y-92833666D01*
X156876379Y-92833666D02*
X157114474Y-92833666D01*
X157114474Y-92833666D02*
X157209712Y-92786047D01*
X158400189Y-92309857D02*
X158447808Y-92262238D01*
X158447808Y-92262238D02*
X158543046Y-92214619D01*
X158543046Y-92214619D02*
X158781141Y-92214619D01*
X158781141Y-92214619D02*
X158876379Y-92262238D01*
X158876379Y-92262238D02*
X158923998Y-92309857D01*
X158923998Y-92309857D02*
X158971617Y-92405095D01*
X158971617Y-92405095D02*
X158971617Y-92500333D01*
X158971617Y-92500333D02*
X158923998Y-92643190D01*
X158923998Y-92643190D02*
X158352570Y-93214619D01*
X158352570Y-93214619D02*
X158971617Y-93214619D01*
X159590665Y-92214619D02*
X159685903Y-92214619D01*
X159685903Y-92214619D02*
X159781141Y-92262238D01*
X159781141Y-92262238D02*
X159828760Y-92309857D01*
X159828760Y-92309857D02*
X159876379Y-92405095D01*
X159876379Y-92405095D02*
X159923998Y-92595571D01*
X159923998Y-92595571D02*
X159923998Y-92833666D01*
X159923998Y-92833666D02*
X159876379Y-93024142D01*
X159876379Y-93024142D02*
X159828760Y-93119380D01*
X159828760Y-93119380D02*
X159781141Y-93167000D01*
X159781141Y-93167000D02*
X159685903Y-93214619D01*
X159685903Y-93214619D02*
X159590665Y-93214619D01*
X159590665Y-93214619D02*
X159495427Y-93167000D01*
X159495427Y-93167000D02*
X159447808Y-93119380D01*
X159447808Y-93119380D02*
X159400189Y-93024142D01*
X159400189Y-93024142D02*
X159352570Y-92833666D01*
X159352570Y-92833666D02*
X159352570Y-92595571D01*
X159352570Y-92595571D02*
X159400189Y-92405095D01*
X159400189Y-92405095D02*
X159447808Y-92309857D01*
X159447808Y-92309857D02*
X159495427Y-92262238D01*
X159495427Y-92262238D02*
X159590665Y-92214619D01*
X160304951Y-92309857D02*
X160352570Y-92262238D01*
X160352570Y-92262238D02*
X160447808Y-92214619D01*
X160447808Y-92214619D02*
X160685903Y-92214619D01*
X160685903Y-92214619D02*
X160781141Y-92262238D01*
X160781141Y-92262238D02*
X160828760Y-92309857D01*
X160828760Y-92309857D02*
X160876379Y-92405095D01*
X160876379Y-92405095D02*
X160876379Y-92500333D01*
X160876379Y-92500333D02*
X160828760Y-92643190D01*
X160828760Y-92643190D02*
X160257332Y-93214619D01*
X160257332Y-93214619D02*
X160876379Y-93214619D01*
X161733522Y-92214619D02*
X161543046Y-92214619D01*
X161543046Y-92214619D02*
X161447808Y-92262238D01*
X161447808Y-92262238D02*
X161400189Y-92309857D01*
X161400189Y-92309857D02*
X161304951Y-92452714D01*
X161304951Y-92452714D02*
X161257332Y-92643190D01*
X161257332Y-92643190D02*
X161257332Y-93024142D01*
X161257332Y-93024142D02*
X161304951Y-93119380D01*
X161304951Y-93119380D02*
X161352570Y-93167000D01*
X161352570Y-93167000D02*
X161447808Y-93214619D01*
X161447808Y-93214619D02*
X161638284Y-93214619D01*
X161638284Y-93214619D02*
X161733522Y-93167000D01*
X161733522Y-93167000D02*
X161781141Y-93119380D01*
X161781141Y-93119380D02*
X161828760Y-93024142D01*
X161828760Y-93024142D02*
X161828760Y-92786047D01*
X161828760Y-92786047D02*
X161781141Y-92690809D01*
X161781141Y-92690809D02*
X161733522Y-92643190D01*
X161733522Y-92643190D02*
X161638284Y-92595571D01*
X161638284Y-92595571D02*
X161447808Y-92595571D01*
X161447808Y-92595571D02*
X161352570Y-92643190D01*
X161352570Y-92643190D02*
X161304951Y-92690809D01*
X161304951Y-92690809D02*
X161257332Y-92786047D01*
X171973996Y-111464619D02*
X171640663Y-110988428D01*
X171402568Y-111464619D02*
X171402568Y-110464619D01*
X171402568Y-110464619D02*
X171783520Y-110464619D01*
X171783520Y-110464619D02*
X171878758Y-110512238D01*
X171878758Y-110512238D02*
X171926377Y-110559857D01*
X171926377Y-110559857D02*
X171973996Y-110655095D01*
X171973996Y-110655095D02*
X171973996Y-110797952D01*
X171973996Y-110797952D02*
X171926377Y-110893190D01*
X171926377Y-110893190D02*
X171878758Y-110940809D01*
X171878758Y-110940809D02*
X171783520Y-110988428D01*
X171783520Y-110988428D02*
X171402568Y-110988428D01*
X172402568Y-110940809D02*
X172735901Y-110940809D01*
X172878758Y-111464619D02*
X172402568Y-111464619D01*
X172402568Y-111464619D02*
X172402568Y-110464619D01*
X172402568Y-110464619D02*
X172878758Y-110464619D01*
X173259711Y-111417000D02*
X173402568Y-111464619D01*
X173402568Y-111464619D02*
X173640663Y-111464619D01*
X173640663Y-111464619D02*
X173735901Y-111417000D01*
X173735901Y-111417000D02*
X173783520Y-111369380D01*
X173783520Y-111369380D02*
X173831139Y-111274142D01*
X173831139Y-111274142D02*
X173831139Y-111178904D01*
X173831139Y-111178904D02*
X173783520Y-111083666D01*
X173783520Y-111083666D02*
X173735901Y-111036047D01*
X173735901Y-111036047D02*
X173640663Y-110988428D01*
X173640663Y-110988428D02*
X173450187Y-110940809D01*
X173450187Y-110940809D02*
X173354949Y-110893190D01*
X173354949Y-110893190D02*
X173307330Y-110845571D01*
X173307330Y-110845571D02*
X173259711Y-110750333D01*
X173259711Y-110750333D02*
X173259711Y-110655095D01*
X173259711Y-110655095D02*
X173307330Y-110559857D01*
X173307330Y-110559857D02*
X173354949Y-110512238D01*
X173354949Y-110512238D02*
X173450187Y-110464619D01*
X173450187Y-110464619D02*
X173688282Y-110464619D01*
X173688282Y-110464619D02*
X173831139Y-110512238D01*
X174259711Y-110940809D02*
X174593044Y-110940809D01*
X174735901Y-111464619D02*
X174259711Y-111464619D01*
X174259711Y-111464619D02*
X174259711Y-110464619D01*
X174259711Y-110464619D02*
X174735901Y-110464619D01*
X175021616Y-110464619D02*
X175593044Y-110464619D01*
X175307330Y-111464619D02*
X175307330Y-110464619D01*
X177785901Y-110940809D02*
X177928758Y-110988428D01*
X177928758Y-110988428D02*
X177976377Y-111036047D01*
X177976377Y-111036047D02*
X178023996Y-111131285D01*
X178023996Y-111131285D02*
X178023996Y-111274142D01*
X178023996Y-111274142D02*
X177976377Y-111369380D01*
X177976377Y-111369380D02*
X177928758Y-111417000D01*
X177928758Y-111417000D02*
X177833520Y-111464619D01*
X177833520Y-111464619D02*
X177452568Y-111464619D01*
X177452568Y-111464619D02*
X177452568Y-110464619D01*
X177452568Y-110464619D02*
X177785901Y-110464619D01*
X177785901Y-110464619D02*
X177881139Y-110512238D01*
X177881139Y-110512238D02*
X177928758Y-110559857D01*
X177928758Y-110559857D02*
X177976377Y-110655095D01*
X177976377Y-110655095D02*
X177976377Y-110750333D01*
X177976377Y-110750333D02*
X177928758Y-110845571D01*
X177928758Y-110845571D02*
X177881139Y-110893190D01*
X177881139Y-110893190D02*
X177785901Y-110940809D01*
X177785901Y-110940809D02*
X177452568Y-110940809D01*
X178643044Y-110464619D02*
X178833520Y-110464619D01*
X178833520Y-110464619D02*
X178928758Y-110512238D01*
X178928758Y-110512238D02*
X179023996Y-110607476D01*
X179023996Y-110607476D02*
X179071615Y-110797952D01*
X179071615Y-110797952D02*
X179071615Y-111131285D01*
X179071615Y-111131285D02*
X179023996Y-111321761D01*
X179023996Y-111321761D02*
X178928758Y-111417000D01*
X178928758Y-111417000D02*
X178833520Y-111464619D01*
X178833520Y-111464619D02*
X178643044Y-111464619D01*
X178643044Y-111464619D02*
X178547806Y-111417000D01*
X178547806Y-111417000D02*
X178452568Y-111321761D01*
X178452568Y-111321761D02*
X178404949Y-111131285D01*
X178404949Y-111131285D02*
X178404949Y-110797952D01*
X178404949Y-110797952D02*
X178452568Y-110607476D01*
X178452568Y-110607476D02*
X178547806Y-110512238D01*
X178547806Y-110512238D02*
X178643044Y-110464619D01*
X179690663Y-110464619D02*
X179881139Y-110464619D01*
X179881139Y-110464619D02*
X179976377Y-110512238D01*
X179976377Y-110512238D02*
X180071615Y-110607476D01*
X180071615Y-110607476D02*
X180119234Y-110797952D01*
X180119234Y-110797952D02*
X180119234Y-111131285D01*
X180119234Y-111131285D02*
X180071615Y-111321761D01*
X180071615Y-111321761D02*
X179976377Y-111417000D01*
X179976377Y-111417000D02*
X179881139Y-111464619D01*
X179881139Y-111464619D02*
X179690663Y-111464619D01*
X179690663Y-111464619D02*
X179595425Y-111417000D01*
X179595425Y-111417000D02*
X179500187Y-111321761D01*
X179500187Y-111321761D02*
X179452568Y-111131285D01*
X179452568Y-111131285D02*
X179452568Y-110797952D01*
X179452568Y-110797952D02*
X179500187Y-110607476D01*
X179500187Y-110607476D02*
X179595425Y-110512238D01*
X179595425Y-110512238D02*
X179690663Y-110464619D01*
X180404949Y-110464619D02*
X180976377Y-110464619D01*
X180690663Y-111464619D02*
X180690663Y-110464619D01*
D11*
X181346428Y-93339164D02*
X181346428Y-92589164D01*
X181346428Y-92589164D02*
X181524999Y-92589164D01*
X181524999Y-92589164D02*
X181632142Y-92624878D01*
X181632142Y-92624878D02*
X181703571Y-92696307D01*
X181703571Y-92696307D02*
X181739285Y-92767735D01*
X181739285Y-92767735D02*
X181774999Y-92910592D01*
X181774999Y-92910592D02*
X181774999Y-93017735D01*
X181774999Y-93017735D02*
X181739285Y-93160592D01*
X181739285Y-93160592D02*
X181703571Y-93232021D01*
X181703571Y-93232021D02*
X181632142Y-93303450D01*
X181632142Y-93303450D02*
X181524999Y-93339164D01*
X181524999Y-93339164D02*
X181346428Y-93339164D01*
X182489285Y-93339164D02*
X182060714Y-93339164D01*
X182274999Y-93339164D02*
X182274999Y-92589164D01*
X182274999Y-92589164D02*
X182203571Y-92696307D01*
X182203571Y-92696307D02*
X182132142Y-92767735D01*
X182132142Y-92767735D02*
X182060714Y-92803450D01*
X164367735Y-92425000D02*
X164403450Y-92460714D01*
X164403450Y-92460714D02*
X164439164Y-92567857D01*
X164439164Y-92567857D02*
X164439164Y-92639285D01*
X164439164Y-92639285D02*
X164403450Y-92746428D01*
X164403450Y-92746428D02*
X164332021Y-92817857D01*
X164332021Y-92817857D02*
X164260592Y-92853571D01*
X164260592Y-92853571D02*
X164117735Y-92889285D01*
X164117735Y-92889285D02*
X164010592Y-92889285D01*
X164010592Y-92889285D02*
X163867735Y-92853571D01*
X163867735Y-92853571D02*
X163796307Y-92817857D01*
X163796307Y-92817857D02*
X163724878Y-92746428D01*
X163724878Y-92746428D02*
X163689164Y-92639285D01*
X163689164Y-92639285D02*
X163689164Y-92567857D01*
X163689164Y-92567857D02*
X163724878Y-92460714D01*
X163724878Y-92460714D02*
X163760592Y-92425000D01*
X163760592Y-92139285D02*
X163724878Y-92103571D01*
X163724878Y-92103571D02*
X163689164Y-92032143D01*
X163689164Y-92032143D02*
X163689164Y-91853571D01*
X163689164Y-91853571D02*
X163724878Y-91782143D01*
X163724878Y-91782143D02*
X163760592Y-91746428D01*
X163760592Y-91746428D02*
X163832021Y-91710714D01*
X163832021Y-91710714D02*
X163903450Y-91710714D01*
X163903450Y-91710714D02*
X164010592Y-91746428D01*
X164010592Y-91746428D02*
X164439164Y-92175000D01*
X164439164Y-92175000D02*
X164439164Y-91710714D01*
X177678571Y-87339164D02*
X177678571Y-87946307D01*
X177678571Y-87946307D02*
X177714285Y-88017735D01*
X177714285Y-88017735D02*
X177750000Y-88053450D01*
X177750000Y-88053450D02*
X177821428Y-88089164D01*
X177821428Y-88089164D02*
X177964285Y-88089164D01*
X177964285Y-88089164D02*
X178035714Y-88053450D01*
X178035714Y-88053450D02*
X178071428Y-88017735D01*
X178071428Y-88017735D02*
X178107142Y-87946307D01*
X178107142Y-87946307D02*
X178107142Y-87339164D01*
X178428571Y-87410592D02*
X178464285Y-87374878D01*
X178464285Y-87374878D02*
X178535714Y-87339164D01*
X178535714Y-87339164D02*
X178714285Y-87339164D01*
X178714285Y-87339164D02*
X178785714Y-87374878D01*
X178785714Y-87374878D02*
X178821428Y-87410592D01*
X178821428Y-87410592D02*
X178857142Y-87482021D01*
X178857142Y-87482021D02*
X178857142Y-87553450D01*
X178857142Y-87553450D02*
X178821428Y-87660592D01*
X178821428Y-87660592D02*
X178392856Y-88089164D01*
X178392856Y-88089164D02*
X178857142Y-88089164D01*
X178517735Y-90875000D02*
X178553450Y-90910714D01*
X178553450Y-90910714D02*
X178589164Y-91017857D01*
X178589164Y-91017857D02*
X178589164Y-91089285D01*
X178589164Y-91089285D02*
X178553450Y-91196428D01*
X178553450Y-91196428D02*
X178482021Y-91267857D01*
X178482021Y-91267857D02*
X178410592Y-91303571D01*
X178410592Y-91303571D02*
X178267735Y-91339285D01*
X178267735Y-91339285D02*
X178160592Y-91339285D01*
X178160592Y-91339285D02*
X178017735Y-91303571D01*
X178017735Y-91303571D02*
X177946307Y-91267857D01*
X177946307Y-91267857D02*
X177874878Y-91196428D01*
X177874878Y-91196428D02*
X177839164Y-91089285D01*
X177839164Y-91089285D02*
X177839164Y-91017857D01*
X177839164Y-91017857D02*
X177874878Y-90910714D01*
X177874878Y-90910714D02*
X177910592Y-90875000D01*
X177839164Y-90625000D02*
X177839164Y-90125000D01*
X177839164Y-90125000D02*
X178589164Y-90446428D01*
X178150984Y-108003450D02*
X178258127Y-108039164D01*
X178258127Y-108039164D02*
X178436698Y-108039164D01*
X178436698Y-108039164D02*
X178508127Y-108003450D01*
X178508127Y-108003450D02*
X178543841Y-107967735D01*
X178543841Y-107967735D02*
X178579555Y-107896307D01*
X178579555Y-107896307D02*
X178579555Y-107824878D01*
X178579555Y-107824878D02*
X178543841Y-107753450D01*
X178543841Y-107753450D02*
X178508127Y-107717735D01*
X178508127Y-107717735D02*
X178436698Y-107682021D01*
X178436698Y-107682021D02*
X178293841Y-107646307D01*
X178293841Y-107646307D02*
X178222412Y-107610592D01*
X178222412Y-107610592D02*
X178186698Y-107574878D01*
X178186698Y-107574878D02*
X178150984Y-107503450D01*
X178150984Y-107503450D02*
X178150984Y-107432021D01*
X178150984Y-107432021D02*
X178186698Y-107360592D01*
X178186698Y-107360592D02*
X178222412Y-107324878D01*
X178222412Y-107324878D02*
X178293841Y-107289164D01*
X178293841Y-107289164D02*
X178472412Y-107289164D01*
X178472412Y-107289164D02*
X178579555Y-107324878D01*
X178829555Y-107289164D02*
X179008127Y-108039164D01*
X179008127Y-108039164D02*
X179150984Y-107503450D01*
X179150984Y-107503450D02*
X179293841Y-108039164D01*
X179293841Y-108039164D02*
X179472413Y-107289164D01*
X180150984Y-108039164D02*
X179722413Y-108039164D01*
X179936698Y-108039164D02*
X179936698Y-107289164D01*
X179936698Y-107289164D02*
X179865270Y-107396307D01*
X179865270Y-107396307D02*
X179793841Y-107467735D01*
X179793841Y-107467735D02*
X179722413Y-107503450D01*
X179767735Y-90732143D02*
X179803450Y-90767857D01*
X179803450Y-90767857D02*
X179839164Y-90875000D01*
X179839164Y-90875000D02*
X179839164Y-90946428D01*
X179839164Y-90946428D02*
X179803450Y-91053571D01*
X179803450Y-91053571D02*
X179732021Y-91125000D01*
X179732021Y-91125000D02*
X179660592Y-91160714D01*
X179660592Y-91160714D02*
X179517735Y-91196428D01*
X179517735Y-91196428D02*
X179410592Y-91196428D01*
X179410592Y-91196428D02*
X179267735Y-91160714D01*
X179267735Y-91160714D02*
X179196307Y-91125000D01*
X179196307Y-91125000D02*
X179124878Y-91053571D01*
X179124878Y-91053571D02*
X179089164Y-90946428D01*
X179089164Y-90946428D02*
X179089164Y-90875000D01*
X179089164Y-90875000D02*
X179124878Y-90767857D01*
X179124878Y-90767857D02*
X179160592Y-90732143D01*
X179839164Y-90017857D02*
X179839164Y-90446428D01*
X179839164Y-90232143D02*
X179089164Y-90232143D01*
X179089164Y-90232143D02*
X179196307Y-90303571D01*
X179196307Y-90303571D02*
X179267735Y-90375000D01*
X179267735Y-90375000D02*
X179303450Y-90446428D01*
X179160592Y-89732142D02*
X179124878Y-89696428D01*
X179124878Y-89696428D02*
X179089164Y-89625000D01*
X179089164Y-89625000D02*
X179089164Y-89446428D01*
X179089164Y-89446428D02*
X179124878Y-89375000D01*
X179124878Y-89375000D02*
X179160592Y-89339285D01*
X179160592Y-89339285D02*
X179232021Y-89303571D01*
X179232021Y-89303571D02*
X179303450Y-89303571D01*
X179303450Y-89303571D02*
X179410592Y-89339285D01*
X179410592Y-89339285D02*
X179839164Y-89767857D01*
X179839164Y-89767857D02*
X179839164Y-89303571D01*
X182939164Y-109125000D02*
X182582021Y-109375000D01*
X182939164Y-109553571D02*
X182189164Y-109553571D01*
X182189164Y-109553571D02*
X182189164Y-109267857D01*
X182189164Y-109267857D02*
X182224878Y-109196428D01*
X182224878Y-109196428D02*
X182260592Y-109160714D01*
X182260592Y-109160714D02*
X182332021Y-109125000D01*
X182332021Y-109125000D02*
X182439164Y-109125000D01*
X182439164Y-109125000D02*
X182510592Y-109160714D01*
X182510592Y-109160714D02*
X182546307Y-109196428D01*
X182546307Y-109196428D02*
X182582021Y-109267857D01*
X182582021Y-109267857D02*
X182582021Y-109553571D01*
X182189164Y-108875000D02*
X182189164Y-108375000D01*
X182189164Y-108375000D02*
X182939164Y-108696428D01*
X150310835Y-77550000D02*
X149775121Y-77550000D01*
X149775121Y-77550000D02*
X149667978Y-77514285D01*
X149667978Y-77514285D02*
X149596550Y-77442857D01*
X149596550Y-77442857D02*
X149560835Y-77335714D01*
X149560835Y-77335714D02*
X149560835Y-77264285D01*
X149560835Y-78300000D02*
X149560835Y-77871429D01*
X149560835Y-78085714D02*
X150310835Y-78085714D01*
X150310835Y-78085714D02*
X150203692Y-78014286D01*
X150203692Y-78014286D02*
X150132264Y-77942857D01*
X150132264Y-77942857D02*
X150096550Y-77871429D01*
X181017735Y-90875000D02*
X181053450Y-90910714D01*
X181053450Y-90910714D02*
X181089164Y-91017857D01*
X181089164Y-91017857D02*
X181089164Y-91089285D01*
X181089164Y-91089285D02*
X181053450Y-91196428D01*
X181053450Y-91196428D02*
X180982021Y-91267857D01*
X180982021Y-91267857D02*
X180910592Y-91303571D01*
X180910592Y-91303571D02*
X180767735Y-91339285D01*
X180767735Y-91339285D02*
X180660592Y-91339285D01*
X180660592Y-91339285D02*
X180517735Y-91303571D01*
X180517735Y-91303571D02*
X180446307Y-91267857D01*
X180446307Y-91267857D02*
X180374878Y-91196428D01*
X180374878Y-91196428D02*
X180339164Y-91089285D01*
X180339164Y-91089285D02*
X180339164Y-91017857D01*
X180339164Y-91017857D02*
X180374878Y-90910714D01*
X180374878Y-90910714D02*
X180410592Y-90875000D01*
X181089164Y-90517857D02*
X181089164Y-90375000D01*
X181089164Y-90375000D02*
X181053450Y-90303571D01*
X181053450Y-90303571D02*
X181017735Y-90267857D01*
X181017735Y-90267857D02*
X180910592Y-90196428D01*
X180910592Y-90196428D02*
X180767735Y-90160714D01*
X180767735Y-90160714D02*
X180482021Y-90160714D01*
X180482021Y-90160714D02*
X180410592Y-90196428D01*
X180410592Y-90196428D02*
X180374878Y-90232143D01*
X180374878Y-90232143D02*
X180339164Y-90303571D01*
X180339164Y-90303571D02*
X180339164Y-90446428D01*
X180339164Y-90446428D02*
X180374878Y-90517857D01*
X180374878Y-90517857D02*
X180410592Y-90553571D01*
X180410592Y-90553571D02*
X180482021Y-90589285D01*
X180482021Y-90589285D02*
X180660592Y-90589285D01*
X180660592Y-90589285D02*
X180732021Y-90553571D01*
X180732021Y-90553571D02*
X180767735Y-90517857D01*
X180767735Y-90517857D02*
X180803450Y-90446428D01*
X180803450Y-90446428D02*
X180803450Y-90303571D01*
X180803450Y-90303571D02*
X180767735Y-90232143D01*
X180767735Y-90232143D02*
X180732021Y-90196428D01*
X180732021Y-90196428D02*
X180660592Y-90160714D01*
X178167735Y-101025000D02*
X178203450Y-101060714D01*
X178203450Y-101060714D02*
X178239164Y-101167857D01*
X178239164Y-101167857D02*
X178239164Y-101239285D01*
X178239164Y-101239285D02*
X178203450Y-101346428D01*
X178203450Y-101346428D02*
X178132021Y-101417857D01*
X178132021Y-101417857D02*
X178060592Y-101453571D01*
X178060592Y-101453571D02*
X177917735Y-101489285D01*
X177917735Y-101489285D02*
X177810592Y-101489285D01*
X177810592Y-101489285D02*
X177667735Y-101453571D01*
X177667735Y-101453571D02*
X177596307Y-101417857D01*
X177596307Y-101417857D02*
X177524878Y-101346428D01*
X177524878Y-101346428D02*
X177489164Y-101239285D01*
X177489164Y-101239285D02*
X177489164Y-101167857D01*
X177489164Y-101167857D02*
X177524878Y-101060714D01*
X177524878Y-101060714D02*
X177560592Y-101025000D01*
X177810592Y-100596428D02*
X177774878Y-100667857D01*
X177774878Y-100667857D02*
X177739164Y-100703571D01*
X177739164Y-100703571D02*
X177667735Y-100739285D01*
X177667735Y-100739285D02*
X177632021Y-100739285D01*
X177632021Y-100739285D02*
X177560592Y-100703571D01*
X177560592Y-100703571D02*
X177524878Y-100667857D01*
X177524878Y-100667857D02*
X177489164Y-100596428D01*
X177489164Y-100596428D02*
X177489164Y-100453571D01*
X177489164Y-100453571D02*
X177524878Y-100382143D01*
X177524878Y-100382143D02*
X177560592Y-100346428D01*
X177560592Y-100346428D02*
X177632021Y-100310714D01*
X177632021Y-100310714D02*
X177667735Y-100310714D01*
X177667735Y-100310714D02*
X177739164Y-100346428D01*
X177739164Y-100346428D02*
X177774878Y-100382143D01*
X177774878Y-100382143D02*
X177810592Y-100453571D01*
X177810592Y-100453571D02*
X177810592Y-100596428D01*
X177810592Y-100596428D02*
X177846307Y-100667857D01*
X177846307Y-100667857D02*
X177882021Y-100703571D01*
X177882021Y-100703571D02*
X177953450Y-100739285D01*
X177953450Y-100739285D02*
X178096307Y-100739285D01*
X178096307Y-100739285D02*
X178167735Y-100703571D01*
X178167735Y-100703571D02*
X178203450Y-100667857D01*
X178203450Y-100667857D02*
X178239164Y-100596428D01*
X178239164Y-100596428D02*
X178239164Y-100453571D01*
X178239164Y-100453571D02*
X178203450Y-100382143D01*
X178203450Y-100382143D02*
X178167735Y-100346428D01*
X178167735Y-100346428D02*
X178096307Y-100310714D01*
X178096307Y-100310714D02*
X177953450Y-100310714D01*
X177953450Y-100310714D02*
X177882021Y-100346428D01*
X177882021Y-100346428D02*
X177846307Y-100382143D01*
X177846307Y-100382143D02*
X177810592Y-100453571D01*
X181174999Y-89589164D02*
X180924999Y-89232021D01*
X180746428Y-89589164D02*
X180746428Y-88839164D01*
X180746428Y-88839164D02*
X181032142Y-88839164D01*
X181032142Y-88839164D02*
X181103571Y-88874878D01*
X181103571Y-88874878D02*
X181139285Y-88910592D01*
X181139285Y-88910592D02*
X181174999Y-88982021D01*
X181174999Y-88982021D02*
X181174999Y-89089164D01*
X181174999Y-89089164D02*
X181139285Y-89160592D01*
X181139285Y-89160592D02*
X181103571Y-89196307D01*
X181103571Y-89196307D02*
X181032142Y-89232021D01*
X181032142Y-89232021D02*
X180746428Y-89232021D01*
X181460714Y-88910592D02*
X181496428Y-88874878D01*
X181496428Y-88874878D02*
X181567857Y-88839164D01*
X181567857Y-88839164D02*
X181746428Y-88839164D01*
X181746428Y-88839164D02*
X181817857Y-88874878D01*
X181817857Y-88874878D02*
X181853571Y-88910592D01*
X181853571Y-88910592D02*
X181889285Y-88982021D01*
X181889285Y-88982021D02*
X181889285Y-89053450D01*
X181889285Y-89053450D02*
X181853571Y-89160592D01*
X181853571Y-89160592D02*
X181424999Y-89589164D01*
X181424999Y-89589164D02*
X181889285Y-89589164D01*
X163474999Y-97967735D02*
X163439285Y-98003450D01*
X163439285Y-98003450D02*
X163332142Y-98039164D01*
X163332142Y-98039164D02*
X163260714Y-98039164D01*
X163260714Y-98039164D02*
X163153571Y-98003450D01*
X163153571Y-98003450D02*
X163082142Y-97932021D01*
X163082142Y-97932021D02*
X163046428Y-97860592D01*
X163046428Y-97860592D02*
X163010714Y-97717735D01*
X163010714Y-97717735D02*
X163010714Y-97610592D01*
X163010714Y-97610592D02*
X163046428Y-97467735D01*
X163046428Y-97467735D02*
X163082142Y-97396307D01*
X163082142Y-97396307D02*
X163153571Y-97324878D01*
X163153571Y-97324878D02*
X163260714Y-97289164D01*
X163260714Y-97289164D02*
X163332142Y-97289164D01*
X163332142Y-97289164D02*
X163439285Y-97324878D01*
X163439285Y-97324878D02*
X163474999Y-97360592D01*
X164117857Y-97289164D02*
X163974999Y-97289164D01*
X163974999Y-97289164D02*
X163903571Y-97324878D01*
X163903571Y-97324878D02*
X163867857Y-97360592D01*
X163867857Y-97360592D02*
X163796428Y-97467735D01*
X163796428Y-97467735D02*
X163760714Y-97610592D01*
X163760714Y-97610592D02*
X163760714Y-97896307D01*
X163760714Y-97896307D02*
X163796428Y-97967735D01*
X163796428Y-97967735D02*
X163832142Y-98003450D01*
X163832142Y-98003450D02*
X163903571Y-98039164D01*
X163903571Y-98039164D02*
X164046428Y-98039164D01*
X164046428Y-98039164D02*
X164117857Y-98003450D01*
X164117857Y-98003450D02*
X164153571Y-97967735D01*
X164153571Y-97967735D02*
X164189285Y-97896307D01*
X164189285Y-97896307D02*
X164189285Y-97717735D01*
X164189285Y-97717735D02*
X164153571Y-97646307D01*
X164153571Y-97646307D02*
X164117857Y-97610592D01*
X164117857Y-97610592D02*
X164046428Y-97574878D01*
X164046428Y-97574878D02*
X163903571Y-97574878D01*
X163903571Y-97574878D02*
X163832142Y-97610592D01*
X163832142Y-97610592D02*
X163796428Y-97646307D01*
X163796428Y-97646307D02*
X163760714Y-97717735D01*
X169517856Y-88567735D02*
X169482142Y-88603450D01*
X169482142Y-88603450D02*
X169374999Y-88639164D01*
X169374999Y-88639164D02*
X169303571Y-88639164D01*
X169303571Y-88639164D02*
X169196428Y-88603450D01*
X169196428Y-88603450D02*
X169124999Y-88532021D01*
X169124999Y-88532021D02*
X169089285Y-88460592D01*
X169089285Y-88460592D02*
X169053571Y-88317735D01*
X169053571Y-88317735D02*
X169053571Y-88210592D01*
X169053571Y-88210592D02*
X169089285Y-88067735D01*
X169089285Y-88067735D02*
X169124999Y-87996307D01*
X169124999Y-87996307D02*
X169196428Y-87924878D01*
X169196428Y-87924878D02*
X169303571Y-87889164D01*
X169303571Y-87889164D02*
X169374999Y-87889164D01*
X169374999Y-87889164D02*
X169482142Y-87924878D01*
X169482142Y-87924878D02*
X169517856Y-87960592D01*
X170232142Y-88639164D02*
X169803571Y-88639164D01*
X170017856Y-88639164D02*
X170017856Y-87889164D01*
X170017856Y-87889164D02*
X169946428Y-87996307D01*
X169946428Y-87996307D02*
X169874999Y-88067735D01*
X169874999Y-88067735D02*
X169803571Y-88103450D01*
X170660714Y-88210592D02*
X170589285Y-88174878D01*
X170589285Y-88174878D02*
X170553571Y-88139164D01*
X170553571Y-88139164D02*
X170517857Y-88067735D01*
X170517857Y-88067735D02*
X170517857Y-88032021D01*
X170517857Y-88032021D02*
X170553571Y-87960592D01*
X170553571Y-87960592D02*
X170589285Y-87924878D01*
X170589285Y-87924878D02*
X170660714Y-87889164D01*
X170660714Y-87889164D02*
X170803571Y-87889164D01*
X170803571Y-87889164D02*
X170875000Y-87924878D01*
X170875000Y-87924878D02*
X170910714Y-87960592D01*
X170910714Y-87960592D02*
X170946428Y-88032021D01*
X170946428Y-88032021D02*
X170946428Y-88067735D01*
X170946428Y-88067735D02*
X170910714Y-88139164D01*
X170910714Y-88139164D02*
X170875000Y-88174878D01*
X170875000Y-88174878D02*
X170803571Y-88210592D01*
X170803571Y-88210592D02*
X170660714Y-88210592D01*
X170660714Y-88210592D02*
X170589285Y-88246307D01*
X170589285Y-88246307D02*
X170553571Y-88282021D01*
X170553571Y-88282021D02*
X170517857Y-88353450D01*
X170517857Y-88353450D02*
X170517857Y-88496307D01*
X170517857Y-88496307D02*
X170553571Y-88567735D01*
X170553571Y-88567735D02*
X170589285Y-88603450D01*
X170589285Y-88603450D02*
X170660714Y-88639164D01*
X170660714Y-88639164D02*
X170803571Y-88639164D01*
X170803571Y-88639164D02*
X170875000Y-88603450D01*
X170875000Y-88603450D02*
X170910714Y-88567735D01*
X170910714Y-88567735D02*
X170946428Y-88496307D01*
X170946428Y-88496307D02*
X170946428Y-88353450D01*
X170946428Y-88353450D02*
X170910714Y-88282021D01*
X170910714Y-88282021D02*
X170875000Y-88246307D01*
X170875000Y-88246307D02*
X170803571Y-88210592D01*
X163339164Y-84982143D02*
X162982021Y-85232143D01*
X163339164Y-85410714D02*
X162589164Y-85410714D01*
X162589164Y-85410714D02*
X162589164Y-85125000D01*
X162589164Y-85125000D02*
X162624878Y-85053571D01*
X162624878Y-85053571D02*
X162660592Y-85017857D01*
X162660592Y-85017857D02*
X162732021Y-84982143D01*
X162732021Y-84982143D02*
X162839164Y-84982143D01*
X162839164Y-84982143D02*
X162910592Y-85017857D01*
X162910592Y-85017857D02*
X162946307Y-85053571D01*
X162946307Y-85053571D02*
X162982021Y-85125000D01*
X162982021Y-85125000D02*
X162982021Y-85410714D01*
X163339164Y-84267857D02*
X163339164Y-84696428D01*
X163339164Y-84482143D02*
X162589164Y-84482143D01*
X162589164Y-84482143D02*
X162696307Y-84553571D01*
X162696307Y-84553571D02*
X162767735Y-84625000D01*
X162767735Y-84625000D02*
X162803450Y-84696428D01*
X162910592Y-83839285D02*
X162874878Y-83910714D01*
X162874878Y-83910714D02*
X162839164Y-83946428D01*
X162839164Y-83946428D02*
X162767735Y-83982142D01*
X162767735Y-83982142D02*
X162732021Y-83982142D01*
X162732021Y-83982142D02*
X162660592Y-83946428D01*
X162660592Y-83946428D02*
X162624878Y-83910714D01*
X162624878Y-83910714D02*
X162589164Y-83839285D01*
X162589164Y-83839285D02*
X162589164Y-83696428D01*
X162589164Y-83696428D02*
X162624878Y-83625000D01*
X162624878Y-83625000D02*
X162660592Y-83589285D01*
X162660592Y-83589285D02*
X162732021Y-83553571D01*
X162732021Y-83553571D02*
X162767735Y-83553571D01*
X162767735Y-83553571D02*
X162839164Y-83589285D01*
X162839164Y-83589285D02*
X162874878Y-83625000D01*
X162874878Y-83625000D02*
X162910592Y-83696428D01*
X162910592Y-83696428D02*
X162910592Y-83839285D01*
X162910592Y-83839285D02*
X162946307Y-83910714D01*
X162946307Y-83910714D02*
X162982021Y-83946428D01*
X162982021Y-83946428D02*
X163053450Y-83982142D01*
X163053450Y-83982142D02*
X163196307Y-83982142D01*
X163196307Y-83982142D02*
X163267735Y-83946428D01*
X163267735Y-83946428D02*
X163303450Y-83910714D01*
X163303450Y-83910714D02*
X163339164Y-83839285D01*
X163339164Y-83839285D02*
X163339164Y-83696428D01*
X163339164Y-83696428D02*
X163303450Y-83625000D01*
X163303450Y-83625000D02*
X163267735Y-83589285D01*
X163267735Y-83589285D02*
X163196307Y-83553571D01*
X163196307Y-83553571D02*
X163053450Y-83553571D01*
X163053450Y-83553571D02*
X162982021Y-83589285D01*
X162982021Y-83589285D02*
X162946307Y-83625000D01*
X162946307Y-83625000D02*
X162910592Y-83696428D01*
X175828571Y-81589164D02*
X175828571Y-82196307D01*
X175828571Y-82196307D02*
X175864285Y-82267735D01*
X175864285Y-82267735D02*
X175900000Y-82303450D01*
X175900000Y-82303450D02*
X175971428Y-82339164D01*
X175971428Y-82339164D02*
X176114285Y-82339164D01*
X176114285Y-82339164D02*
X176185714Y-82303450D01*
X176185714Y-82303450D02*
X176221428Y-82267735D01*
X176221428Y-82267735D02*
X176257142Y-82196307D01*
X176257142Y-82196307D02*
X176257142Y-81589164D01*
X176542856Y-81589164D02*
X177007142Y-81589164D01*
X177007142Y-81589164D02*
X176757142Y-81874878D01*
X176757142Y-81874878D02*
X176864285Y-81874878D01*
X176864285Y-81874878D02*
X176935714Y-81910592D01*
X176935714Y-81910592D02*
X176971428Y-81946307D01*
X176971428Y-81946307D02*
X177007142Y-82017735D01*
X177007142Y-82017735D02*
X177007142Y-82196307D01*
X177007142Y-82196307D02*
X176971428Y-82267735D01*
X176971428Y-82267735D02*
X176935714Y-82303450D01*
X176935714Y-82303450D02*
X176864285Y-82339164D01*
X176864285Y-82339164D02*
X176649999Y-82339164D01*
X176649999Y-82339164D02*
X176578571Y-82303450D01*
X176578571Y-82303450D02*
X176542856Y-82267735D01*
X181274999Y-88539164D02*
X181024999Y-88182021D01*
X180846428Y-88539164D02*
X180846428Y-87789164D01*
X180846428Y-87789164D02*
X181132142Y-87789164D01*
X181132142Y-87789164D02*
X181203571Y-87824878D01*
X181203571Y-87824878D02*
X181239285Y-87860592D01*
X181239285Y-87860592D02*
X181274999Y-87932021D01*
X181274999Y-87932021D02*
X181274999Y-88039164D01*
X181274999Y-88039164D02*
X181239285Y-88110592D01*
X181239285Y-88110592D02*
X181203571Y-88146307D01*
X181203571Y-88146307D02*
X181132142Y-88182021D01*
X181132142Y-88182021D02*
X180846428Y-88182021D01*
X181989285Y-88539164D02*
X181560714Y-88539164D01*
X181774999Y-88539164D02*
X181774999Y-87789164D01*
X181774999Y-87789164D02*
X181703571Y-87896307D01*
X181703571Y-87896307D02*
X181632142Y-87967735D01*
X181632142Y-87967735D02*
X181560714Y-88003450D01*
X162717856Y-96067735D02*
X162682142Y-96103450D01*
X162682142Y-96103450D02*
X162574999Y-96139164D01*
X162574999Y-96139164D02*
X162503571Y-96139164D01*
X162503571Y-96139164D02*
X162396428Y-96103450D01*
X162396428Y-96103450D02*
X162324999Y-96032021D01*
X162324999Y-96032021D02*
X162289285Y-95960592D01*
X162289285Y-95960592D02*
X162253571Y-95817735D01*
X162253571Y-95817735D02*
X162253571Y-95710592D01*
X162253571Y-95710592D02*
X162289285Y-95567735D01*
X162289285Y-95567735D02*
X162324999Y-95496307D01*
X162324999Y-95496307D02*
X162396428Y-95424878D01*
X162396428Y-95424878D02*
X162503571Y-95389164D01*
X162503571Y-95389164D02*
X162574999Y-95389164D01*
X162574999Y-95389164D02*
X162682142Y-95424878D01*
X162682142Y-95424878D02*
X162717856Y-95460592D01*
X163432142Y-96139164D02*
X163003571Y-96139164D01*
X163217856Y-96139164D02*
X163217856Y-95389164D01*
X163217856Y-95389164D02*
X163146428Y-95496307D01*
X163146428Y-95496307D02*
X163074999Y-95567735D01*
X163074999Y-95567735D02*
X163003571Y-95603450D01*
X164110714Y-95389164D02*
X163753571Y-95389164D01*
X163753571Y-95389164D02*
X163717857Y-95746307D01*
X163717857Y-95746307D02*
X163753571Y-95710592D01*
X163753571Y-95710592D02*
X163825000Y-95674878D01*
X163825000Y-95674878D02*
X164003571Y-95674878D01*
X164003571Y-95674878D02*
X164075000Y-95710592D01*
X164075000Y-95710592D02*
X164110714Y-95746307D01*
X164110714Y-95746307D02*
X164146428Y-95817735D01*
X164146428Y-95817735D02*
X164146428Y-95996307D01*
X164146428Y-95996307D02*
X164110714Y-96067735D01*
X164110714Y-96067735D02*
X164075000Y-96103450D01*
X164075000Y-96103450D02*
X164003571Y-96139164D01*
X164003571Y-96139164D02*
X163825000Y-96139164D01*
X163825000Y-96139164D02*
X163753571Y-96103450D01*
X163753571Y-96103450D02*
X163717857Y-96067735D01*
X164339164Y-84982143D02*
X163982021Y-85232143D01*
X164339164Y-85410714D02*
X163589164Y-85410714D01*
X163589164Y-85410714D02*
X163589164Y-85125000D01*
X163589164Y-85125000D02*
X163624878Y-85053571D01*
X163624878Y-85053571D02*
X163660592Y-85017857D01*
X163660592Y-85017857D02*
X163732021Y-84982143D01*
X163732021Y-84982143D02*
X163839164Y-84982143D01*
X163839164Y-84982143D02*
X163910592Y-85017857D01*
X163910592Y-85017857D02*
X163946307Y-85053571D01*
X163946307Y-85053571D02*
X163982021Y-85125000D01*
X163982021Y-85125000D02*
X163982021Y-85410714D01*
X164339164Y-84267857D02*
X164339164Y-84696428D01*
X164339164Y-84482143D02*
X163589164Y-84482143D01*
X163589164Y-84482143D02*
X163696307Y-84553571D01*
X163696307Y-84553571D02*
X163767735Y-84625000D01*
X163767735Y-84625000D02*
X163803450Y-84696428D01*
X163589164Y-84017857D02*
X163589164Y-83517857D01*
X163589164Y-83517857D02*
X164339164Y-83839285D01*
X176539164Y-92125000D02*
X176182021Y-92375000D01*
X176539164Y-92553571D02*
X175789164Y-92553571D01*
X175789164Y-92553571D02*
X175789164Y-92267857D01*
X175789164Y-92267857D02*
X175824878Y-92196428D01*
X175824878Y-92196428D02*
X175860592Y-92160714D01*
X175860592Y-92160714D02*
X175932021Y-92125000D01*
X175932021Y-92125000D02*
X176039164Y-92125000D01*
X176039164Y-92125000D02*
X176110592Y-92160714D01*
X176110592Y-92160714D02*
X176146307Y-92196428D01*
X176146307Y-92196428D02*
X176182021Y-92267857D01*
X176182021Y-92267857D02*
X176182021Y-92553571D01*
X176110592Y-91696428D02*
X176074878Y-91767857D01*
X176074878Y-91767857D02*
X176039164Y-91803571D01*
X176039164Y-91803571D02*
X175967735Y-91839285D01*
X175967735Y-91839285D02*
X175932021Y-91839285D01*
X175932021Y-91839285D02*
X175860592Y-91803571D01*
X175860592Y-91803571D02*
X175824878Y-91767857D01*
X175824878Y-91767857D02*
X175789164Y-91696428D01*
X175789164Y-91696428D02*
X175789164Y-91553571D01*
X175789164Y-91553571D02*
X175824878Y-91482143D01*
X175824878Y-91482143D02*
X175860592Y-91446428D01*
X175860592Y-91446428D02*
X175932021Y-91410714D01*
X175932021Y-91410714D02*
X175967735Y-91410714D01*
X175967735Y-91410714D02*
X176039164Y-91446428D01*
X176039164Y-91446428D02*
X176074878Y-91482143D01*
X176074878Y-91482143D02*
X176110592Y-91553571D01*
X176110592Y-91553571D02*
X176110592Y-91696428D01*
X176110592Y-91696428D02*
X176146307Y-91767857D01*
X176146307Y-91767857D02*
X176182021Y-91803571D01*
X176182021Y-91803571D02*
X176253450Y-91839285D01*
X176253450Y-91839285D02*
X176396307Y-91839285D01*
X176396307Y-91839285D02*
X176467735Y-91803571D01*
X176467735Y-91803571D02*
X176503450Y-91767857D01*
X176503450Y-91767857D02*
X176539164Y-91696428D01*
X176539164Y-91696428D02*
X176539164Y-91553571D01*
X176539164Y-91553571D02*
X176503450Y-91482143D01*
X176503450Y-91482143D02*
X176467735Y-91446428D01*
X176467735Y-91446428D02*
X176396307Y-91410714D01*
X176396307Y-91410714D02*
X176253450Y-91410714D01*
X176253450Y-91410714D02*
X176182021Y-91446428D01*
X176182021Y-91446428D02*
X176146307Y-91482143D01*
X176146307Y-91482143D02*
X176110592Y-91553571D01*
D12*
X167875000Y-83341764D02*
X167517857Y-83341764D01*
X167517857Y-83341764D02*
X167517857Y-82591764D01*
X168517857Y-83341764D02*
X168089286Y-83341764D01*
X168303571Y-83341764D02*
X168303571Y-82591764D01*
X168303571Y-82591764D02*
X168232143Y-82698907D01*
X168232143Y-82698907D02*
X168160714Y-82770335D01*
X168160714Y-82770335D02*
X168089286Y-82806050D01*
D11*
X177167735Y-101682143D02*
X177203450Y-101717857D01*
X177203450Y-101717857D02*
X177239164Y-101825000D01*
X177239164Y-101825000D02*
X177239164Y-101896428D01*
X177239164Y-101896428D02*
X177203450Y-102003571D01*
X177203450Y-102003571D02*
X177132021Y-102075000D01*
X177132021Y-102075000D02*
X177060592Y-102110714D01*
X177060592Y-102110714D02*
X176917735Y-102146428D01*
X176917735Y-102146428D02*
X176810592Y-102146428D01*
X176810592Y-102146428D02*
X176667735Y-102110714D01*
X176667735Y-102110714D02*
X176596307Y-102075000D01*
X176596307Y-102075000D02*
X176524878Y-102003571D01*
X176524878Y-102003571D02*
X176489164Y-101896428D01*
X176489164Y-101896428D02*
X176489164Y-101825000D01*
X176489164Y-101825000D02*
X176524878Y-101717857D01*
X176524878Y-101717857D02*
X176560592Y-101682143D01*
X177239164Y-100967857D02*
X177239164Y-101396428D01*
X177239164Y-101182143D02*
X176489164Y-101182143D01*
X176489164Y-101182143D02*
X176596307Y-101253571D01*
X176596307Y-101253571D02*
X176667735Y-101325000D01*
X176667735Y-101325000D02*
X176703450Y-101396428D01*
X177239164Y-100253571D02*
X177239164Y-100682142D01*
X177239164Y-100467857D02*
X176489164Y-100467857D01*
X176489164Y-100467857D02*
X176596307Y-100539285D01*
X176596307Y-100539285D02*
X176667735Y-100610714D01*
X176667735Y-100610714D02*
X176703450Y-100682142D01*
X167128571Y-98789164D02*
X167128571Y-99396307D01*
X167128571Y-99396307D02*
X167164285Y-99467735D01*
X167164285Y-99467735D02*
X167200000Y-99503450D01*
X167200000Y-99503450D02*
X167271428Y-99539164D01*
X167271428Y-99539164D02*
X167414285Y-99539164D01*
X167414285Y-99539164D02*
X167485714Y-99503450D01*
X167485714Y-99503450D02*
X167521428Y-99467735D01*
X167521428Y-99467735D02*
X167557142Y-99396307D01*
X167557142Y-99396307D02*
X167557142Y-98789164D01*
X168307142Y-99539164D02*
X167878571Y-99539164D01*
X168092856Y-99539164D02*
X168092856Y-98789164D01*
X168092856Y-98789164D02*
X168021428Y-98896307D01*
X168021428Y-98896307D02*
X167949999Y-98967735D01*
X167949999Y-98967735D02*
X167878571Y-99003450D01*
X165939164Y-103482143D02*
X165582021Y-103732143D01*
X165939164Y-103910714D02*
X165189164Y-103910714D01*
X165189164Y-103910714D02*
X165189164Y-103625000D01*
X165189164Y-103625000D02*
X165224878Y-103553571D01*
X165224878Y-103553571D02*
X165260592Y-103517857D01*
X165260592Y-103517857D02*
X165332021Y-103482143D01*
X165332021Y-103482143D02*
X165439164Y-103482143D01*
X165439164Y-103482143D02*
X165510592Y-103517857D01*
X165510592Y-103517857D02*
X165546307Y-103553571D01*
X165546307Y-103553571D02*
X165582021Y-103625000D01*
X165582021Y-103625000D02*
X165582021Y-103910714D01*
X165939164Y-102767857D02*
X165939164Y-103196428D01*
X165939164Y-102982143D02*
X165189164Y-102982143D01*
X165189164Y-102982143D02*
X165296307Y-103053571D01*
X165296307Y-103053571D02*
X165367735Y-103125000D01*
X165367735Y-103125000D02*
X165403450Y-103196428D01*
X165939164Y-102410714D02*
X165939164Y-102267857D01*
X165939164Y-102267857D02*
X165903450Y-102196428D01*
X165903450Y-102196428D02*
X165867735Y-102160714D01*
X165867735Y-102160714D02*
X165760592Y-102089285D01*
X165760592Y-102089285D02*
X165617735Y-102053571D01*
X165617735Y-102053571D02*
X165332021Y-102053571D01*
X165332021Y-102053571D02*
X165260592Y-102089285D01*
X165260592Y-102089285D02*
X165224878Y-102125000D01*
X165224878Y-102125000D02*
X165189164Y-102196428D01*
X165189164Y-102196428D02*
X165189164Y-102339285D01*
X165189164Y-102339285D02*
X165224878Y-102410714D01*
X165224878Y-102410714D02*
X165260592Y-102446428D01*
X165260592Y-102446428D02*
X165332021Y-102482142D01*
X165332021Y-102482142D02*
X165510592Y-102482142D01*
X165510592Y-102482142D02*
X165582021Y-102446428D01*
X165582021Y-102446428D02*
X165617735Y-102410714D01*
X165617735Y-102410714D02*
X165653450Y-102339285D01*
X165653450Y-102339285D02*
X165653450Y-102196428D01*
X165653450Y-102196428D02*
X165617735Y-102125000D01*
X165617735Y-102125000D02*
X165582021Y-102089285D01*
X165582021Y-102089285D02*
X165510592Y-102053571D01*
X179267735Y-82025000D02*
X179303450Y-82060714D01*
X179303450Y-82060714D02*
X179339164Y-82167857D01*
X179339164Y-82167857D02*
X179339164Y-82239285D01*
X179339164Y-82239285D02*
X179303450Y-82346428D01*
X179303450Y-82346428D02*
X179232021Y-82417857D01*
X179232021Y-82417857D02*
X179160592Y-82453571D01*
X179160592Y-82453571D02*
X179017735Y-82489285D01*
X179017735Y-82489285D02*
X178910592Y-82489285D01*
X178910592Y-82489285D02*
X178767735Y-82453571D01*
X178767735Y-82453571D02*
X178696307Y-82417857D01*
X178696307Y-82417857D02*
X178624878Y-82346428D01*
X178624878Y-82346428D02*
X178589164Y-82239285D01*
X178589164Y-82239285D02*
X178589164Y-82167857D01*
X178589164Y-82167857D02*
X178624878Y-82060714D01*
X178624878Y-82060714D02*
X178660592Y-82025000D01*
X178839164Y-81382143D02*
X179339164Y-81382143D01*
X178553450Y-81560714D02*
X179089164Y-81739285D01*
X179089164Y-81739285D02*
X179089164Y-81275000D01*
X170367735Y-102782143D02*
X170403450Y-102817857D01*
X170403450Y-102817857D02*
X170439164Y-102925000D01*
X170439164Y-102925000D02*
X170439164Y-102996428D01*
X170439164Y-102996428D02*
X170403450Y-103103571D01*
X170403450Y-103103571D02*
X170332021Y-103175000D01*
X170332021Y-103175000D02*
X170260592Y-103210714D01*
X170260592Y-103210714D02*
X170117735Y-103246428D01*
X170117735Y-103246428D02*
X170010592Y-103246428D01*
X170010592Y-103246428D02*
X169867735Y-103210714D01*
X169867735Y-103210714D02*
X169796307Y-103175000D01*
X169796307Y-103175000D02*
X169724878Y-103103571D01*
X169724878Y-103103571D02*
X169689164Y-102996428D01*
X169689164Y-102996428D02*
X169689164Y-102925000D01*
X169689164Y-102925000D02*
X169724878Y-102817857D01*
X169724878Y-102817857D02*
X169760592Y-102782143D01*
X170439164Y-102067857D02*
X170439164Y-102496428D01*
X170439164Y-102282143D02*
X169689164Y-102282143D01*
X169689164Y-102282143D02*
X169796307Y-102353571D01*
X169796307Y-102353571D02*
X169867735Y-102425000D01*
X169867735Y-102425000D02*
X169903450Y-102496428D01*
X169939164Y-101425000D02*
X170439164Y-101425000D01*
X169653450Y-101603571D02*
X170189164Y-101782142D01*
X170189164Y-101782142D02*
X170189164Y-101317857D01*
X176374999Y-96339164D02*
X176124999Y-95982021D01*
X175946428Y-96339164D02*
X175946428Y-95589164D01*
X175946428Y-95589164D02*
X176232142Y-95589164D01*
X176232142Y-95589164D02*
X176303571Y-95624878D01*
X176303571Y-95624878D02*
X176339285Y-95660592D01*
X176339285Y-95660592D02*
X176374999Y-95732021D01*
X176374999Y-95732021D02*
X176374999Y-95839164D01*
X176374999Y-95839164D02*
X176339285Y-95910592D01*
X176339285Y-95910592D02*
X176303571Y-95946307D01*
X176303571Y-95946307D02*
X176232142Y-95982021D01*
X176232142Y-95982021D02*
X175946428Y-95982021D01*
X177017857Y-95839164D02*
X177017857Y-96339164D01*
X176839285Y-95553450D02*
X176660714Y-96089164D01*
X176660714Y-96089164D02*
X177124999Y-96089164D01*
X176374999Y-97589164D02*
X176124999Y-97232021D01*
X175946428Y-97589164D02*
X175946428Y-96839164D01*
X175946428Y-96839164D02*
X176232142Y-96839164D01*
X176232142Y-96839164D02*
X176303571Y-96874878D01*
X176303571Y-96874878D02*
X176339285Y-96910592D01*
X176339285Y-96910592D02*
X176374999Y-96982021D01*
X176374999Y-96982021D02*
X176374999Y-97089164D01*
X176374999Y-97089164D02*
X176339285Y-97160592D01*
X176339285Y-97160592D02*
X176303571Y-97196307D01*
X176303571Y-97196307D02*
X176232142Y-97232021D01*
X176232142Y-97232021D02*
X175946428Y-97232021D01*
X176624999Y-96839164D02*
X177089285Y-96839164D01*
X177089285Y-96839164D02*
X176839285Y-97124878D01*
X176839285Y-97124878D02*
X176946428Y-97124878D01*
X176946428Y-97124878D02*
X177017857Y-97160592D01*
X177017857Y-97160592D02*
X177053571Y-97196307D01*
X177053571Y-97196307D02*
X177089285Y-97267735D01*
X177089285Y-97267735D02*
X177089285Y-97446307D01*
X177089285Y-97446307D02*
X177053571Y-97517735D01*
X177053571Y-97517735D02*
X177017857Y-97553450D01*
X177017857Y-97553450D02*
X176946428Y-97589164D01*
X176946428Y-97589164D02*
X176732142Y-97589164D01*
X176732142Y-97589164D02*
X176660714Y-97553450D01*
X176660714Y-97553450D02*
X176624999Y-97517735D01*
X168939164Y-103482143D02*
X168582021Y-103732143D01*
X168939164Y-103910714D02*
X168189164Y-103910714D01*
X168189164Y-103910714D02*
X168189164Y-103625000D01*
X168189164Y-103625000D02*
X168224878Y-103553571D01*
X168224878Y-103553571D02*
X168260592Y-103517857D01*
X168260592Y-103517857D02*
X168332021Y-103482143D01*
X168332021Y-103482143D02*
X168439164Y-103482143D01*
X168439164Y-103482143D02*
X168510592Y-103517857D01*
X168510592Y-103517857D02*
X168546307Y-103553571D01*
X168546307Y-103553571D02*
X168582021Y-103625000D01*
X168582021Y-103625000D02*
X168582021Y-103910714D01*
X168260592Y-103196428D02*
X168224878Y-103160714D01*
X168224878Y-103160714D02*
X168189164Y-103089286D01*
X168189164Y-103089286D02*
X168189164Y-102910714D01*
X168189164Y-102910714D02*
X168224878Y-102839286D01*
X168224878Y-102839286D02*
X168260592Y-102803571D01*
X168260592Y-102803571D02*
X168332021Y-102767857D01*
X168332021Y-102767857D02*
X168403450Y-102767857D01*
X168403450Y-102767857D02*
X168510592Y-102803571D01*
X168510592Y-102803571D02*
X168939164Y-103232143D01*
X168939164Y-103232143D02*
X168939164Y-102767857D01*
X168189164Y-102303571D02*
X168189164Y-102232142D01*
X168189164Y-102232142D02*
X168224878Y-102160714D01*
X168224878Y-102160714D02*
X168260592Y-102125000D01*
X168260592Y-102125000D02*
X168332021Y-102089285D01*
X168332021Y-102089285D02*
X168474878Y-102053571D01*
X168474878Y-102053571D02*
X168653450Y-102053571D01*
X168653450Y-102053571D02*
X168796307Y-102089285D01*
X168796307Y-102089285D02*
X168867735Y-102125000D01*
X168867735Y-102125000D02*
X168903450Y-102160714D01*
X168903450Y-102160714D02*
X168939164Y-102232142D01*
X168939164Y-102232142D02*
X168939164Y-102303571D01*
X168939164Y-102303571D02*
X168903450Y-102375000D01*
X168903450Y-102375000D02*
X168867735Y-102410714D01*
X168867735Y-102410714D02*
X168796307Y-102446428D01*
X168796307Y-102446428D02*
X168653450Y-102482142D01*
X168653450Y-102482142D02*
X168474878Y-102482142D01*
X168474878Y-102482142D02*
X168332021Y-102446428D01*
X168332021Y-102446428D02*
X168260592Y-102410714D01*
X168260592Y-102410714D02*
X168224878Y-102375000D01*
X168224878Y-102375000D02*
X168189164Y-102303571D01*
X171874999Y-88567735D02*
X171839285Y-88603450D01*
X171839285Y-88603450D02*
X171732142Y-88639164D01*
X171732142Y-88639164D02*
X171660714Y-88639164D01*
X171660714Y-88639164D02*
X171553571Y-88603450D01*
X171553571Y-88603450D02*
X171482142Y-88532021D01*
X171482142Y-88532021D02*
X171446428Y-88460592D01*
X171446428Y-88460592D02*
X171410714Y-88317735D01*
X171410714Y-88317735D02*
X171410714Y-88210592D01*
X171410714Y-88210592D02*
X171446428Y-88067735D01*
X171446428Y-88067735D02*
X171482142Y-87996307D01*
X171482142Y-87996307D02*
X171553571Y-87924878D01*
X171553571Y-87924878D02*
X171660714Y-87889164D01*
X171660714Y-87889164D02*
X171732142Y-87889164D01*
X171732142Y-87889164D02*
X171839285Y-87924878D01*
X171839285Y-87924878D02*
X171874999Y-87960592D01*
X172553571Y-87889164D02*
X172196428Y-87889164D01*
X172196428Y-87889164D02*
X172160714Y-88246307D01*
X172160714Y-88246307D02*
X172196428Y-88210592D01*
X172196428Y-88210592D02*
X172267857Y-88174878D01*
X172267857Y-88174878D02*
X172446428Y-88174878D01*
X172446428Y-88174878D02*
X172517857Y-88210592D01*
X172517857Y-88210592D02*
X172553571Y-88246307D01*
X172553571Y-88246307D02*
X172589285Y-88317735D01*
X172589285Y-88317735D02*
X172589285Y-88496307D01*
X172589285Y-88496307D02*
X172553571Y-88567735D01*
X172553571Y-88567735D02*
X172517857Y-88603450D01*
X172517857Y-88603450D02*
X172446428Y-88639164D01*
X172446428Y-88639164D02*
X172267857Y-88639164D01*
X172267857Y-88639164D02*
X172196428Y-88603450D01*
X172196428Y-88603450D02*
X172160714Y-88567735D01*
X182446307Y-84549999D02*
X182446307Y-84799999D01*
X182839164Y-84799999D02*
X182089164Y-84799999D01*
X182089164Y-84799999D02*
X182089164Y-84442856D01*
X182839164Y-83764285D02*
X182839164Y-84192856D01*
X182839164Y-83978571D02*
X182089164Y-83978571D01*
X182089164Y-83978571D02*
X182196307Y-84049999D01*
X182196307Y-84049999D02*
X182267735Y-84121428D01*
X182267735Y-84121428D02*
X182303450Y-84192856D01*
X163092856Y-88789164D02*
X163592856Y-89539164D01*
X163592856Y-88789164D02*
X163092856Y-89539164D01*
X164271428Y-89539164D02*
X163842857Y-89539164D01*
X164057142Y-89539164D02*
X164057142Y-88789164D01*
X164057142Y-88789164D02*
X163985714Y-88896307D01*
X163985714Y-88896307D02*
X163914285Y-88967735D01*
X163914285Y-88967735D02*
X163842857Y-89003450D01*
X175767735Y-101682143D02*
X175803450Y-101717857D01*
X175803450Y-101717857D02*
X175839164Y-101825000D01*
X175839164Y-101825000D02*
X175839164Y-101896428D01*
X175839164Y-101896428D02*
X175803450Y-102003571D01*
X175803450Y-102003571D02*
X175732021Y-102075000D01*
X175732021Y-102075000D02*
X175660592Y-102110714D01*
X175660592Y-102110714D02*
X175517735Y-102146428D01*
X175517735Y-102146428D02*
X175410592Y-102146428D01*
X175410592Y-102146428D02*
X175267735Y-102110714D01*
X175267735Y-102110714D02*
X175196307Y-102075000D01*
X175196307Y-102075000D02*
X175124878Y-102003571D01*
X175124878Y-102003571D02*
X175089164Y-101896428D01*
X175089164Y-101896428D02*
X175089164Y-101825000D01*
X175089164Y-101825000D02*
X175124878Y-101717857D01*
X175124878Y-101717857D02*
X175160592Y-101682143D01*
X175839164Y-100967857D02*
X175839164Y-101396428D01*
X175839164Y-101182143D02*
X175089164Y-101182143D01*
X175089164Y-101182143D02*
X175196307Y-101253571D01*
X175196307Y-101253571D02*
X175267735Y-101325000D01*
X175267735Y-101325000D02*
X175303450Y-101396428D01*
X175089164Y-100503571D02*
X175089164Y-100432142D01*
X175089164Y-100432142D02*
X175124878Y-100360714D01*
X175124878Y-100360714D02*
X175160592Y-100325000D01*
X175160592Y-100325000D02*
X175232021Y-100289285D01*
X175232021Y-100289285D02*
X175374878Y-100253571D01*
X175374878Y-100253571D02*
X175553450Y-100253571D01*
X175553450Y-100253571D02*
X175696307Y-100289285D01*
X175696307Y-100289285D02*
X175767735Y-100325000D01*
X175767735Y-100325000D02*
X175803450Y-100360714D01*
X175803450Y-100360714D02*
X175839164Y-100432142D01*
X175839164Y-100432142D02*
X175839164Y-100503571D01*
X175839164Y-100503571D02*
X175803450Y-100575000D01*
X175803450Y-100575000D02*
X175767735Y-100610714D01*
X175767735Y-100610714D02*
X175696307Y-100646428D01*
X175696307Y-100646428D02*
X175553450Y-100682142D01*
X175553450Y-100682142D02*
X175374878Y-100682142D01*
X175374878Y-100682142D02*
X175232021Y-100646428D01*
X175232021Y-100646428D02*
X175160592Y-100610714D01*
X175160592Y-100610714D02*
X175124878Y-100575000D01*
X175124878Y-100575000D02*
X175089164Y-100503571D01*
X189089164Y-96303571D02*
X189696307Y-96303571D01*
X189696307Y-96303571D02*
X189767735Y-96267857D01*
X189767735Y-96267857D02*
X189803450Y-96232143D01*
X189803450Y-96232143D02*
X189839164Y-96160714D01*
X189839164Y-96160714D02*
X189839164Y-96017857D01*
X189839164Y-96017857D02*
X189803450Y-95946428D01*
X189803450Y-95946428D02*
X189767735Y-95910714D01*
X189767735Y-95910714D02*
X189696307Y-95875000D01*
X189696307Y-95875000D02*
X189089164Y-95875000D01*
X189803450Y-95553571D02*
X189839164Y-95446429D01*
X189839164Y-95446429D02*
X189839164Y-95267857D01*
X189839164Y-95267857D02*
X189803450Y-95196429D01*
X189803450Y-95196429D02*
X189767735Y-95160714D01*
X189767735Y-95160714D02*
X189696307Y-95125000D01*
X189696307Y-95125000D02*
X189624878Y-95125000D01*
X189624878Y-95125000D02*
X189553450Y-95160714D01*
X189553450Y-95160714D02*
X189517735Y-95196429D01*
X189517735Y-95196429D02*
X189482021Y-95267857D01*
X189482021Y-95267857D02*
X189446307Y-95410714D01*
X189446307Y-95410714D02*
X189410592Y-95482143D01*
X189410592Y-95482143D02*
X189374878Y-95517857D01*
X189374878Y-95517857D02*
X189303450Y-95553571D01*
X189303450Y-95553571D02*
X189232021Y-95553571D01*
X189232021Y-95553571D02*
X189160592Y-95517857D01*
X189160592Y-95517857D02*
X189124878Y-95482143D01*
X189124878Y-95482143D02*
X189089164Y-95410714D01*
X189089164Y-95410714D02*
X189089164Y-95232143D01*
X189089164Y-95232143D02*
X189124878Y-95125000D01*
X189446307Y-94553571D02*
X189482021Y-94446428D01*
X189482021Y-94446428D02*
X189517735Y-94410714D01*
X189517735Y-94410714D02*
X189589164Y-94375000D01*
X189589164Y-94375000D02*
X189696307Y-94375000D01*
X189696307Y-94375000D02*
X189767735Y-94410714D01*
X189767735Y-94410714D02*
X189803450Y-94446428D01*
X189803450Y-94446428D02*
X189839164Y-94517857D01*
X189839164Y-94517857D02*
X189839164Y-94803571D01*
X189839164Y-94803571D02*
X189089164Y-94803571D01*
X189089164Y-94803571D02*
X189089164Y-94553571D01*
X189089164Y-94553571D02*
X189124878Y-94482143D01*
X189124878Y-94482143D02*
X189160592Y-94446428D01*
X189160592Y-94446428D02*
X189232021Y-94410714D01*
X189232021Y-94410714D02*
X189303450Y-94410714D01*
X189303450Y-94410714D02*
X189374878Y-94446428D01*
X189374878Y-94446428D02*
X189410592Y-94482143D01*
X189410592Y-94482143D02*
X189446307Y-94553571D01*
X189446307Y-94553571D02*
X189446307Y-94803571D01*
X189839164Y-93660714D02*
X189839164Y-94089285D01*
X189839164Y-93875000D02*
X189089164Y-93875000D01*
X189089164Y-93875000D02*
X189196307Y-93946428D01*
X189196307Y-93946428D02*
X189267735Y-94017857D01*
X189267735Y-94017857D02*
X189303450Y-94089285D01*
X173874999Y-80339164D02*
X173624999Y-79982021D01*
X173446428Y-80339164D02*
X173446428Y-79589164D01*
X173446428Y-79589164D02*
X173732142Y-79589164D01*
X173732142Y-79589164D02*
X173803571Y-79624878D01*
X173803571Y-79624878D02*
X173839285Y-79660592D01*
X173839285Y-79660592D02*
X173874999Y-79732021D01*
X173874999Y-79732021D02*
X173874999Y-79839164D01*
X173874999Y-79839164D02*
X173839285Y-79910592D01*
X173839285Y-79910592D02*
X173803571Y-79946307D01*
X173803571Y-79946307D02*
X173732142Y-79982021D01*
X173732142Y-79982021D02*
X173446428Y-79982021D01*
X174517857Y-79589164D02*
X174374999Y-79589164D01*
X174374999Y-79589164D02*
X174303571Y-79624878D01*
X174303571Y-79624878D02*
X174267857Y-79660592D01*
X174267857Y-79660592D02*
X174196428Y-79767735D01*
X174196428Y-79767735D02*
X174160714Y-79910592D01*
X174160714Y-79910592D02*
X174160714Y-80196307D01*
X174160714Y-80196307D02*
X174196428Y-80267735D01*
X174196428Y-80267735D02*
X174232142Y-80303450D01*
X174232142Y-80303450D02*
X174303571Y-80339164D01*
X174303571Y-80339164D02*
X174446428Y-80339164D01*
X174446428Y-80339164D02*
X174517857Y-80303450D01*
X174517857Y-80303450D02*
X174553571Y-80267735D01*
X174553571Y-80267735D02*
X174589285Y-80196307D01*
X174589285Y-80196307D02*
X174589285Y-80017735D01*
X174589285Y-80017735D02*
X174553571Y-79946307D01*
X174553571Y-79946307D02*
X174517857Y-79910592D01*
X174517857Y-79910592D02*
X174446428Y-79874878D01*
X174446428Y-79874878D02*
X174303571Y-79874878D01*
X174303571Y-79874878D02*
X174232142Y-79910592D01*
X174232142Y-79910592D02*
X174196428Y-79946307D01*
X174196428Y-79946307D02*
X174160714Y-80017735D01*
X173967735Y-102882143D02*
X174003450Y-102917857D01*
X174003450Y-102917857D02*
X174039164Y-103025000D01*
X174039164Y-103025000D02*
X174039164Y-103096428D01*
X174039164Y-103096428D02*
X174003450Y-103203571D01*
X174003450Y-103203571D02*
X173932021Y-103275000D01*
X173932021Y-103275000D02*
X173860592Y-103310714D01*
X173860592Y-103310714D02*
X173717735Y-103346428D01*
X173717735Y-103346428D02*
X173610592Y-103346428D01*
X173610592Y-103346428D02*
X173467735Y-103310714D01*
X173467735Y-103310714D02*
X173396307Y-103275000D01*
X173396307Y-103275000D02*
X173324878Y-103203571D01*
X173324878Y-103203571D02*
X173289164Y-103096428D01*
X173289164Y-103096428D02*
X173289164Y-103025000D01*
X173289164Y-103025000D02*
X173324878Y-102917857D01*
X173324878Y-102917857D02*
X173360592Y-102882143D01*
X174039164Y-102167857D02*
X174039164Y-102596428D01*
X174039164Y-102382143D02*
X173289164Y-102382143D01*
X173289164Y-102382143D02*
X173396307Y-102453571D01*
X173396307Y-102453571D02*
X173467735Y-102525000D01*
X173467735Y-102525000D02*
X173503450Y-102596428D01*
X173289164Y-101917857D02*
X173289164Y-101453571D01*
X173289164Y-101453571D02*
X173574878Y-101703571D01*
X173574878Y-101703571D02*
X173574878Y-101596428D01*
X173574878Y-101596428D02*
X173610592Y-101525000D01*
X173610592Y-101525000D02*
X173646307Y-101489285D01*
X173646307Y-101489285D02*
X173717735Y-101453571D01*
X173717735Y-101453571D02*
X173896307Y-101453571D01*
X173896307Y-101453571D02*
X173967735Y-101489285D01*
X173967735Y-101489285D02*
X174003450Y-101525000D01*
X174003450Y-101525000D02*
X174039164Y-101596428D01*
X174039164Y-101596428D02*
X174039164Y-101810714D01*
X174039164Y-101810714D02*
X174003450Y-101882142D01*
X174003450Y-101882142D02*
X173967735Y-101917857D01*
X167624999Y-85417735D02*
X167589285Y-85453450D01*
X167589285Y-85453450D02*
X167482142Y-85489164D01*
X167482142Y-85489164D02*
X167410714Y-85489164D01*
X167410714Y-85489164D02*
X167303571Y-85453450D01*
X167303571Y-85453450D02*
X167232142Y-85382021D01*
X167232142Y-85382021D02*
X167196428Y-85310592D01*
X167196428Y-85310592D02*
X167160714Y-85167735D01*
X167160714Y-85167735D02*
X167160714Y-85060592D01*
X167160714Y-85060592D02*
X167196428Y-84917735D01*
X167196428Y-84917735D02*
X167232142Y-84846307D01*
X167232142Y-84846307D02*
X167303571Y-84774878D01*
X167303571Y-84774878D02*
X167410714Y-84739164D01*
X167410714Y-84739164D02*
X167482142Y-84739164D01*
X167482142Y-84739164D02*
X167589285Y-84774878D01*
X167589285Y-84774878D02*
X167624999Y-84810592D01*
X168339285Y-85489164D02*
X167910714Y-85489164D01*
X168124999Y-85489164D02*
X168124999Y-84739164D01*
X168124999Y-84739164D02*
X168053571Y-84846307D01*
X168053571Y-84846307D02*
X167982142Y-84917735D01*
X167982142Y-84917735D02*
X167910714Y-84953450D01*
X170674999Y-80339164D02*
X170424999Y-79982021D01*
X170246428Y-80339164D02*
X170246428Y-79589164D01*
X170246428Y-79589164D02*
X170532142Y-79589164D01*
X170532142Y-79589164D02*
X170603571Y-79624878D01*
X170603571Y-79624878D02*
X170639285Y-79660592D01*
X170639285Y-79660592D02*
X170674999Y-79732021D01*
X170674999Y-79732021D02*
X170674999Y-79839164D01*
X170674999Y-79839164D02*
X170639285Y-79910592D01*
X170639285Y-79910592D02*
X170603571Y-79946307D01*
X170603571Y-79946307D02*
X170532142Y-79982021D01*
X170532142Y-79982021D02*
X170246428Y-79982021D01*
X171353571Y-79589164D02*
X170996428Y-79589164D01*
X170996428Y-79589164D02*
X170960714Y-79946307D01*
X170960714Y-79946307D02*
X170996428Y-79910592D01*
X170996428Y-79910592D02*
X171067857Y-79874878D01*
X171067857Y-79874878D02*
X171246428Y-79874878D01*
X171246428Y-79874878D02*
X171317857Y-79910592D01*
X171317857Y-79910592D02*
X171353571Y-79946307D01*
X171353571Y-79946307D02*
X171389285Y-80017735D01*
X171389285Y-80017735D02*
X171389285Y-80196307D01*
X171389285Y-80196307D02*
X171353571Y-80267735D01*
X171353571Y-80267735D02*
X171317857Y-80303450D01*
X171317857Y-80303450D02*
X171246428Y-80339164D01*
X171246428Y-80339164D02*
X171067857Y-80339164D01*
X171067857Y-80339164D02*
X170996428Y-80303450D01*
X170996428Y-80303450D02*
X170960714Y-80267735D01*
X150454819Y-105461904D02*
X151264342Y-105461904D01*
X151264342Y-105461904D02*
X151359580Y-105414285D01*
X151359580Y-105414285D02*
X151407200Y-105366666D01*
X151407200Y-105366666D02*
X151454819Y-105271428D01*
X151454819Y-105271428D02*
X151454819Y-105080952D01*
X151454819Y-105080952D02*
X151407200Y-104985714D01*
X151407200Y-104985714D02*
X151359580Y-104938095D01*
X151359580Y-104938095D02*
X151264342Y-104890476D01*
X151264342Y-104890476D02*
X150454819Y-104890476D01*
X150788152Y-103985714D02*
X151454819Y-103985714D01*
X150407200Y-104223809D02*
X151121485Y-104461904D01*
X151121485Y-104461904D02*
X151121485Y-103842857D01*
X172267735Y-90282143D02*
X172303450Y-90317857D01*
X172303450Y-90317857D02*
X172339164Y-90425000D01*
X172339164Y-90425000D02*
X172339164Y-90496428D01*
X172339164Y-90496428D02*
X172303450Y-90603571D01*
X172303450Y-90603571D02*
X172232021Y-90675000D01*
X172232021Y-90675000D02*
X172160592Y-90710714D01*
X172160592Y-90710714D02*
X172017735Y-90746428D01*
X172017735Y-90746428D02*
X171910592Y-90746428D01*
X171910592Y-90746428D02*
X171767735Y-90710714D01*
X171767735Y-90710714D02*
X171696307Y-90675000D01*
X171696307Y-90675000D02*
X171624878Y-90603571D01*
X171624878Y-90603571D02*
X171589164Y-90496428D01*
X171589164Y-90496428D02*
X171589164Y-90425000D01*
X171589164Y-90425000D02*
X171624878Y-90317857D01*
X171624878Y-90317857D02*
X171660592Y-90282143D01*
X172339164Y-89567857D02*
X172339164Y-89996428D01*
X172339164Y-89782143D02*
X171589164Y-89782143D01*
X171589164Y-89782143D02*
X171696307Y-89853571D01*
X171696307Y-89853571D02*
X171767735Y-89925000D01*
X171767735Y-89925000D02*
X171803450Y-89996428D01*
X171589164Y-88925000D02*
X171589164Y-89067857D01*
X171589164Y-89067857D02*
X171624878Y-89139285D01*
X171624878Y-89139285D02*
X171660592Y-89175000D01*
X171660592Y-89175000D02*
X171767735Y-89246428D01*
X171767735Y-89246428D02*
X171910592Y-89282142D01*
X171910592Y-89282142D02*
X172196307Y-89282142D01*
X172196307Y-89282142D02*
X172267735Y-89246428D01*
X172267735Y-89246428D02*
X172303450Y-89210714D01*
X172303450Y-89210714D02*
X172339164Y-89139285D01*
X172339164Y-89139285D02*
X172339164Y-88996428D01*
X172339164Y-88996428D02*
X172303450Y-88925000D01*
X172303450Y-88925000D02*
X172267735Y-88889285D01*
X172267735Y-88889285D02*
X172196307Y-88853571D01*
X172196307Y-88853571D02*
X172017735Y-88853571D01*
X172017735Y-88853571D02*
X171946307Y-88889285D01*
X171946307Y-88889285D02*
X171910592Y-88925000D01*
X171910592Y-88925000D02*
X171874878Y-88996428D01*
X171874878Y-88996428D02*
X171874878Y-89139285D01*
X171874878Y-89139285D02*
X171910592Y-89210714D01*
X171910592Y-89210714D02*
X171946307Y-89246428D01*
X171946307Y-89246428D02*
X172017735Y-89282142D01*
X172300000Y-108003450D02*
X172407143Y-108039164D01*
X172407143Y-108039164D02*
X172585714Y-108039164D01*
X172585714Y-108039164D02*
X172657143Y-108003450D01*
X172657143Y-108003450D02*
X172692857Y-107967735D01*
X172692857Y-107967735D02*
X172728571Y-107896307D01*
X172728571Y-107896307D02*
X172728571Y-107824878D01*
X172728571Y-107824878D02*
X172692857Y-107753450D01*
X172692857Y-107753450D02*
X172657143Y-107717735D01*
X172657143Y-107717735D02*
X172585714Y-107682021D01*
X172585714Y-107682021D02*
X172442857Y-107646307D01*
X172442857Y-107646307D02*
X172371428Y-107610592D01*
X172371428Y-107610592D02*
X172335714Y-107574878D01*
X172335714Y-107574878D02*
X172300000Y-107503450D01*
X172300000Y-107503450D02*
X172300000Y-107432021D01*
X172300000Y-107432021D02*
X172335714Y-107360592D01*
X172335714Y-107360592D02*
X172371428Y-107324878D01*
X172371428Y-107324878D02*
X172442857Y-107289164D01*
X172442857Y-107289164D02*
X172621428Y-107289164D01*
X172621428Y-107289164D02*
X172728571Y-107324878D01*
X172978571Y-107289164D02*
X173157143Y-108039164D01*
X173157143Y-108039164D02*
X173300000Y-107503450D01*
X173300000Y-107503450D02*
X173442857Y-108039164D01*
X173442857Y-108039164D02*
X173621429Y-107289164D01*
X173871429Y-107360592D02*
X173907143Y-107324878D01*
X173907143Y-107324878D02*
X173978572Y-107289164D01*
X173978572Y-107289164D02*
X174157143Y-107289164D01*
X174157143Y-107289164D02*
X174228572Y-107324878D01*
X174228572Y-107324878D02*
X174264286Y-107360592D01*
X174264286Y-107360592D02*
X174300000Y-107432021D01*
X174300000Y-107432021D02*
X174300000Y-107503450D01*
X174300000Y-107503450D02*
X174264286Y-107610592D01*
X174264286Y-107610592D02*
X173835714Y-108039164D01*
X173835714Y-108039164D02*
X174300000Y-108039164D01*
X173924999Y-86517735D02*
X173889285Y-86553450D01*
X173889285Y-86553450D02*
X173782142Y-86589164D01*
X173782142Y-86589164D02*
X173710714Y-86589164D01*
X173710714Y-86589164D02*
X173603571Y-86553450D01*
X173603571Y-86553450D02*
X173532142Y-86482021D01*
X173532142Y-86482021D02*
X173496428Y-86410592D01*
X173496428Y-86410592D02*
X173460714Y-86267735D01*
X173460714Y-86267735D02*
X173460714Y-86160592D01*
X173460714Y-86160592D02*
X173496428Y-86017735D01*
X173496428Y-86017735D02*
X173532142Y-85946307D01*
X173532142Y-85946307D02*
X173603571Y-85874878D01*
X173603571Y-85874878D02*
X173710714Y-85839164D01*
X173710714Y-85839164D02*
X173782142Y-85839164D01*
X173782142Y-85839164D02*
X173889285Y-85874878D01*
X173889285Y-85874878D02*
X173924999Y-85910592D01*
X174174999Y-85839164D02*
X174639285Y-85839164D01*
X174639285Y-85839164D02*
X174389285Y-86124878D01*
X174389285Y-86124878D02*
X174496428Y-86124878D01*
X174496428Y-86124878D02*
X174567857Y-86160592D01*
X174567857Y-86160592D02*
X174603571Y-86196307D01*
X174603571Y-86196307D02*
X174639285Y-86267735D01*
X174639285Y-86267735D02*
X174639285Y-86446307D01*
X174639285Y-86446307D02*
X174603571Y-86517735D01*
X174603571Y-86517735D02*
X174567857Y-86553450D01*
X174567857Y-86553450D02*
X174496428Y-86589164D01*
X174496428Y-86589164D02*
X174282142Y-86589164D01*
X174282142Y-86589164D02*
X174210714Y-86553450D01*
X174210714Y-86553450D02*
X174174999Y-86517735D01*
%TO.C,D1*%
X180010000Y-94610000D02*
X180010000Y-96390000D01*
X183090000Y-94610000D02*
X183090000Y-96390000D01*
D13*
X183370000Y-94200000D02*
G75*
G02*
X183070000Y-94200000I-150000J0D01*
G01*
X183070000Y-94200000D02*
G75*
G02*
X183370000Y-94200000I150000J0D01*
G01*
%TO.C,C2*%
D14*
X164865000Y-92134420D02*
X164865000Y-92415580D01*
X165885000Y-92134420D02*
X165885000Y-92415580D01*
%TO.C,U2*%
D11*
X174980000Y-87230000D02*
X174980000Y-90390000D01*
X177130000Y-90390000D02*
X177130000Y-87230000D01*
D15*
X175390000Y-90840000D02*
G75*
G02*
X175190000Y-90840000I-100000J0D01*
G01*
X175190000Y-90840000D02*
G75*
G02*
X175390000Y-90840000I100000J0D01*
G01*
%TO.C,C7*%
D14*
X177890000Y-92707836D02*
X177890000Y-92492164D01*
X178610000Y-92707836D02*
X178610000Y-92492164D01*
%TO.C,SW1*%
X176950984Y-106000000D02*
X176950984Y-106120000D01*
X176950984Y-107130000D02*
X176950984Y-108270000D01*
X176950984Y-109280000D02*
X176950984Y-109400000D01*
X176950984Y-109400000D02*
X181350984Y-109400000D01*
X181350984Y-106000000D02*
X176950984Y-106000000D01*
X181350984Y-106120000D02*
X181350984Y-106000000D01*
X181350984Y-108270000D02*
X181350984Y-107130000D01*
X181350984Y-109400000D02*
X181350984Y-109280000D01*
%TO.C,C12*%
X178890000Y-92707836D02*
X178890000Y-92492164D01*
X179610000Y-92707836D02*
X179610000Y-92492164D01*
%TO.C,R7*%
X182220000Y-107046359D02*
X182220000Y-107353641D01*
X182980000Y-107046359D02*
X182980000Y-107353641D01*
%TO.C,J1*%
X148200000Y-76700000D02*
X148200000Y-78050000D01*
X148200000Y-86400000D02*
X148200000Y-87700000D01*
X155100000Y-87700000D02*
X148200000Y-87700000D01*
X155100000Y-87700000D02*
X156100000Y-86700000D01*
X156100000Y-76700000D02*
X148200000Y-76700000D01*
X156100000Y-76700000D02*
X156100000Y-78050000D01*
X156100000Y-85950000D02*
X156100000Y-86700000D01*
D15*
X148000000Y-77950000D02*
G75*
G02*
X147800000Y-77950000I-100000J0D01*
G01*
X147800000Y-77950000D02*
G75*
G02*
X148000000Y-77950000I100000J0D01*
G01*
%TO.C,C9*%
D14*
X179890000Y-92492164D02*
X179890000Y-92707836D01*
X180610000Y-92492164D02*
X180610000Y-92707836D01*
%TO.C,C8*%
X177540000Y-99092164D02*
X177540000Y-99307836D01*
X178260000Y-99092164D02*
X178260000Y-99307836D01*
%TO.C,R2*%
X183153641Y-88870000D02*
X182846359Y-88870000D01*
X183153641Y-89630000D02*
X182846359Y-89630000D01*
%TO.C,C6*%
X165357836Y-97390000D02*
X165142164Y-97390000D01*
X165357836Y-98110000D02*
X165142164Y-98110000D01*
%TO.C,C18*%
X169740000Y-89707836D02*
X169740000Y-89492164D01*
X170460000Y-89707836D02*
X170460000Y-89492164D01*
%TO.C,R18*%
X164870000Y-84853641D02*
X164870000Y-84546359D01*
X165630000Y-84853641D02*
X165630000Y-84546359D01*
%TO.C,U3*%
X175090000Y-82690000D02*
X176910000Y-82690000D01*
X175090000Y-82740000D02*
X175090000Y-82690000D01*
X175090000Y-85810000D02*
X175090000Y-85760000D01*
X176910000Y-82690000D02*
X176910000Y-82740000D01*
X176910000Y-83860000D02*
X176910000Y-84640000D01*
X176910000Y-85760000D02*
X176910000Y-85810000D01*
X176910000Y-85810000D02*
X175090000Y-85810000D01*
X174550000Y-82740000D02*
X174310000Y-82410000D01*
X174790000Y-82410000D01*
X174550000Y-82740000D01*
G36*
X174550000Y-82740000D02*
G01*
X174310000Y-82410000D01*
X174790000Y-82410000D01*
X174550000Y-82740000D01*
G37*
%TO.C,R1*%
X183153641Y-87820000D02*
X182846359Y-87820000D01*
X183153641Y-88580000D02*
X182846359Y-88580000D01*
%TO.C,C15*%
X165357836Y-95390000D02*
X165142164Y-95390000D01*
X165357836Y-96110000D02*
X165142164Y-96110000D01*
%TO.C,R17*%
X165870000Y-84853641D02*
X165870000Y-84546359D01*
X166630000Y-84853641D02*
X166630000Y-84546359D01*
%TO.C,R8*%
X173920000Y-89753641D02*
X173920000Y-89446359D01*
X174680000Y-89753641D02*
X174680000Y-89446359D01*
%TO.C,L1*%
D12*
X168550000Y-82250000D02*
X172950000Y-82250000D01*
X172950000Y-86250000D01*
X168550000Y-86250000D01*
X168550000Y-82250000D01*
%TO.C,C11*%
D14*
X176540000Y-99092164D02*
X176540000Y-99307836D01*
X177260000Y-99092164D02*
X177260000Y-99307836D01*
%TO.C,U1*%
D10*
X167600000Y-91500000D02*
X168170000Y-91500000D01*
X167600000Y-91600000D02*
X167600000Y-91500000D01*
X167600000Y-92070000D02*
X167600000Y-91600000D01*
X167600000Y-98500000D02*
X167600000Y-97930000D01*
X168170000Y-98500000D02*
X167600000Y-98500000D01*
X174030000Y-91500000D02*
X174600000Y-91500000D01*
X174030000Y-91500000D02*
X174600000Y-92070000D01*
X174500000Y-91760000D02*
X174240000Y-91500000D01*
X174600000Y-91500000D02*
X174600000Y-92070000D01*
X174600000Y-91760000D02*
X174500000Y-91760000D01*
X174600000Y-97930000D02*
X174600000Y-98500000D01*
X174600000Y-98500000D02*
X174030000Y-98500000D01*
X174930000Y-91000000D02*
G75*
G02*
X174670000Y-91000000I-130000J0D01*
G01*
X174670000Y-91000000D02*
G75*
G02*
X174930000Y-91000000I130000J0D01*
G01*
%TO.C,R19*%
D14*
X166120000Y-102846359D02*
X166120000Y-103153641D01*
X166880000Y-102846359D02*
X166880000Y-103153641D01*
%TO.C,C4*%
X178490000Y-84390580D02*
X178490000Y-84109420D01*
X179510000Y-84390580D02*
X179510000Y-84109420D01*
%TO.C,C14*%
X169740000Y-100192164D02*
X169740000Y-100407836D01*
X170460000Y-100192164D02*
X170460000Y-100407836D01*
%TO.C,R4*%
X178753641Y-95920000D02*
X178446359Y-95920000D01*
X178753641Y-96680000D02*
X178446359Y-96680000D01*
%TO.C,R3*%
X178753641Y-96920000D02*
X178446359Y-96920000D01*
X178753641Y-97680000D02*
X178446359Y-97680000D01*
%TO.C,R20*%
X167120000Y-102846359D02*
X167120000Y-103153641D01*
X167880000Y-102846359D02*
X167880000Y-103153641D01*
%TO.C,C5*%
X170605036Y-86590000D02*
X170886196Y-86590000D01*
X170605036Y-87610000D02*
X170886196Y-87610000D01*
%TO.C,F1*%
D11*
X179880000Y-83790000D02*
X179880000Y-82520000D01*
X179880000Y-84810000D02*
X179880000Y-86080000D01*
X181660000Y-82140000D02*
X180140000Y-82140000D01*
X181660000Y-86460000D02*
X180140000Y-86460000D01*
X181920000Y-82520000D02*
X181920000Y-83760000D01*
X181920000Y-86080000D02*
X181920000Y-84810000D01*
X180900000Y-84300000D02*
G75*
G02*
X180520000Y-84300000I-190000J0D01*
G01*
X180900000Y-84300000D02*
G75*
G02*
X181280000Y-84300000I190000J0D01*
G01*
%TO.C,X1*%
X164470000Y-87320000D02*
X168530000Y-87320000D01*
X164470000Y-90680000D02*
X164470000Y-87320000D01*
X168530000Y-87320000D02*
X168530000Y-90680000D01*
X168530000Y-90680000D02*
X164470000Y-90680000D01*
X168760000Y-87090000D02*
X166900000Y-87090000D01*
X168760000Y-88750000D02*
X168760000Y-87090000D01*
%TO.C,C10*%
D14*
X175140000Y-99092164D02*
X175140000Y-99307836D01*
X175860000Y-99092164D02*
X175860000Y-99307836D01*
%TO.C,USB1*%
D10*
X188040000Y-90500000D02*
X186130000Y-90500000D01*
X188040000Y-99500000D02*
X186130000Y-99500000D01*
X191650000Y-90500000D02*
X190060000Y-90500000D01*
X191650000Y-99500000D02*
X190060000Y-99500000D01*
X191650000Y-99500000D02*
X191650000Y-90500000D01*
%TO.C,R6*%
D14*
X174237258Y-80727500D02*
X173762742Y-80727500D01*
X174237258Y-81772500D02*
X173762742Y-81772500D01*
%TO.C,C13*%
X173340000Y-100192164D02*
X173340000Y-100407836D01*
X174060000Y-100192164D02*
X174060000Y-100407836D01*
%TO.C,C1*%
X166859420Y-85890000D02*
X167140580Y-85890000D01*
X166859420Y-86910000D02*
X167140580Y-86910000D01*
%TO.C,R5*%
X170987258Y-80727500D02*
X170512742Y-80727500D01*
X170987258Y-81772500D02*
X170512742Y-81772500D01*
%TO.C,U4*%
D10*
X148217500Y-95395000D02*
X149937500Y-95415000D01*
X148227500Y-95395000D02*
X148227500Y-113595000D01*
X149877500Y-113605000D02*
X148707500Y-113605000D01*
X152307500Y-95405000D02*
X160717500Y-95395000D01*
X160717500Y-95395000D02*
X160717500Y-96685000D01*
X160717500Y-111905000D02*
X160717500Y-113595000D01*
X160717500Y-113595000D02*
X152337500Y-113595000D01*
D16*
X148257500Y-95395000D02*
G75*
G02*
X148197500Y-95395000I-30000J0D01*
G01*
X148197500Y-95395000D02*
G75*
G02*
X148257500Y-95395000I30000J0D01*
G01*
%TO.C,C16*%
D14*
X172740000Y-89707836D02*
X172740000Y-89492164D01*
X173460000Y-89707836D02*
X173460000Y-89492164D01*
%TO.C,SW2*%
X171100000Y-106000000D02*
X171100000Y-106120000D01*
X171100000Y-107130000D02*
X171100000Y-108270000D01*
X171100000Y-109280000D02*
X171100000Y-109400000D01*
X171100000Y-109400000D02*
X175500000Y-109400000D01*
X175500000Y-106000000D02*
X171100000Y-106000000D01*
X175500000Y-106120000D02*
X175500000Y-106000000D01*
X175500000Y-108270000D02*
X175500000Y-107130000D01*
X175500000Y-109400000D02*
X175500000Y-109280000D01*
%TO.C,C3*%
X173540000Y-87807836D02*
X173540000Y-87592164D01*
X174260000Y-87807836D02*
X174260000Y-87592164D01*
%TD*%
%LPC*%
D17*
%TO.C,D1*%
X182500000Y-94350000D03*
X181550000Y-94350000D03*
X180600000Y-94350000D03*
X180600000Y-96650000D03*
X181550000Y-96650000D03*
X182500000Y-96650000D03*
%TD*%
D18*
%TO.C,C2*%
X165375000Y-91500000D03*
X165375000Y-93050000D03*
%TD*%
D19*
%TO.C,U2*%
X175300000Y-90320000D03*
X175800000Y-90320000D03*
X176300000Y-90320000D03*
X176800000Y-90320000D03*
X176800000Y-87300000D03*
X176300000Y-87300000D03*
X175800000Y-87300000D03*
X175300000Y-87300000D03*
D20*
X176050000Y-88810000D03*
%TD*%
D21*
%TO.C,C7*%
X178250000Y-93080000D03*
X178250000Y-92120000D03*
%TD*%
D22*
%TO.C,SW1*%
X177075984Y-106625000D03*
X181225984Y-106625000D03*
X177075984Y-108775000D03*
X181225984Y-108775000D03*
%TD*%
D21*
%TO.C,C12*%
X179250000Y-93080000D03*
X179250000Y-92120000D03*
%TD*%
D23*
%TO.C,R7*%
X182600000Y-106690000D03*
X182600000Y-107710000D03*
%TD*%
D24*
%TO.C,J1*%
X152200000Y-77400000D03*
D25*
X152200000Y-87000000D03*
D26*
X148100000Y-78800000D03*
X148100000Y-79600000D03*
X148100000Y-80400000D03*
X148100000Y-81200000D03*
X148100000Y-82000000D03*
X148100000Y-82800000D03*
X148100000Y-83600000D03*
X148100000Y-84400000D03*
X148100000Y-85200000D03*
X148100000Y-86000000D03*
X156300000Y-85600000D03*
X156300000Y-84800000D03*
X156300000Y-84000000D03*
X156300000Y-83200000D03*
X156300000Y-82400000D03*
X156300000Y-81600000D03*
X156300000Y-80800000D03*
X156300000Y-80000000D03*
X156300000Y-79200000D03*
X156300000Y-78400000D03*
%TD*%
D27*
%TO.C,C9*%
X180250000Y-92120000D03*
X180250000Y-93080000D03*
%TD*%
%TO.C,C8*%
X177900000Y-98720000D03*
X177900000Y-99680000D03*
%TD*%
D28*
%TO.C,R2*%
X183510000Y-89250000D03*
X182490000Y-89250000D03*
%TD*%
D29*
%TO.C,H2*%
X187500000Y-111500000D03*
%TD*%
D30*
%TO.C,C6*%
X165730000Y-97750000D03*
X164770000Y-97750000D03*
%TD*%
D21*
%TO.C,C18*%
X170100000Y-90080000D03*
X170100000Y-89120000D03*
%TD*%
D31*
%TO.C,R18*%
X165250000Y-85210000D03*
X165250000Y-84190000D03*
%TD*%
D32*
%TO.C,U3*%
X174862500Y-83300000D03*
X174862500Y-84250000D03*
X174862500Y-85200000D03*
X177137500Y-85200000D03*
X177137500Y-83300000D03*
%TD*%
D28*
%TO.C,R1*%
X183510000Y-88200000D03*
X182490000Y-88200000D03*
%TD*%
D30*
%TO.C,C15*%
X165730000Y-95750000D03*
X164770000Y-95750000D03*
%TD*%
D31*
%TO.C,R17*%
X166250000Y-85210000D03*
X166250000Y-84190000D03*
%TD*%
%TO.C,R8*%
X174300000Y-90110000D03*
X174300000Y-89090000D03*
%TD*%
D33*
%TO.C,L1*%
X172250000Y-84250000D03*
X169250000Y-84250000D03*
%TD*%
D27*
%TO.C,C11*%
X176900000Y-98720000D03*
X176900000Y-99680000D03*
%TD*%
D34*
%TO.C,U1*%
X173700000Y-91450000D03*
X173300000Y-91450000D03*
X172900000Y-91450000D03*
X172500000Y-91450000D03*
X172100000Y-91450000D03*
X171700000Y-91450000D03*
X171300000Y-91450000D03*
X170900000Y-91450000D03*
X170500000Y-91450000D03*
X170100000Y-91450000D03*
X169700000Y-91450000D03*
X169300000Y-91450000D03*
X168900000Y-91450000D03*
X168500000Y-91450000D03*
D35*
X167550000Y-92400000D03*
X167550000Y-92800000D03*
X167550000Y-93200000D03*
X167550000Y-93600000D03*
X167550000Y-94000000D03*
X167550000Y-94400000D03*
X167550000Y-94800000D03*
X167550000Y-95200000D03*
X167550000Y-95600000D03*
X167550000Y-96000000D03*
X167550000Y-96400000D03*
X167550000Y-96800000D03*
X167550000Y-97200000D03*
X167550000Y-97600000D03*
D34*
X168500000Y-98550000D03*
X168900000Y-98550000D03*
X169300000Y-98550000D03*
X169700000Y-98550000D03*
X170100000Y-98550000D03*
X170500000Y-98550000D03*
X170900000Y-98550000D03*
X171300000Y-98550000D03*
X171700000Y-98550000D03*
X172100000Y-98550000D03*
X172500000Y-98550000D03*
X172900000Y-98550000D03*
X173300000Y-98550000D03*
X173700000Y-98550000D03*
D35*
X174650000Y-97600000D03*
X174650000Y-97200000D03*
X174650000Y-96800000D03*
X174650000Y-96400000D03*
X174650000Y-96000000D03*
X174650000Y-95600000D03*
X174650000Y-95200000D03*
X174650000Y-94800000D03*
X174650000Y-94400000D03*
X174650000Y-94000000D03*
X174650000Y-93600000D03*
X174650000Y-93200000D03*
X174650000Y-92800000D03*
X174650000Y-92400000D03*
D36*
X171100000Y-95000000D03*
%TD*%
D23*
%TO.C,R19*%
X166500000Y-102490000D03*
X166500000Y-103510000D03*
%TD*%
D37*
%TO.C,C4*%
X179000000Y-85025000D03*
X179000000Y-83475000D03*
%TD*%
D27*
%TO.C,C14*%
X170100000Y-99820000D03*
X170100000Y-100780000D03*
%TD*%
D28*
%TO.C,R4*%
X179110000Y-96300000D03*
X178090000Y-96300000D03*
%TD*%
D29*
%TO.C,H1*%
X166109084Y-78445457D03*
%TD*%
D28*
%TO.C,R3*%
X179110000Y-97300000D03*
X178090000Y-97300000D03*
%TD*%
D23*
%TO.C,R20*%
X167500000Y-102490000D03*
X167500000Y-103510000D03*
%TD*%
D38*
%TO.C,C5*%
X169970616Y-87100000D03*
X171520616Y-87100000D03*
%TD*%
D39*
%TO.C,F1*%
X180900000Y-83160000D03*
X180900000Y-85440000D03*
%TD*%
D29*
%TO.C,H1*%
X165890915Y-111463638D03*
%TD*%
D40*
%TO.C,X1*%
X167600000Y-88150000D03*
X165400000Y-88150000D03*
X165400000Y-89850000D03*
X167600000Y-89850000D03*
%TD*%
D29*
%TO.C,H1*%
X187500000Y-78500000D03*
%TD*%
D27*
%TO.C,C10*%
X175500000Y-98720000D03*
X175500000Y-99680000D03*
%TD*%
D41*
%TO.C,USB1*%
X185380000Y-97890000D03*
X185380000Y-92110000D03*
D42*
X184880000Y-99320000D03*
X184880000Y-90680000D03*
D43*
X189060000Y-90680000D03*
X189060000Y-99320000D03*
D44*
X184300000Y-98200000D03*
X184300000Y-97400000D03*
D45*
X184300000Y-96250000D03*
X184300000Y-95250000D03*
X184300000Y-94750000D03*
X184300000Y-93750000D03*
D44*
X184300000Y-91800000D03*
X184300000Y-92600000D03*
D45*
X184300000Y-93250000D03*
X184300000Y-94250000D03*
X184300000Y-95750000D03*
X184300000Y-96750000D03*
%TD*%
D46*
%TO.C,R6*%
X174825000Y-81250000D03*
X173175000Y-81250000D03*
%TD*%
D27*
%TO.C,C13*%
X173700000Y-99820000D03*
X173700000Y-100780000D03*
%TD*%
D38*
%TO.C,C1*%
X166225000Y-86400000D03*
X167775000Y-86400000D03*
%TD*%
D46*
%TO.C,R5*%
X171575000Y-81250000D03*
X169925000Y-81250000D03*
%TD*%
D47*
%TO.C,U4*%
X151117500Y-96095000D03*
X151117500Y-112895000D03*
D48*
X158487500Y-97495000D03*
X158487500Y-98295000D03*
X158487500Y-99095000D03*
X158487500Y-99895000D03*
X158487500Y-100695000D03*
X158487500Y-101495000D03*
X158487500Y-102295000D03*
X158487500Y-103095000D03*
X158487500Y-103895000D03*
X158487500Y-104695000D03*
X158487500Y-105495000D03*
X158487500Y-106295000D03*
X158487500Y-107095000D03*
X158487500Y-107895000D03*
X158487500Y-108695000D03*
X158487500Y-109495000D03*
X158487500Y-110295000D03*
X158487500Y-111095000D03*
X158487500Y-111895000D03*
X161007500Y-111495000D03*
X161007500Y-110695000D03*
X161007500Y-109895000D03*
X161007500Y-109095000D03*
X161007500Y-108295000D03*
X161007500Y-107495000D03*
X161007500Y-106695000D03*
X161007500Y-105895000D03*
X161007500Y-105095000D03*
X161007500Y-104295000D03*
X161007500Y-103495000D03*
X161007500Y-102695000D03*
X161007500Y-101895000D03*
X161007500Y-101095000D03*
X161007500Y-100295000D03*
X161007500Y-99495000D03*
X161007500Y-98695000D03*
X161007500Y-97895000D03*
X161007500Y-97095000D03*
%TD*%
D21*
%TO.C,C16*%
X173100000Y-90080000D03*
X173100000Y-89120000D03*
%TD*%
D22*
%TO.C,SW2*%
X171225000Y-106625000D03*
X175375000Y-106625000D03*
X171225000Y-108775000D03*
X175375000Y-108775000D03*
%TD*%
D21*
%TO.C,C3*%
X173900000Y-88180000D03*
X173900000Y-87220000D03*
%TD*%
%LPD*%
M02*
