%TF.GenerationSoftware,KiCad,Pcbnew,10.0.3*%
%TF.CreationDate,2026-06-06T08:41:36+09:00*%
%TF.ProjectId,hid-sfp-flasher,6869642d-7366-4702-9d66-6c6173686572,rev?*%
%TF.SameCoordinates,Original*%
%TF.FileFunction,Copper,L2,Inr*%
%TF.FilePolarity,Positive*%
%FSLAX46Y46*%
G04 Gerber Fmt 4.6, Leading zero omitted, Abs format (unit mm)*
G04 Created by KiCad (PCBNEW 10.0.3) date 2026-06-06 08:41:36*
%MOMM*%
%LPD*%
G01*
G04 APERTURE LIST*
%TA.AperFunction,ComponentPad*%
%ADD10C,0.700000*%
%TD*%
%TA.AperFunction,ComponentPad*%
%ADD11O,2.100000X1.000000*%
%TD*%
%TA.AperFunction,ComponentPad*%
%ADD12O,1.600000X1.000000*%
%TD*%
%TA.AperFunction,ViaPad*%
%ADD13C,0.600000*%
%TD*%
%TA.AperFunction,Conductor*%
%ADD14C,0.200000*%
%TD*%
G04 APERTURE END LIST*
D10*
%TO.N,*%
%TO.C,USB1*%
X185380000Y-97890000D03*
X185380000Y-92110000D03*
D11*
%TO.N,GND*%
X184880000Y-99320000D03*
X184880000Y-90680000D03*
D12*
X189060000Y-90680000D03*
X189060000Y-99320000D03*
%TD*%
D13*
%TO.N,GND*%
X169215136Y-95564682D03*
X171100000Y-93100000D03*
X176100000Y-89400000D03*
X173100000Y-88300000D03*
X173500000Y-84250000D03*
X171100000Y-96900000D03*
X173100000Y-95000000D03*
%TO.N,VBUS*%
X182100000Y-81700000D03*
X183100000Y-92600000D03*
X183100000Y-92600000D03*
X182700000Y-97800000D03*
%TO.N,Net-(U1-QSPI_SS)*%
X174600000Y-90900000D03*
X179200000Y-108800000D03*
%TO.N,+3V3*%
X165000000Y-86100000D03*
X167850000Y-84250000D03*
X171150000Y-89750000D03*
X172700000Y-87300000D03*
X174481231Y-99181231D03*
X156600000Y-104100000D03*
X176199999Y-99181231D03*
X165560000Y-96560000D03*
X169200000Y-99900000D03*
X179300000Y-94000000D03*
X154300000Y-83300000D03*
X167000000Y-101555000D03*
%TO.N,Net-(U1-VREG_VOUT)*%
X166707107Y-98492893D03*
X178700000Y-98600000D03*
X178100000Y-94250002D03*
%TO.N,/I2C0_SDA*%
X166250000Y-83343817D03*
X169400000Y-92700000D03*
X152700000Y-81200000D03*
%TO.N,/I2C0_SCL*%
X168800000Y-93300000D03*
X152700000Y-82500000D03*
X165275735Y-83344265D03*
%TO.N,/SFP0_MODABS*%
X173100000Y-92800000D03*
X152900000Y-85600000D03*
%TO.N,/SFP0_RS0*%
X151800000Y-84200000D03*
X170300000Y-92700000D03*
%TO.N,/SFP0_RS1*%
X150500000Y-85200000D03*
X172200000Y-92800000D03*
%TO.N,Net-(U1-RUN)*%
X169000000Y-100900000D03*
X168900000Y-96300000D03*
%TO.N,/SFP1_MODABS*%
X162400000Y-105895000D03*
X169300000Y-97100000D03*
%TO.N,/I2C1_SDA*%
X165767624Y-105300000D03*
X172484864Y-101635318D03*
X156500000Y-107000000D03*
%TO.N,/I2C1_SCL*%
X172800000Y-100900000D03*
X155500000Y-105500000D03*
X166500000Y-106100000D03*
%TD*%
%TO.N,Net-(U1-QSPI_SS)*%
D14*
X175400000Y-91700000D02*
X174600000Y-90900000D01*
X175400000Y-103400000D02*
X175400000Y-91700000D01*
X179200000Y-108800000D02*
X179200000Y-107200000D01*
X179200000Y-107200000D02*
X175400000Y-103400000D01*
%TO.N,/I2C0_SDA*%
X166250000Y-84450000D02*
X166400000Y-84600000D01*
X166400000Y-89700000D02*
X169400000Y-92700000D01*
X166250000Y-83250000D02*
X166250000Y-84450000D01*
X157796908Y-82696908D02*
X157000000Y-81900000D01*
X165603092Y-82696908D02*
X157796908Y-82696908D01*
X166250000Y-83343817D02*
X165603092Y-82696908D01*
X166400000Y-84600000D02*
X166400000Y-89700000D01*
X153400000Y-81900000D02*
X152700000Y-81200000D01*
X157000000Y-81900000D02*
X153400000Y-81900000D01*
%TO.N,/I2C0_SCL*%
X165275735Y-84275735D02*
X166000000Y-85000000D01*
X153700000Y-82500000D02*
X152700000Y-82500000D01*
X153700000Y-82500000D02*
X153300000Y-82500000D01*
X165275735Y-83224265D02*
X165275735Y-84275735D01*
X168800000Y-92665686D02*
X168800000Y-93300000D01*
X166000000Y-85000000D02*
X166000000Y-89865685D01*
X157444265Y-83344265D02*
X156600000Y-82500000D01*
X166000000Y-89865685D02*
X168800000Y-92665686D01*
X165275735Y-83344265D02*
X157444265Y-83344265D01*
X156600000Y-82500000D02*
X153700000Y-82500000D01*
%TO.N,/SFP0_MODABS*%
X173100000Y-92800000D02*
X173100000Y-93065686D01*
X173100000Y-93065686D02*
X171465686Y-94700000D01*
X167200000Y-94700000D02*
X160200000Y-87700000D01*
X171465686Y-94700000D02*
X167200000Y-94700000D01*
X155900000Y-87700000D02*
X153800000Y-85600000D01*
X160200000Y-87700000D02*
X155900000Y-87700000D01*
X153800000Y-85600000D02*
X152900000Y-85600000D01*
%TO.N,/SFP0_RS0*%
X170300000Y-93600000D02*
X170300000Y-92700000D01*
X170000000Y-93900000D02*
X170300000Y-93600000D01*
X153200000Y-84200000D02*
X156200000Y-87200000D01*
X151800000Y-84200000D02*
X153200000Y-84200000D01*
X167100000Y-93900000D02*
X170000000Y-93900000D01*
X156200000Y-87200000D02*
X160400000Y-87200000D01*
X160400000Y-87200000D02*
X167100000Y-93900000D01*
%TO.N,/SFP0_RS1*%
X165918778Y-82164066D02*
X166850000Y-83095288D01*
X166850000Y-89584314D02*
X167932843Y-90667157D01*
X156800000Y-80400000D02*
X158564066Y-82164066D01*
X151900000Y-80400000D02*
X156800000Y-80400000D01*
X150500000Y-85200000D02*
X150500000Y-81800000D01*
X150500000Y-81800000D02*
X151900000Y-80400000D01*
X170067157Y-90667157D02*
X167932843Y-90667157D01*
X158564066Y-82164066D02*
X165918778Y-82164066D01*
X166850000Y-83095288D02*
X166850000Y-89584314D01*
X172200000Y-92800000D02*
X170067157Y-90667157D01*
%TO.N,Net-(U1-RUN)*%
X168800000Y-96300000D02*
X168900000Y-96300000D01*
X169000000Y-100900000D02*
X168400000Y-100300000D01*
X168400000Y-96700000D02*
X168800000Y-96300000D01*
X168400000Y-100300000D02*
X168400000Y-96700000D01*
%TO.N,/SFP1_MODABS*%
X164105000Y-105895000D02*
X165500000Y-104500000D01*
X169800000Y-103500000D02*
X169800000Y-97600000D01*
X169800000Y-97600000D02*
X169300000Y-97100000D01*
X165500000Y-104500000D02*
X168800000Y-104500000D01*
X162400000Y-105895000D02*
X164105000Y-105895000D01*
X168800000Y-104500000D02*
X169800000Y-103500000D01*
%TO.N,/I2C1_SDA*%
X172500000Y-103334314D02*
X170334314Y-105500000D01*
X165767624Y-105300000D02*
X164067624Y-107000000D01*
X164067624Y-107000000D02*
X156500000Y-107000000D01*
X165967624Y-105500000D02*
X165767624Y-105300000D01*
X172500000Y-101650454D02*
X172500000Y-103334314D01*
X170334314Y-105500000D02*
X165967624Y-105500000D01*
X172484864Y-101635318D02*
X172500000Y-101650454D01*
%TO.N,/I2C1_SCL*%
X156000000Y-108000000D02*
X155500000Y-107500000D01*
X170499999Y-105900000D02*
X166700000Y-105900000D01*
X166500000Y-106100000D02*
X164600000Y-108000000D01*
X173100000Y-101200000D02*
X173100000Y-103299999D01*
X172800000Y-100900000D02*
X173100000Y-101200000D01*
X155500000Y-107500000D02*
X155500000Y-105500000D01*
X164600000Y-108000000D02*
X156000000Y-108000000D01*
X173100000Y-103299999D02*
X170499999Y-105900000D01*
X166700000Y-105900000D02*
X166500000Y-106100000D01*
%TD*%
M02*
