%TF.GenerationSoftware,KiCad,Pcbnew,10.0.3*%
%TF.CreationDate,2026-06-06T08:41:36+09:00*%
%TF.ProjectId,hid-sfp-flasher,6869642d-7366-4702-9d66-6c6173686572,rev?*%
%TF.SameCoordinates,Original*%
%TF.FileFunction,Copper,L4,Bot*%
%TF.FilePolarity,Positive*%
%FSLAX46Y46*%
G04 Gerber Fmt 4.6, Leading zero omitted, Abs format (unit mm)*
G04 Created by KiCad (PCBNEW 10.0.3) date 2026-06-06 08:41:36*
%MOMM*%
%LPD*%
G01*
G04 APERTURE LIST*
%TA.AperFunction,ComponentPad*%
%ADD10C,0.700000*%
%TD*%
%TA.AperFunction,ComponentPad*%
%ADD11O,2.100000X1.000000*%
%TD*%
%TA.AperFunction,ComponentPad*%
%ADD12O,1.600000X1.000000*%
%TD*%
%TA.AperFunction,ViaPad*%
%ADD13C,0.600000*%
%TD*%
%TA.AperFunction,Conductor*%
%ADD14C,0.200000*%
%TD*%
G04 APERTURE END LIST*
D10*
%TO.P,USB1,*%
%TO.N,*%
X185380000Y-97890000D03*
X185380000Y-92110000D03*
D11*
%TO.P,USB1,1,SHELL_1*%
%TO.N,GND*%
X184880000Y-99320000D03*
%TO.P,USB1,2,SHELL_2*%
X184880000Y-90680000D03*
D12*
%TO.P,USB1,3,SHELL_3*%
X189060000Y-90680000D03*
%TO.P,USB1,4,SHELL_4*%
X189060000Y-99320000D03*
%TD*%
D13*
%TO.N,GND*%
X169215136Y-95564682D03*
X171100000Y-93100000D03*
X176100000Y-89400000D03*
X173100000Y-88300000D03*
X173500000Y-84250000D03*
X171100000Y-96900000D03*
X173100000Y-95000000D03*
%TO.N,VBUS*%
X182100000Y-81700000D03*
X183100000Y-92600000D03*
X183100000Y-92600000D03*
X182700000Y-97800000D03*
%TO.N,Net-(U1-QSPI_SS)*%
X174600000Y-90900000D03*
X179200000Y-108800000D03*
%TO.N,+3V3*%
X165000000Y-86100000D03*
X167850000Y-84250000D03*
X171150000Y-89750000D03*
X172700000Y-87300000D03*
X174481231Y-99181231D03*
X156600000Y-104100000D03*
X176199999Y-99181231D03*
X165560000Y-96560000D03*
X169200000Y-99900000D03*
X179300000Y-94000000D03*
X154300000Y-83300000D03*
X167000000Y-101555000D03*
%TO.N,Net-(U1-VREG_VOUT)*%
X166707107Y-98492893D03*
X178700000Y-98600000D03*
X178100000Y-94250002D03*
%TO.N,/I2C0_SDA*%
X166250000Y-83343817D03*
X169400000Y-92700000D03*
X152700000Y-81200000D03*
%TO.N,/I2C0_SCL*%
X168800000Y-93300000D03*
X152700000Y-82500000D03*
X165275735Y-83344265D03*
%TO.N,/SFP0_MODABS*%
X173100000Y-92800000D03*
X152900000Y-85600000D03*
%TO.N,/SFP0_RS0*%
X151800000Y-84200000D03*
X170300000Y-92700000D03*
%TO.N,/SFP0_RS1*%
X150500000Y-85200000D03*
X172200000Y-92800000D03*
%TO.N,Net-(U1-RUN)*%
X169000000Y-100900000D03*
X168900000Y-96300000D03*
%TO.N,/SFP1_MODABS*%
X162400000Y-105895000D03*
X169300000Y-97100000D03*
%TO.N,/I2C1_SDA*%
X165767624Y-105300000D03*
X172484864Y-101635318D03*
X156500000Y-107000000D03*
%TO.N,/I2C1_SCL*%
X172800000Y-100900000D03*
X155500000Y-105500000D03*
X166500000Y-106100000D03*
%TD*%
%TO.N,Net-(U1-VREG_VOUT)*%
D14*
X166707107Y-98492893D02*
X166714214Y-98500000D01*
%TD*%
%TA.AperFunction,Conductor*%
%TO.N,GND*%
G36*
X190388052Y-75519407D02*
G01*
X190424016Y-75568907D01*
X190428860Y-75599403D01*
X190438959Y-86159577D01*
X190465943Y-114377845D01*
X190447091Y-114436054D01*
X190397626Y-114472065D01*
X190367047Y-114476940D01*
X168975069Y-114499500D01*
X146600646Y-114499500D01*
X146542455Y-114480593D01*
X146506491Y-114431093D01*
X146501646Y-114400560D01*
X146501346Y-113905130D01*
X146500673Y-112791532D01*
X150067000Y-112791532D01*
X150067000Y-112998467D01*
X150107369Y-113201418D01*
X150186558Y-113392597D01*
X150186559Y-113392598D01*
X150301523Y-113564655D01*
X150447845Y-113710977D01*
X150619902Y-113825941D01*
X150811080Y-113905130D01*
X151014035Y-113945500D01*
X151014036Y-113945500D01*
X151220964Y-113945500D01*
X151220965Y-113945500D01*
X151423920Y-113905130D01*
X151615098Y-113825941D01*
X151787155Y-113710977D01*
X151933477Y-113564655D01*
X152048441Y-113392598D01*
X152127630Y-113201420D01*
X152168000Y-112998465D01*
X152168000Y-112791535D01*
X152127630Y-112588580D01*
X152048441Y-112397402D01*
X151933477Y-112225345D01*
X151787155Y-112079023D01*
X151787151Y-112079020D01*
X151615097Y-111964058D01*
X151423918Y-111884869D01*
X151220967Y-111844500D01*
X151220965Y-111844500D01*
X151014035Y-111844500D01*
X151014032Y-111844500D01*
X150811081Y-111884869D01*
X150619902Y-111964058D01*
X150447848Y-112079020D01*
X150301520Y-112225348D01*
X150186558Y-112397402D01*
X150107369Y-112588581D01*
X150067000Y-112791532D01*
X146500673Y-112791532D01*
X146500500Y-112504876D01*
X146500500Y-111342348D01*
X164040415Y-111342348D01*
X164040415Y-111584927D01*
X164072076Y-111825419D01*
X164072076Y-111825424D01*
X164134859Y-112059730D01*
X164134863Y-112059743D01*
X164227687Y-112283842D01*
X164227689Y-112283846D01*
X164227691Y-112283850D01*
X164348979Y-112493927D01*
X164348981Y-112493930D01*
X164496644Y-112686369D01*
X164496646Y-112686371D01*
X164496650Y-112686376D01*
X164668177Y-112857903D01*
X164668181Y-112857906D01*
X164668183Y-112857908D01*
X164715565Y-112894265D01*
X164860626Y-113005574D01*
X165070703Y-113126862D01*
X165294815Y-113219692D01*
X165529126Y-113282476D01*
X165769627Y-113314138D01*
X165769628Y-113314138D01*
X166012202Y-113314138D01*
X166012203Y-113314138D01*
X166252704Y-113282476D01*
X166487015Y-113219692D01*
X166711127Y-113126862D01*
X166921204Y-113005574D01*
X167113653Y-112857903D01*
X167285180Y-112686376D01*
X167432851Y-112493927D01*
X167554139Y-112283850D01*
X167646969Y-112059738D01*
X167709753Y-111825427D01*
X167741415Y-111584926D01*
X167741415Y-111378710D01*
X185649500Y-111378710D01*
X185649500Y-111621289D01*
X185681161Y-111861781D01*
X185681161Y-111861786D01*
X185708565Y-111964058D01*
X185739369Y-112079020D01*
X185743944Y-112096092D01*
X185743948Y-112096105D01*
X185836772Y-112320204D01*
X185836774Y-112320208D01*
X185836776Y-112320212D01*
X185937072Y-112493930D01*
X185958066Y-112530292D01*
X186105729Y-112722731D01*
X186105731Y-112722733D01*
X186105735Y-112722738D01*
X186277262Y-112894265D01*
X186277266Y-112894268D01*
X186277268Y-112894270D01*
X186413056Y-112998463D01*
X186469711Y-113041936D01*
X186679788Y-113163224D01*
X186903900Y-113256054D01*
X187138211Y-113318838D01*
X187378712Y-113350500D01*
X187378713Y-113350500D01*
X187621287Y-113350500D01*
X187621288Y-113350500D01*
X187861789Y-113318838D01*
X188096100Y-113256054D01*
X188320212Y-113163224D01*
X188530289Y-113041936D01*
X188722738Y-112894265D01*
X188894265Y-112722738D01*
X189041936Y-112530289D01*
X189163224Y-112320212D01*
X189256054Y-112096100D01*
X189318838Y-111861789D01*
X189350500Y-111621288D01*
X189350500Y-111378712D01*
X189318838Y-111138211D01*
X189256054Y-110903900D01*
X189163224Y-110679788D01*
X189041936Y-110469711D01*
X189014035Y-110433349D01*
X188894270Y-110277268D01*
X188894268Y-110277266D01*
X188894265Y-110277262D01*
X188722738Y-110105735D01*
X188722733Y-110105731D01*
X188722731Y-110105729D01*
X188530292Y-109958066D01*
X188530289Y-109958064D01*
X188320212Y-109836776D01*
X188320208Y-109836774D01*
X188320204Y-109836772D01*
X188096105Y-109743948D01*
X188096104Y-109743947D01*
X188096100Y-109743946D01*
X187861789Y-109681162D01*
X187861786Y-109681161D01*
X187861784Y-109681161D01*
X187621289Y-109649500D01*
X187621288Y-109649500D01*
X187378712Y-109649500D01*
X187378710Y-109649500D01*
X187138218Y-109681161D01*
X187138213Y-109681161D01*
X186903907Y-109743944D01*
X186903894Y-109743948D01*
X186679795Y-109836772D01*
X186469707Y-109958066D01*
X186277268Y-110105729D01*
X186105729Y-110277268D01*
X185958066Y-110469707D01*
X185836772Y-110679795D01*
X185743948Y-110903894D01*
X185743944Y-110903907D01*
X185681161Y-111138213D01*
X185681161Y-111138218D01*
X185649500Y-111378710D01*
X167741415Y-111378710D01*
X167741415Y-111342350D01*
X167709753Y-111101849D01*
X167646969Y-110867538D01*
X167554139Y-110643426D01*
X167432851Y-110433349D01*
X167313086Y-110277268D01*
X167285185Y-110240906D01*
X167285183Y-110240904D01*
X167285180Y-110240900D01*
X167113653Y-110069373D01*
X167113648Y-110069369D01*
X167113646Y-110069367D01*
X166921207Y-109921704D01*
X166921204Y-109921702D01*
X166711127Y-109800414D01*
X166711123Y-109800412D01*
X166711119Y-109800410D01*
X166487020Y-109707586D01*
X166487019Y-109707585D01*
X166487015Y-109707584D01*
X166252704Y-109644800D01*
X166252701Y-109644799D01*
X166252699Y-109644799D01*
X166012204Y-109613138D01*
X166012203Y-109613138D01*
X165769627Y-109613138D01*
X165769625Y-109613138D01*
X165529133Y-109644799D01*
X165529128Y-109644799D01*
X165294822Y-109707582D01*
X165294809Y-109707586D01*
X165070710Y-109800410D01*
X164860622Y-109921704D01*
X164668183Y-110069367D01*
X164496644Y-110240906D01*
X164348981Y-110433345D01*
X164227687Y-110643433D01*
X164134863Y-110867532D01*
X164134859Y-110867545D01*
X164072076Y-111101851D01*
X164072076Y-111101856D01*
X164040415Y-111342348D01*
X146500500Y-111342348D01*
X146500500Y-108720943D01*
X178599500Y-108720943D01*
X178599500Y-108879057D01*
X178640423Y-109031784D01*
X178719480Y-109168716D01*
X178831284Y-109280520D01*
X178968216Y-109359577D01*
X179120943Y-109400500D01*
X179120945Y-109400500D01*
X179279055Y-109400500D01*
X179279057Y-109400500D01*
X179431784Y-109359577D01*
X179568716Y-109280520D01*
X179680520Y-109168716D01*
X179759577Y-109031784D01*
X179800500Y-108879057D01*
X179800500Y-108720943D01*
X179759577Y-108568216D01*
X179680520Y-108431284D01*
X179568716Y-108319480D01*
X179431784Y-108240423D01*
X179279057Y-108199500D01*
X179120943Y-108199500D01*
X178968216Y-108240423D01*
X178831284Y-108319480D01*
X178719480Y-108431284D01*
X178640423Y-108568216D01*
X178599500Y-108720943D01*
X146500500Y-108720943D01*
X146500500Y-106920943D01*
X155899500Y-106920943D01*
X155899500Y-107079057D01*
X155940423Y-107231784D01*
X156019480Y-107368716D01*
X156131284Y-107480520D01*
X156268216Y-107559577D01*
X156420943Y-107600500D01*
X156420945Y-107600500D01*
X156579055Y-107600500D01*
X156579057Y-107600500D01*
X156731784Y-107559577D01*
X156868716Y-107480520D01*
X156980520Y-107368716D01*
X157059577Y-107231784D01*
X157100500Y-107079057D01*
X157100500Y-106920943D01*
X157059577Y-106768216D01*
X156980520Y-106631284D01*
X156868716Y-106519480D01*
X156731784Y-106440423D01*
X156579057Y-106399500D01*
X156420943Y-106399500D01*
X156268216Y-106440423D01*
X156131284Y-106519480D01*
X156019480Y-106631284D01*
X155940423Y-106768216D01*
X155899500Y-106920943D01*
X146500500Y-106920943D01*
X146500500Y-105420943D01*
X154899500Y-105420943D01*
X154899500Y-105579057D01*
X154940423Y-105731784D01*
X155019480Y-105868716D01*
X155131284Y-105980520D01*
X155268216Y-106059577D01*
X155420943Y-106100500D01*
X155420945Y-106100500D01*
X155579055Y-106100500D01*
X155579057Y-106100500D01*
X155731784Y-106059577D01*
X155868716Y-105980520D01*
X155980520Y-105868716D01*
X156010988Y-105815943D01*
X161799500Y-105815943D01*
X161799500Y-105974057D01*
X161840423Y-106126784D01*
X161919480Y-106263716D01*
X162031284Y-106375520D01*
X162168216Y-106454577D01*
X162320943Y-106495500D01*
X162320945Y-106495500D01*
X162479055Y-106495500D01*
X162479057Y-106495500D01*
X162631784Y-106454577D01*
X162768716Y-106375520D01*
X162880520Y-106263716D01*
X162959577Y-106126784D01*
X163000500Y-105974057D01*
X163000500Y-105815943D01*
X162959577Y-105663216D01*
X162880520Y-105526284D01*
X162768716Y-105414480D01*
X162631784Y-105335423D01*
X162479057Y-105294500D01*
X162320943Y-105294500D01*
X162168216Y-105335423D01*
X162031284Y-105414480D01*
X161919480Y-105526284D01*
X161840423Y-105663216D01*
X161799500Y-105815943D01*
X156010988Y-105815943D01*
X156059577Y-105731784D01*
X156100500Y-105579057D01*
X156100500Y-105420943D01*
X156059577Y-105268216D01*
X156032284Y-105220943D01*
X165167124Y-105220943D01*
X165167124Y-105379057D01*
X165208047Y-105531784D01*
X165287104Y-105668716D01*
X165398908Y-105780520D01*
X165535840Y-105859577D01*
X165688567Y-105900500D01*
X165688569Y-105900500D01*
X165802753Y-105900500D01*
X165860944Y-105919407D01*
X165896908Y-105968907D01*
X165898098Y-106014215D01*
X165900347Y-106014511D01*
X165899500Y-106020942D01*
X165899500Y-106020943D01*
X165899500Y-106179057D01*
X165940423Y-106331784D01*
X166019480Y-106468716D01*
X166131284Y-106580520D01*
X166268216Y-106659577D01*
X166420943Y-106700500D01*
X166420945Y-106700500D01*
X166579055Y-106700500D01*
X166579057Y-106700500D01*
X166731784Y-106659577D01*
X166868716Y-106580520D01*
X166980520Y-106468716D01*
X167059577Y-106331784D01*
X167100500Y-106179057D01*
X167100500Y-106020943D01*
X167059577Y-105868216D01*
X166980520Y-105731284D01*
X166868716Y-105619480D01*
X166731784Y-105540423D01*
X166579057Y-105499500D01*
X166464871Y-105499500D01*
X166406680Y-105480593D01*
X166370716Y-105431093D01*
X166369527Y-105385787D01*
X166367277Y-105385491D01*
X166368124Y-105379057D01*
X166368124Y-105220944D01*
X166368124Y-105220943D01*
X166327201Y-105068216D01*
X166248144Y-104931284D01*
X166136340Y-104819480D01*
X165999408Y-104740423D01*
X165846681Y-104699500D01*
X165688567Y-104699500D01*
X165535840Y-104740423D01*
X165398908Y-104819480D01*
X165287104Y-104931284D01*
X165208047Y-105068216D01*
X165167124Y-105220943D01*
X156032284Y-105220943D01*
X155980520Y-105131284D01*
X155868716Y-105019480D01*
X155731784Y-104940423D01*
X155579057Y-104899500D01*
X155420943Y-104899500D01*
X155268216Y-104940423D01*
X155131284Y-105019480D01*
X155019480Y-105131284D01*
X154940423Y-105268216D01*
X154899500Y-105420943D01*
X146500500Y-105420943D01*
X146500500Y-104020943D01*
X155999500Y-104020943D01*
X155999500Y-104179057D01*
X156040423Y-104331784D01*
X156119480Y-104468716D01*
X156231284Y-104580520D01*
X156368216Y-104659577D01*
X156520943Y-104700500D01*
X156520945Y-104700500D01*
X156679055Y-104700500D01*
X156679057Y-104700500D01*
X156831784Y-104659577D01*
X156968716Y-104580520D01*
X157080520Y-104468716D01*
X157159577Y-104331784D01*
X157200500Y-104179057D01*
X157200500Y-104020943D01*
X157159577Y-103868216D01*
X157080520Y-103731284D01*
X156968716Y-103619480D01*
X156831784Y-103540423D01*
X156679057Y-103499500D01*
X156520943Y-103499500D01*
X156368216Y-103540423D01*
X156231284Y-103619480D01*
X156119480Y-103731284D01*
X156040423Y-103868216D01*
X155999500Y-104020943D01*
X146500500Y-104020943D01*
X146500500Y-101475943D01*
X166399500Y-101475943D01*
X166399500Y-101634057D01*
X166440423Y-101786784D01*
X166519480Y-101923716D01*
X166631284Y-102035520D01*
X166768216Y-102114577D01*
X166920943Y-102155500D01*
X166920945Y-102155500D01*
X167079055Y-102155500D01*
X167079057Y-102155500D01*
X167231784Y-102114577D01*
X167368716Y-102035520D01*
X167480520Y-101923716D01*
X167559577Y-101786784D01*
X167600500Y-101634057D01*
X167600500Y-101556261D01*
X171884364Y-101556261D01*
X171884364Y-101714375D01*
X171925287Y-101867102D01*
X172004344Y-102004034D01*
X172116148Y-102115838D01*
X172253080Y-102194895D01*
X172405807Y-102235818D01*
X172405809Y-102235818D01*
X172563919Y-102235818D01*
X172563921Y-102235818D01*
X172716648Y-102194895D01*
X172853580Y-102115838D01*
X172965384Y-102004034D01*
X173044441Y-101867102D01*
X173085364Y-101714375D01*
X173085364Y-101556261D01*
X173075411Y-101519116D01*
X173078614Y-101458015D01*
X173117119Y-101410465D01*
X173121514Y-101407771D01*
X173168716Y-101380520D01*
X173280520Y-101268716D01*
X173359577Y-101131784D01*
X173400500Y-100979057D01*
X173400500Y-100820943D01*
X173359577Y-100668216D01*
X173280520Y-100531284D01*
X173168716Y-100419480D01*
X173031784Y-100340423D01*
X172879057Y-100299500D01*
X172720943Y-100299500D01*
X172586335Y-100335568D01*
X172568216Y-100340423D01*
X172431284Y-100419480D01*
X172319480Y-100531284D01*
X172240423Y-100668216D01*
X172199500Y-100820944D01*
X172199500Y-100979059D01*
X172209452Y-101016202D01*
X172206249Y-101077303D01*
X172167743Y-101124852D01*
X172163326Y-101127559D01*
X172116150Y-101154796D01*
X172116148Y-101154798D01*
X172004344Y-101266602D01*
X171925287Y-101403534D01*
X171884364Y-101556261D01*
X167600500Y-101556261D01*
X167600500Y-101475943D01*
X167559577Y-101323216D01*
X167480520Y-101186284D01*
X167368716Y-101074480D01*
X167231784Y-100995423D01*
X167079057Y-100954500D01*
X166920943Y-100954500D01*
X166768216Y-100995423D01*
X166631284Y-101074480D01*
X166519480Y-101186284D01*
X166440423Y-101323216D01*
X166399500Y-101475943D01*
X146500500Y-101475943D01*
X146500500Y-100820943D01*
X168399500Y-100820943D01*
X168399500Y-100979057D01*
X168440423Y-101131784D01*
X168519480Y-101268716D01*
X168631284Y-101380520D01*
X168768216Y-101459577D01*
X168920943Y-101500500D01*
X168920945Y-101500500D01*
X169079055Y-101500500D01*
X169079057Y-101500500D01*
X169231784Y-101459577D01*
X169368716Y-101380520D01*
X169480520Y-101268716D01*
X169559577Y-101131784D01*
X169600500Y-100979057D01*
X169600500Y-100820943D01*
X169559577Y-100668216D01*
X169486784Y-100542134D01*
X169474064Y-100482288D01*
X169498951Y-100426393D01*
X169523020Y-100406902D01*
X169568716Y-100380520D01*
X169680520Y-100268716D01*
X169759577Y-100131784D01*
X169800500Y-99979057D01*
X169800500Y-99820943D01*
X169759577Y-99668216D01*
X169680520Y-99531284D01*
X169568716Y-99419480D01*
X169431784Y-99340423D01*
X169279057Y-99299500D01*
X169120943Y-99299500D01*
X168968216Y-99340423D01*
X168831284Y-99419480D01*
X168719480Y-99531284D01*
X168640423Y-99668216D01*
X168599500Y-99820943D01*
X168599500Y-99979057D01*
X168640423Y-100131784D01*
X168713214Y-100257863D01*
X168725935Y-100317711D01*
X168701048Y-100373606D01*
X168676978Y-100393098D01*
X168631285Y-100419479D01*
X168631284Y-100419480D01*
X168519480Y-100531284D01*
X168440423Y-100668216D01*
X168399500Y-100820943D01*
X146500500Y-100820943D01*
X146500500Y-99102174D01*
X173880731Y-99102174D01*
X173880731Y-99260288D01*
X173921654Y-99413015D01*
X174000711Y-99549947D01*
X174112515Y-99661751D01*
X174249447Y-99740808D01*
X174402174Y-99781731D01*
X174402176Y-99781731D01*
X174560286Y-99781731D01*
X174560288Y-99781731D01*
X174713015Y-99740808D01*
X174849947Y-99661751D01*
X174961751Y-99549947D01*
X175040808Y-99413015D01*
X175081731Y-99260288D01*
X175081731Y-99102174D01*
X175599499Y-99102174D01*
X175599499Y-99260288D01*
X175640422Y-99413015D01*
X175719479Y-99549947D01*
X175831283Y-99661751D01*
X175968215Y-99740808D01*
X176120942Y-99781731D01*
X176120944Y-99781731D01*
X176279054Y-99781731D01*
X176279056Y-99781731D01*
X176431783Y-99740808D01*
X176568715Y-99661751D01*
X176680519Y-99549947D01*
X176759576Y-99413015D01*
X176800499Y-99260288D01*
X176800499Y-99102174D01*
X176759576Y-98949447D01*
X176680519Y-98812515D01*
X176568715Y-98700711D01*
X176431783Y-98621654D01*
X176279056Y-98580731D01*
X176120942Y-98580731D01*
X175968215Y-98621654D01*
X175831283Y-98700711D01*
X175719479Y-98812515D01*
X175640422Y-98949447D01*
X175599499Y-99102174D01*
X175081731Y-99102174D01*
X175040808Y-98949447D01*
X174961751Y-98812515D01*
X174849947Y-98700711D01*
X174713015Y-98621654D01*
X174560288Y-98580731D01*
X174402174Y-98580731D01*
X174249447Y-98621654D01*
X174112515Y-98700711D01*
X174000711Y-98812515D01*
X173921654Y-98949447D01*
X173880731Y-99102174D01*
X146500500Y-99102174D01*
X146500500Y-98413836D01*
X166106607Y-98413836D01*
X166106607Y-98571950D01*
X166147530Y-98724677D01*
X166226587Y-98861609D01*
X166338391Y-98973413D01*
X166475323Y-99052470D01*
X166628050Y-99093393D01*
X166628052Y-99093393D01*
X166786162Y-99093393D01*
X166786164Y-99093393D01*
X166938891Y-99052470D01*
X167075823Y-98973413D01*
X167187627Y-98861609D01*
X167266684Y-98724677D01*
X167307607Y-98571950D01*
X167307607Y-98520943D01*
X178099500Y-98520943D01*
X178099500Y-98679057D01*
X178140423Y-98831784D01*
X178219480Y-98968716D01*
X178331284Y-99080520D01*
X178468216Y-99159577D01*
X178620943Y-99200500D01*
X178620945Y-99200500D01*
X178779055Y-99200500D01*
X178779057Y-99200500D01*
X178931784Y-99159577D01*
X179068716Y-99080520D01*
X179180520Y-98968716D01*
X179259577Y-98831784D01*
X179300500Y-98679057D01*
X179300500Y-98520943D01*
X179259577Y-98368216D01*
X179180520Y-98231284D01*
X179068716Y-98119480D01*
X178931784Y-98040423D01*
X178779057Y-97999500D01*
X178620943Y-97999500D01*
X178468216Y-98040423D01*
X178331284Y-98119480D01*
X178219480Y-98231284D01*
X178140423Y-98368216D01*
X178099500Y-98520943D01*
X167307607Y-98520943D01*
X167307607Y-98413836D01*
X167266684Y-98261109D01*
X167187627Y-98124177D01*
X167075823Y-98012373D01*
X166938891Y-97933316D01*
X166786164Y-97892393D01*
X166628050Y-97892393D01*
X166475323Y-97933316D01*
X166338391Y-98012373D01*
X166226587Y-98124177D01*
X166147530Y-98261109D01*
X166106607Y-98413836D01*
X146500500Y-98413836D01*
X146500500Y-97720943D01*
X182099500Y-97720943D01*
X182099500Y-97879057D01*
X182140423Y-98031784D01*
X182219480Y-98168716D01*
X182331284Y-98280520D01*
X182468216Y-98359577D01*
X182620943Y-98400500D01*
X182620945Y-98400500D01*
X182779055Y-98400500D01*
X182779057Y-98400500D01*
X182931784Y-98359577D01*
X183068716Y-98280520D01*
X183180520Y-98168716D01*
X183259577Y-98031784D01*
X183300500Y-97879057D01*
X183300500Y-97825931D01*
X184729500Y-97825931D01*
X184729500Y-97954069D01*
X184746677Y-98040423D01*
X184754499Y-98079742D01*
X184754500Y-98079747D01*
X184803534Y-98198125D01*
X184803538Y-98198133D01*
X184845618Y-98261109D01*
X184874724Y-98304669D01*
X184965331Y-98395276D01*
X184993110Y-98413837D01*
X185071866Y-98466461D01*
X185071870Y-98466463D01*
X185071873Y-98466465D01*
X185190256Y-98515501D01*
X185315931Y-98540500D01*
X185315932Y-98540500D01*
X185444068Y-98540500D01*
X185444069Y-98540500D01*
X185569744Y-98515501D01*
X185688127Y-98466465D01*
X185794669Y-98395276D01*
X185885276Y-98304669D01*
X185956465Y-98198127D01*
X186005501Y-98079744D01*
X186030500Y-97954069D01*
X186030500Y-97825931D01*
X186005501Y-97700256D01*
X185956465Y-97581873D01*
X185956463Y-97581870D01*
X185956461Y-97581866D01*
X185927717Y-97538848D01*
X185885276Y-97475331D01*
X185794669Y-97384724D01*
X185715439Y-97331784D01*
X185688133Y-97313538D01*
X185688125Y-97313534D01*
X185569747Y-97264500D01*
X185569745Y-97264499D01*
X185569744Y-97264499D01*
X185444069Y-97239500D01*
X185315931Y-97239500D01*
X185315930Y-97239500D01*
X185253093Y-97251999D01*
X185190256Y-97264499D01*
X185190255Y-97264499D01*
X185190252Y-97264500D01*
X185071874Y-97313534D01*
X185071866Y-97313538D01*
X184965331Y-97384724D01*
X184965327Y-97384727D01*
X184874727Y-97475327D01*
X184874724Y-97475331D01*
X184803538Y-97581866D01*
X184803534Y-97581874D01*
X184754500Y-97700252D01*
X184754499Y-97700255D01*
X184754499Y-97700256D01*
X184729500Y-97825931D01*
X183300500Y-97825931D01*
X183300500Y-97720943D01*
X183259577Y-97568216D01*
X183180520Y-97431284D01*
X183068716Y-97319480D01*
X182931784Y-97240423D01*
X182779057Y-97199500D01*
X182620943Y-97199500D01*
X182468216Y-97240423D01*
X182331284Y-97319480D01*
X182219480Y-97431284D01*
X182140423Y-97568216D01*
X182099500Y-97720943D01*
X146500500Y-97720943D01*
X146500500Y-95991532D01*
X150067000Y-95991532D01*
X150067000Y-96198467D01*
X150107369Y-96401418D01*
X150186558Y-96592597D01*
X150237418Y-96668715D01*
X150301523Y-96764655D01*
X150447845Y-96910977D01*
X150619902Y-97025941D01*
X150811080Y-97105130D01*
X151014035Y-97145500D01*
X151014036Y-97145500D01*
X151220964Y-97145500D01*
X151220965Y-97145500D01*
X151423920Y-97105130D01*
X151615098Y-97025941D01*
X151787155Y-96910977D01*
X151933477Y-96764655D01*
X152048441Y-96592598D01*
X152094690Y-96480943D01*
X164959500Y-96480943D01*
X164959500Y-96639057D01*
X165000423Y-96791784D01*
X165079480Y-96928716D01*
X165191284Y-97040520D01*
X165328216Y-97119577D01*
X165480943Y-97160500D01*
X165480945Y-97160500D01*
X165639055Y-97160500D01*
X165639057Y-97160500D01*
X165791784Y-97119577D01*
X165928716Y-97040520D01*
X166040520Y-96928716D01*
X166119577Y-96791784D01*
X166160500Y-96639057D01*
X166160500Y-96480943D01*
X166119577Y-96328216D01*
X166057643Y-96220943D01*
X168299500Y-96220943D01*
X168299500Y-96379057D01*
X168340423Y-96531784D01*
X168419480Y-96668716D01*
X168531284Y-96780520D01*
X168666966Y-96858855D01*
X168707906Y-96904324D01*
X168714302Y-96965174D01*
X168713092Y-96970212D01*
X168699500Y-97020940D01*
X168699500Y-97020943D01*
X168699500Y-97179057D01*
X168740423Y-97331784D01*
X168819480Y-97468716D01*
X168931284Y-97580520D01*
X169068216Y-97659577D01*
X169220943Y-97700500D01*
X169220945Y-97700500D01*
X169379055Y-97700500D01*
X169379057Y-97700500D01*
X169531784Y-97659577D01*
X169668716Y-97580520D01*
X169780520Y-97468716D01*
X169859577Y-97331784D01*
X169900500Y-97179057D01*
X169900500Y-97020943D01*
X169859577Y-96868216D01*
X169780520Y-96731284D01*
X169668716Y-96619480D01*
X169533033Y-96541144D01*
X169492093Y-96495675D01*
X169485697Y-96434825D01*
X169486907Y-96429785D01*
X169494508Y-96401421D01*
X169500500Y-96379057D01*
X169500500Y-96220943D01*
X169459577Y-96068216D01*
X169380520Y-95931284D01*
X169268716Y-95819480D01*
X169131784Y-95740423D01*
X168979057Y-95699500D01*
X168820943Y-95699500D01*
X168668216Y-95740423D01*
X168531284Y-95819480D01*
X168419480Y-95931284D01*
X168340423Y-96068216D01*
X168299500Y-96220943D01*
X166057643Y-96220943D01*
X166040520Y-96191284D01*
X165928716Y-96079480D01*
X165791784Y-96000423D01*
X165639057Y-95959500D01*
X165480943Y-95959500D01*
X165328216Y-96000423D01*
X165191284Y-96079480D01*
X165079480Y-96191284D01*
X165000423Y-96328216D01*
X164959500Y-96480943D01*
X152094690Y-96480943D01*
X152127630Y-96401420D01*
X152168000Y-96198465D01*
X152168000Y-95991535D01*
X152127630Y-95788580D01*
X152048441Y-95597402D01*
X151933477Y-95425345D01*
X151787155Y-95279023D01*
X151615098Y-95164059D01*
X151615099Y-95164059D01*
X151615097Y-95164058D01*
X151423918Y-95084869D01*
X151220967Y-95044500D01*
X151220965Y-95044500D01*
X151014035Y-95044500D01*
X151014032Y-95044500D01*
X150811081Y-95084869D01*
X150619902Y-95164058D01*
X150447848Y-95279020D01*
X150301520Y-95425348D01*
X150186558Y-95597402D01*
X150107369Y-95788581D01*
X150067000Y-95991532D01*
X146500500Y-95991532D01*
X146500500Y-94170945D01*
X177499500Y-94170945D01*
X177499500Y-94329059D01*
X177540423Y-94481786D01*
X177619480Y-94618718D01*
X177731284Y-94730522D01*
X177868216Y-94809579D01*
X178020943Y-94850502D01*
X178020945Y-94850502D01*
X178179055Y-94850502D01*
X178179057Y-94850502D01*
X178331784Y-94809579D01*
X178468716Y-94730522D01*
X178580520Y-94618718D01*
X178659577Y-94481786D01*
X178672882Y-94432127D01*
X178706206Y-94380815D01*
X178763328Y-94358888D01*
X178822428Y-94374724D01*
X178838507Y-94387743D01*
X178931284Y-94480520D01*
X179068216Y-94559577D01*
X179220943Y-94600500D01*
X179220945Y-94600500D01*
X179379055Y-94600500D01*
X179379057Y-94600500D01*
X179531784Y-94559577D01*
X179668716Y-94480520D01*
X179780520Y-94368716D01*
X179859577Y-94231784D01*
X179900500Y-94079057D01*
X179900500Y-93920943D01*
X179859577Y-93768216D01*
X179780520Y-93631284D01*
X179668716Y-93519480D01*
X179531784Y-93440423D01*
X179379057Y-93399500D01*
X179220943Y-93399500D01*
X179068216Y-93440423D01*
X178931284Y-93519480D01*
X178819480Y-93631284D01*
X178740422Y-93768218D01*
X178727116Y-93817874D01*
X178693791Y-93869188D01*
X178636669Y-93891113D01*
X178577569Y-93875276D01*
X178561491Y-93862257D01*
X178468716Y-93769482D01*
X178331784Y-93690425D01*
X178179057Y-93649502D01*
X178020943Y-93649502D01*
X177868216Y-93690425D01*
X177731284Y-93769482D01*
X177619480Y-93881286D01*
X177540423Y-94018218D01*
X177499500Y-94170945D01*
X146500500Y-94170945D01*
X146500500Y-93220943D01*
X168199500Y-93220943D01*
X168199500Y-93379057D01*
X168240423Y-93531784D01*
X168319480Y-93668716D01*
X168431284Y-93780520D01*
X168568216Y-93859577D01*
X168720943Y-93900500D01*
X168720945Y-93900500D01*
X168879055Y-93900500D01*
X168879057Y-93900500D01*
X169031784Y-93859577D01*
X169168716Y-93780520D01*
X169280520Y-93668716D01*
X169359577Y-93531784D01*
X169400500Y-93379057D01*
X169400500Y-93379055D01*
X169402179Y-93372789D01*
X169405164Y-93373589D01*
X169425993Y-93329803D01*
X169473292Y-93304058D01*
X169472789Y-93302179D01*
X169479055Y-93300500D01*
X169479057Y-93300500D01*
X169631784Y-93259577D01*
X169768716Y-93180520D01*
X169779998Y-93169237D01*
X169834513Y-93141462D01*
X169894945Y-93151033D01*
X169920000Y-93169236D01*
X169931284Y-93180520D01*
X170068216Y-93259577D01*
X170220943Y-93300500D01*
X170220945Y-93300500D01*
X170379055Y-93300500D01*
X170379057Y-93300500D01*
X170531784Y-93259577D01*
X170668716Y-93180520D01*
X170780520Y-93068716D01*
X170859577Y-92931784D01*
X170900500Y-92779057D01*
X170900500Y-92720943D01*
X171599500Y-92720943D01*
X171599500Y-92879057D01*
X171640423Y-93031784D01*
X171719480Y-93168716D01*
X171831284Y-93280520D01*
X171968216Y-93359577D01*
X172120943Y-93400500D01*
X172120945Y-93400500D01*
X172279055Y-93400500D01*
X172279057Y-93400500D01*
X172431784Y-93359577D01*
X172568716Y-93280520D01*
X172579998Y-93269237D01*
X172634513Y-93241462D01*
X172694945Y-93251033D01*
X172720000Y-93269236D01*
X172731284Y-93280520D01*
X172868216Y-93359577D01*
X173020943Y-93400500D01*
X173020945Y-93400500D01*
X173179055Y-93400500D01*
X173179057Y-93400500D01*
X173331784Y-93359577D01*
X173468716Y-93280520D01*
X173580520Y-93168716D01*
X173659577Y-93031784D01*
X173700500Y-92879057D01*
X173700500Y-92720943D01*
X173659577Y-92568216D01*
X173632284Y-92520943D01*
X182499500Y-92520943D01*
X182499500Y-92679057D01*
X182540423Y-92831784D01*
X182619480Y-92968716D01*
X182731284Y-93080520D01*
X182868216Y-93159577D01*
X183020943Y-93200500D01*
X183020945Y-93200500D01*
X183179055Y-93200500D01*
X183179057Y-93200500D01*
X183331784Y-93159577D01*
X183468716Y-93080520D01*
X183580520Y-92968716D01*
X183659577Y-92831784D01*
X183700500Y-92679057D01*
X183700500Y-92520943D01*
X183659577Y-92368216D01*
X183580520Y-92231284D01*
X183468716Y-92119480D01*
X183341324Y-92045931D01*
X184729500Y-92045931D01*
X184729500Y-92174069D01*
X184746302Y-92258538D01*
X184754499Y-92299742D01*
X184754500Y-92299747D01*
X184803534Y-92418125D01*
X184803538Y-92418133D01*
X184837003Y-92468216D01*
X184874724Y-92524669D01*
X184965331Y-92615276D01*
X185028848Y-92657717D01*
X185071866Y-92686461D01*
X185071870Y-92686463D01*
X185071873Y-92686465D01*
X185190256Y-92735501D01*
X185315931Y-92760500D01*
X185315932Y-92760500D01*
X185444068Y-92760500D01*
X185444069Y-92760500D01*
X185569744Y-92735501D01*
X185688127Y-92686465D01*
X185794669Y-92615276D01*
X185885276Y-92524669D01*
X185956465Y-92418127D01*
X186005501Y-92299744D01*
X186030500Y-92174069D01*
X186030500Y-92045931D01*
X186005501Y-91920256D01*
X185956465Y-91801873D01*
X185956463Y-91801870D01*
X185956461Y-91801866D01*
X185927717Y-91758848D01*
X185885276Y-91695331D01*
X185794669Y-91604724D01*
X185752226Y-91576365D01*
X185688133Y-91533538D01*
X185688125Y-91533534D01*
X185569747Y-91484500D01*
X185569745Y-91484499D01*
X185569744Y-91484499D01*
X185444069Y-91459500D01*
X185315931Y-91459500D01*
X185315930Y-91459500D01*
X185253093Y-91471999D01*
X185190256Y-91484499D01*
X185190255Y-91484499D01*
X185190252Y-91484500D01*
X185071874Y-91533534D01*
X185071866Y-91533538D01*
X184965331Y-91604724D01*
X184965327Y-91604727D01*
X184874727Y-91695327D01*
X184874724Y-91695331D01*
X184803538Y-91801866D01*
X184803534Y-91801874D01*
X184754500Y-91920252D01*
X184754499Y-91920257D01*
X184730596Y-92040423D01*
X184729500Y-92045931D01*
X183341324Y-92045931D01*
X183331784Y-92040423D01*
X183179057Y-91999500D01*
X183020943Y-91999500D01*
X182868216Y-92040423D01*
X182731284Y-92119480D01*
X182619480Y-92231284D01*
X182540423Y-92368216D01*
X182499500Y-92520943D01*
X173632284Y-92520943D01*
X173580520Y-92431284D01*
X173468716Y-92319480D01*
X173331784Y-92240423D01*
X173179057Y-92199500D01*
X173020943Y-92199500D01*
X172868216Y-92240423D01*
X172763702Y-92300764D01*
X172731281Y-92319482D01*
X172720001Y-92330762D01*
X172665484Y-92358538D01*
X172605052Y-92348964D01*
X172579999Y-92330762D01*
X172568718Y-92319482D01*
X172568716Y-92319480D01*
X172431784Y-92240423D01*
X172279057Y-92199500D01*
X172120943Y-92199500D01*
X171968216Y-92240423D01*
X171831284Y-92319480D01*
X171719480Y-92431284D01*
X171640423Y-92568216D01*
X171599500Y-92720943D01*
X170900500Y-92720943D01*
X170900500Y-92620943D01*
X170859577Y-92468216D01*
X170780520Y-92331284D01*
X170668716Y-92219480D01*
X170531784Y-92140423D01*
X170379057Y-92099500D01*
X170220943Y-92099500D01*
X170068216Y-92140423D01*
X170009943Y-92174067D01*
X169931281Y-92219482D01*
X169920001Y-92230762D01*
X169865484Y-92258538D01*
X169805052Y-92248964D01*
X169779999Y-92230762D01*
X169768718Y-92219482D01*
X169768716Y-92219480D01*
X169631784Y-92140423D01*
X169479057Y-92099500D01*
X169320943Y-92099500D01*
X169168216Y-92140423D01*
X169031284Y-92219480D01*
X168919480Y-92331284D01*
X168840423Y-92468216D01*
X168801019Y-92615276D01*
X168797821Y-92627211D01*
X168794871Y-92626420D01*
X168773864Y-92670345D01*
X168726694Y-92695892D01*
X168727211Y-92697821D01*
X168720945Y-92699500D01*
X168720943Y-92699500D01*
X168568216Y-92740423D01*
X168431284Y-92819480D01*
X168319480Y-92931284D01*
X168240423Y-93068216D01*
X168199500Y-93220943D01*
X146500500Y-93220943D01*
X146500500Y-90820943D01*
X173999500Y-90820943D01*
X173999500Y-90979057D01*
X174040423Y-91131784D01*
X174119480Y-91268716D01*
X174231284Y-91380520D01*
X174368216Y-91459577D01*
X174520943Y-91500500D01*
X174520945Y-91500500D01*
X174679055Y-91500500D01*
X174679057Y-91500500D01*
X174831784Y-91459577D01*
X174968716Y-91380520D01*
X175080520Y-91268716D01*
X175159577Y-91131784D01*
X175200500Y-90979057D01*
X175200500Y-90820943D01*
X175159577Y-90668216D01*
X175080520Y-90531284D01*
X174968716Y-90419480D01*
X174831784Y-90340423D01*
X174679057Y-90299500D01*
X174520943Y-90299500D01*
X174368216Y-90340423D01*
X174231284Y-90419480D01*
X174119480Y-90531284D01*
X174040423Y-90668216D01*
X173999500Y-90820943D01*
X146500500Y-90820943D01*
X146500500Y-89670943D01*
X170549500Y-89670943D01*
X170549500Y-89829057D01*
X170590423Y-89981784D01*
X170669480Y-90118716D01*
X170781284Y-90230520D01*
X170918216Y-90309577D01*
X171070943Y-90350500D01*
X171070945Y-90350500D01*
X171229055Y-90350500D01*
X171229057Y-90350500D01*
X171381784Y-90309577D01*
X171518716Y-90230520D01*
X171630520Y-90118716D01*
X171709577Y-89981784D01*
X171750500Y-89829057D01*
X171750500Y-89670943D01*
X171709577Y-89518216D01*
X171630520Y-89381284D01*
X171518716Y-89269480D01*
X171381784Y-89190423D01*
X171229057Y-89149500D01*
X171070943Y-89149500D01*
X170918216Y-89190423D01*
X170781284Y-89269480D01*
X170669480Y-89381284D01*
X170590423Y-89518216D01*
X170549500Y-89670943D01*
X146500500Y-89670943D01*
X146500500Y-86915352D01*
X151124500Y-86915352D01*
X151124500Y-87084647D01*
X151150980Y-87251842D01*
X151192315Y-87379055D01*
X151203295Y-87412849D01*
X151244594Y-87493903D01*
X151263895Y-87531784D01*
X151280150Y-87563685D01*
X151379654Y-87700641D01*
X151499359Y-87820346D01*
X151636315Y-87919850D01*
X151787151Y-87996705D01*
X151948153Y-88049018D01*
X151948154Y-88049018D01*
X151948157Y-88049019D01*
X152115353Y-88075500D01*
X152115356Y-88075500D01*
X152284647Y-88075500D01*
X152451842Y-88049019D01*
X152451843Y-88049018D01*
X152451847Y-88049018D01*
X152612849Y-87996705D01*
X152763685Y-87919850D01*
X152900641Y-87820346D01*
X153020346Y-87700641D01*
X153119850Y-87563685D01*
X153196705Y-87412849D01*
X153249018Y-87251847D01*
X153249019Y-87251842D01*
X153253913Y-87220943D01*
X172099500Y-87220943D01*
X172099500Y-87379057D01*
X172140423Y-87531784D01*
X172219480Y-87668716D01*
X172331284Y-87780520D01*
X172468216Y-87859577D01*
X172620943Y-87900500D01*
X172620945Y-87900500D01*
X172779055Y-87900500D01*
X172779057Y-87900500D01*
X172931784Y-87859577D01*
X173068716Y-87780520D01*
X173180520Y-87668716D01*
X173259577Y-87531784D01*
X173300500Y-87379057D01*
X173300500Y-87220943D01*
X173259577Y-87068216D01*
X173180520Y-86931284D01*
X173068716Y-86819480D01*
X172931784Y-86740423D01*
X172779057Y-86699500D01*
X172620943Y-86699500D01*
X172468216Y-86740423D01*
X172331284Y-86819480D01*
X172219480Y-86931284D01*
X172140423Y-87068216D01*
X172099500Y-87220943D01*
X153253913Y-87220943D01*
X153257394Y-87198967D01*
X153275500Y-87084647D01*
X153275500Y-86915352D01*
X153249019Y-86748157D01*
X153233535Y-86700500D01*
X153196705Y-86587151D01*
X153119850Y-86436315D01*
X153038163Y-86323883D01*
X153019256Y-86265693D01*
X153038163Y-86207503D01*
X153087663Y-86171539D01*
X153092602Y-86170075D01*
X153131784Y-86159577D01*
X153268716Y-86080520D01*
X153328293Y-86020943D01*
X164399500Y-86020943D01*
X164399500Y-86179057D01*
X164440423Y-86331784D01*
X164519480Y-86468716D01*
X164631284Y-86580520D01*
X164768216Y-86659577D01*
X164920943Y-86700500D01*
X164920945Y-86700500D01*
X165079055Y-86700500D01*
X165079057Y-86700500D01*
X165231784Y-86659577D01*
X165368716Y-86580520D01*
X165480520Y-86468716D01*
X165559577Y-86331784D01*
X165600500Y-86179057D01*
X165600500Y-86020943D01*
X165559577Y-85868216D01*
X165480520Y-85731284D01*
X165368716Y-85619480D01*
X165231784Y-85540423D01*
X165079057Y-85499500D01*
X164920943Y-85499500D01*
X164768216Y-85540423D01*
X164631284Y-85619480D01*
X164519480Y-85731284D01*
X164440423Y-85868216D01*
X164399500Y-86020943D01*
X153328293Y-86020943D01*
X153380520Y-85968716D01*
X153459577Y-85831784D01*
X153500500Y-85679057D01*
X153500500Y-85520943D01*
X153459577Y-85368216D01*
X153380520Y-85231284D01*
X153268716Y-85119480D01*
X153131784Y-85040423D01*
X152979057Y-84999500D01*
X152820943Y-84999500D01*
X152668216Y-85040423D01*
X152531284Y-85119480D01*
X152419480Y-85231284D01*
X152340423Y-85368216D01*
X152299500Y-85520943D01*
X152299500Y-85679057D01*
X152331874Y-85799877D01*
X152328671Y-85860979D01*
X152290166Y-85908528D01*
X152236247Y-85924500D01*
X152115353Y-85924500D01*
X151948157Y-85950980D01*
X151787155Y-86003293D01*
X151636317Y-86080148D01*
X151567837Y-86129902D01*
X151499359Y-86179654D01*
X151379654Y-86299359D01*
X151361836Y-86323884D01*
X151280148Y-86436317D01*
X151203293Y-86587155D01*
X151150980Y-86748157D01*
X151124500Y-86915352D01*
X146500500Y-86915352D01*
X146500500Y-85120943D01*
X149899500Y-85120943D01*
X149899500Y-85279057D01*
X149940423Y-85431784D01*
X150019480Y-85568716D01*
X150131284Y-85680520D01*
X150268216Y-85759577D01*
X150420943Y-85800500D01*
X150420945Y-85800500D01*
X150579055Y-85800500D01*
X150579057Y-85800500D01*
X150731784Y-85759577D01*
X150868716Y-85680520D01*
X150980520Y-85568716D01*
X151059577Y-85431784D01*
X151100500Y-85279057D01*
X151100500Y-85120943D01*
X151059577Y-84968216D01*
X150980520Y-84831284D01*
X150868716Y-84719480D01*
X150731784Y-84640423D01*
X150579057Y-84599500D01*
X150420943Y-84599500D01*
X150268216Y-84640423D01*
X150131284Y-84719480D01*
X150019480Y-84831284D01*
X149940423Y-84968216D01*
X149899500Y-85120943D01*
X146500500Y-85120943D01*
X146500500Y-84120943D01*
X151199500Y-84120943D01*
X151199500Y-84279057D01*
X151240423Y-84431784D01*
X151319480Y-84568716D01*
X151431284Y-84680520D01*
X151568216Y-84759577D01*
X151720943Y-84800500D01*
X151720945Y-84800500D01*
X151879055Y-84800500D01*
X151879057Y-84800500D01*
X152031784Y-84759577D01*
X152168716Y-84680520D01*
X152280520Y-84568716D01*
X152359577Y-84431784D01*
X152400500Y-84279057D01*
X152400500Y-84170943D01*
X167249500Y-84170943D01*
X167249500Y-84329057D01*
X167290423Y-84481784D01*
X167369480Y-84618716D01*
X167481284Y-84730520D01*
X167618216Y-84809577D01*
X167770943Y-84850500D01*
X167770945Y-84850500D01*
X167929055Y-84850500D01*
X167929057Y-84850500D01*
X168081784Y-84809577D01*
X168218716Y-84730520D01*
X168330520Y-84618716D01*
X168409577Y-84481784D01*
X168450500Y-84329057D01*
X168450500Y-84170943D01*
X168409577Y-84018216D01*
X168330520Y-83881284D01*
X168218716Y-83769480D01*
X168081784Y-83690423D01*
X167929057Y-83649500D01*
X167770943Y-83649500D01*
X167618216Y-83690423D01*
X167481284Y-83769480D01*
X167369480Y-83881284D01*
X167290423Y-84018216D01*
X167249500Y-84170943D01*
X152400500Y-84170943D01*
X152400500Y-84120943D01*
X152359577Y-83968216D01*
X152280520Y-83831284D01*
X152168716Y-83719480D01*
X152031784Y-83640423D01*
X151879057Y-83599500D01*
X151720943Y-83599500D01*
X151568216Y-83640423D01*
X151431284Y-83719480D01*
X151319480Y-83831284D01*
X151240423Y-83968216D01*
X151199500Y-84120943D01*
X146500500Y-84120943D01*
X146500500Y-83220943D01*
X153699500Y-83220943D01*
X153699500Y-83379057D01*
X153740423Y-83531784D01*
X153819480Y-83668716D01*
X153931284Y-83780520D01*
X154068216Y-83859577D01*
X154220943Y-83900500D01*
X154220945Y-83900500D01*
X154379055Y-83900500D01*
X154379057Y-83900500D01*
X154531784Y-83859577D01*
X154668716Y-83780520D01*
X154780520Y-83668716D01*
X154859577Y-83531784D01*
X154900500Y-83379057D01*
X154900500Y-83265208D01*
X164675235Y-83265208D01*
X164675235Y-83423322D01*
X164716158Y-83576049D01*
X164795215Y-83712981D01*
X164907019Y-83824785D01*
X165043951Y-83903842D01*
X165196678Y-83944765D01*
X165196680Y-83944765D01*
X165354790Y-83944765D01*
X165354792Y-83944765D01*
X165507519Y-83903842D01*
X165644451Y-83824785D01*
X165693089Y-83776146D01*
X165747603Y-83748370D01*
X165808035Y-83757941D01*
X165833091Y-83776144D01*
X165881284Y-83824337D01*
X166018216Y-83903394D01*
X166170943Y-83944317D01*
X166170945Y-83944317D01*
X166329055Y-83944317D01*
X166329057Y-83944317D01*
X166481784Y-83903394D01*
X166618716Y-83824337D01*
X166730520Y-83712533D01*
X166809577Y-83575601D01*
X166850500Y-83422874D01*
X166850500Y-83264760D01*
X166809577Y-83112033D01*
X166730520Y-82975101D01*
X166618716Y-82863297D01*
X166481784Y-82784240D01*
X166329057Y-82743317D01*
X166170943Y-82743317D01*
X166018216Y-82784240D01*
X165881281Y-82863299D01*
X165832646Y-82911934D01*
X165778129Y-82939711D01*
X165717697Y-82930139D01*
X165692642Y-82911936D01*
X165644451Y-82863745D01*
X165507519Y-82784688D01*
X165354792Y-82743765D01*
X165196678Y-82743765D01*
X165043951Y-82784688D01*
X164907019Y-82863745D01*
X164795215Y-82975549D01*
X164716158Y-83112481D01*
X164675235Y-83265208D01*
X154900500Y-83265208D01*
X154900500Y-83220943D01*
X154859577Y-83068216D01*
X154780520Y-82931284D01*
X154668716Y-82819480D01*
X154531784Y-82740423D01*
X154379057Y-82699500D01*
X154220943Y-82699500D01*
X154068216Y-82740423D01*
X153931284Y-82819480D01*
X153819480Y-82931284D01*
X153740423Y-83068216D01*
X153699500Y-83220943D01*
X146500500Y-83220943D01*
X146500500Y-81120943D01*
X152099500Y-81120943D01*
X152099500Y-81279057D01*
X152140423Y-81431784D01*
X152219480Y-81568716D01*
X152331284Y-81680520D01*
X152468216Y-81759577D01*
X152468218Y-81759577D01*
X152473836Y-81762821D01*
X152472807Y-81764603D01*
X152512230Y-81798275D01*
X152526512Y-81857770D01*
X152503095Y-81914298D01*
X152473175Y-81936035D01*
X152473836Y-81937179D01*
X152468218Y-81940422D01*
X152468216Y-81940423D01*
X152331284Y-82019480D01*
X152219480Y-82131284D01*
X152140423Y-82268216D01*
X152099500Y-82420943D01*
X152099500Y-82579057D01*
X152140423Y-82731784D01*
X152219480Y-82868716D01*
X152331284Y-82980520D01*
X152468216Y-83059577D01*
X152620943Y-83100500D01*
X152620945Y-83100500D01*
X152779055Y-83100500D01*
X152779057Y-83100500D01*
X152931784Y-83059577D01*
X153068716Y-82980520D01*
X153180520Y-82868716D01*
X153259577Y-82731784D01*
X153300500Y-82579057D01*
X153300500Y-82420943D01*
X153259577Y-82268216D01*
X153180520Y-82131284D01*
X153068716Y-82019480D01*
X152931784Y-81940423D01*
X152931781Y-81940422D01*
X152926164Y-81937179D01*
X152927193Y-81935395D01*
X152887774Y-81901733D01*
X152873487Y-81842240D01*
X152896897Y-81785710D01*
X152926825Y-81763966D01*
X152926164Y-81762821D01*
X152931781Y-81759577D01*
X152931784Y-81759577D01*
X153068716Y-81680520D01*
X153128293Y-81620943D01*
X181499500Y-81620943D01*
X181499500Y-81779057D01*
X181540423Y-81931784D01*
X181619480Y-82068716D01*
X181731284Y-82180520D01*
X181868216Y-82259577D01*
X182020943Y-82300500D01*
X182020945Y-82300500D01*
X182179055Y-82300500D01*
X182179057Y-82300500D01*
X182331784Y-82259577D01*
X182468716Y-82180520D01*
X182580520Y-82068716D01*
X182659577Y-81931784D01*
X182700500Y-81779057D01*
X182700500Y-81620943D01*
X182659577Y-81468216D01*
X182580520Y-81331284D01*
X182468716Y-81219480D01*
X182331784Y-81140423D01*
X182179057Y-81099500D01*
X182020943Y-81099500D01*
X181868216Y-81140423D01*
X181731284Y-81219480D01*
X181619480Y-81331284D01*
X181540423Y-81468216D01*
X181499500Y-81620943D01*
X153128293Y-81620943D01*
X153180520Y-81568716D01*
X153259577Y-81431784D01*
X153300500Y-81279057D01*
X153300500Y-81120943D01*
X153259577Y-80968216D01*
X153180520Y-80831284D01*
X153068716Y-80719480D01*
X152931784Y-80640423D01*
X152779057Y-80599500D01*
X152620943Y-80599500D01*
X152468216Y-80640423D01*
X152331284Y-80719480D01*
X152219480Y-80831284D01*
X152140423Y-80968216D01*
X152099500Y-81120943D01*
X146500500Y-81120943D01*
X146500500Y-77301456D01*
X151199500Y-77301456D01*
X151199500Y-77498543D01*
X151237949Y-77691834D01*
X151237949Y-77691836D01*
X151313367Y-77873913D01*
X151313368Y-77873914D01*
X151422861Y-78037782D01*
X151562218Y-78177139D01*
X151726086Y-78286632D01*
X151908165Y-78362051D01*
X152101459Y-78400500D01*
X152101460Y-78400500D01*
X152298540Y-78400500D01*
X152298541Y-78400500D01*
X152491835Y-78362051D01*
X152583296Y-78324167D01*
X164258584Y-78324167D01*
X164258584Y-78566746D01*
X164290245Y-78807238D01*
X164290245Y-78807243D01*
X164353028Y-79041549D01*
X164353032Y-79041562D01*
X164445856Y-79265661D01*
X164445858Y-79265665D01*
X164445860Y-79265669D01*
X164567148Y-79475746D01*
X164567150Y-79475749D01*
X164714813Y-79668188D01*
X164714815Y-79668190D01*
X164714819Y-79668195D01*
X164886346Y-79839722D01*
X164886350Y-79839725D01*
X164886352Y-79839727D01*
X164957428Y-79894265D01*
X165078795Y-79987393D01*
X165288872Y-80108681D01*
X165512984Y-80201511D01*
X165747295Y-80264295D01*
X165987796Y-80295957D01*
X165987797Y-80295957D01*
X166230371Y-80295957D01*
X166230372Y-80295957D01*
X166470873Y-80264295D01*
X166705184Y-80201511D01*
X166929296Y-80108681D01*
X167139373Y-79987393D01*
X167331822Y-79839722D01*
X167503349Y-79668195D01*
X167651020Y-79475746D01*
X167772308Y-79265669D01*
X167865138Y-79041557D01*
X167927922Y-78807246D01*
X167959584Y-78566745D01*
X167959584Y-78378710D01*
X185649500Y-78378710D01*
X185649500Y-78621289D01*
X185681161Y-78861781D01*
X185681161Y-78861786D01*
X185681162Y-78861789D01*
X185729332Y-79041562D01*
X185743944Y-79096092D01*
X185743948Y-79096105D01*
X185836772Y-79320204D01*
X185836774Y-79320208D01*
X185836776Y-79320212D01*
X185958064Y-79530289D01*
X185958066Y-79530292D01*
X186105729Y-79722731D01*
X186105731Y-79722733D01*
X186105735Y-79722738D01*
X186277262Y-79894265D01*
X186277266Y-79894268D01*
X186277268Y-79894270D01*
X186398625Y-79987390D01*
X186469711Y-80041936D01*
X186679788Y-80163224D01*
X186903900Y-80256054D01*
X187138211Y-80318838D01*
X187378712Y-80350500D01*
X187378713Y-80350500D01*
X187621287Y-80350500D01*
X187621288Y-80350500D01*
X187861789Y-80318838D01*
X188096100Y-80256054D01*
X188320212Y-80163224D01*
X188530289Y-80041936D01*
X188722738Y-79894265D01*
X188894265Y-79722738D01*
X189041936Y-79530289D01*
X189163224Y-79320212D01*
X189256054Y-79096100D01*
X189318838Y-78861789D01*
X189350500Y-78621288D01*
X189350500Y-78378712D01*
X189318838Y-78138211D01*
X189256054Y-77903900D01*
X189178391Y-77716406D01*
X189163227Y-77679795D01*
X189163226Y-77679794D01*
X189163224Y-77679788D01*
X189041936Y-77469711D01*
X188894265Y-77277262D01*
X188722738Y-77105735D01*
X188722733Y-77105731D01*
X188722731Y-77105729D01*
X188530292Y-76958066D01*
X188474901Y-76926086D01*
X188320212Y-76836776D01*
X188320208Y-76836774D01*
X188320204Y-76836772D01*
X188096105Y-76743948D01*
X188096104Y-76743947D01*
X188096100Y-76743946D01*
X187861789Y-76681162D01*
X187861786Y-76681161D01*
X187861784Y-76681161D01*
X187621289Y-76649500D01*
X187621288Y-76649500D01*
X187378712Y-76649500D01*
X187378710Y-76649500D01*
X187138218Y-76681161D01*
X187138213Y-76681161D01*
X186903907Y-76743944D01*
X186903894Y-76743948D01*
X186679795Y-76836772D01*
X186469707Y-76958066D01*
X186277268Y-77105729D01*
X186105729Y-77277268D01*
X185958066Y-77469707D01*
X185836772Y-77679795D01*
X185743948Y-77903894D01*
X185743944Y-77903907D01*
X185681161Y-78138213D01*
X185681161Y-78138218D01*
X185649500Y-78378710D01*
X167959584Y-78378710D01*
X167959584Y-78324169D01*
X167927922Y-78083668D01*
X167865138Y-77849357D01*
X167772308Y-77625245D01*
X167651020Y-77415168D01*
X167545206Y-77277268D01*
X167503354Y-77222725D01*
X167503352Y-77222723D01*
X167503349Y-77222719D01*
X167331822Y-77051192D01*
X167331817Y-77051188D01*
X167331815Y-77051186D01*
X167139376Y-76903523D01*
X167139373Y-76903521D01*
X166929296Y-76782233D01*
X166929292Y-76782231D01*
X166929288Y-76782229D01*
X166705189Y-76689405D01*
X166705188Y-76689404D01*
X166705184Y-76689403D01*
X166470873Y-76626619D01*
X166470870Y-76626618D01*
X166470868Y-76626618D01*
X166230373Y-76594957D01*
X166230372Y-76594957D01*
X165987796Y-76594957D01*
X165987794Y-76594957D01*
X165747302Y-76626618D01*
X165747297Y-76626618D01*
X165512991Y-76689401D01*
X165512978Y-76689405D01*
X165288879Y-76782229D01*
X165078791Y-76903523D01*
X164886352Y-77051186D01*
X164714813Y-77222725D01*
X164567150Y-77415164D01*
X164445856Y-77625252D01*
X164353032Y-77849351D01*
X164353028Y-77849364D01*
X164290245Y-78083670D01*
X164290245Y-78083675D01*
X164258584Y-78324167D01*
X152583296Y-78324167D01*
X152673914Y-78286632D01*
X152837782Y-78177139D01*
X152977139Y-78037782D01*
X153086632Y-77873914D01*
X153162051Y-77691835D01*
X153200500Y-77498541D01*
X153200500Y-77301459D01*
X153162051Y-77108165D01*
X153086632Y-76926086D01*
X152977139Y-76762218D01*
X152837782Y-76622861D01*
X152673914Y-76513368D01*
X152673915Y-76513368D01*
X152673913Y-76513367D01*
X152491835Y-76437949D01*
X152298543Y-76399500D01*
X152298541Y-76399500D01*
X152101459Y-76399500D01*
X152101456Y-76399500D01*
X151908165Y-76437949D01*
X151908163Y-76437949D01*
X151726086Y-76513367D01*
X151562218Y-76622861D01*
X151562214Y-76622864D01*
X151422864Y-76762214D01*
X151422861Y-76762218D01*
X151313367Y-76926086D01*
X151237949Y-77108163D01*
X151237949Y-77108165D01*
X151199500Y-77301456D01*
X146500500Y-77301456D01*
X146500500Y-75612238D01*
X146519407Y-75554047D01*
X146568907Y-75518083D01*
X146599435Y-75513238D01*
X167672632Y-75500500D01*
X190329861Y-75500500D01*
X190388052Y-75519407D01*
G37*
%TD.AperFunction*%
%TD*%
M02*
